<?xml version="1.0" standalone="no"?>
<!DOCTYPE svg PUBLIC "-//W3C//DTD SVG 1.1//EN" "http://www.w3.org/Graphics/SVG/1.1/DTD/svg11.dtd" >
<svg>
<metadata>
Created by FontForge 20090622 at Tue Nov 29 16:19:58 2016
 By deploy user
Copyright (c) 2016 by Vitaliy Tsygankov &#38; Jovanny Lemonad. All rights reserved.
</metadata>
<defs>
<font id="Matias" horiz-adv-x="490" >
  <font-face 
    font-family="Matias"
    font-weight="250"
    font-stretch="normal"
    units-per-em="1000"
    panose-1="2 0 5 6 2 0 0 2 0 4"
    ascent="800"
    descent="-200"
    x-height="530"
    cap-height="700"
    bbox="-110 -345 985 970"
    underline-thickness="50"
    underline-position="-50"
    unicode-range="U+000D-U+F6D4"
  />
<missing-glyph horiz-adv-x="0" 
 />
    <glyph glyph-name=".notdef" horiz-adv-x="0" 
 />
    <glyph glyph-name=".null" horiz-adv-x="0" 
 />
    <glyph glyph-name=".null" horiz-adv-x="0" 
 />
    <glyph glyph-name="nonmarkingreturn" horiz-adv-x="333" 
 />
    <glyph glyph-name="CR" unicode="&#xd;" horiz-adv-x="0" 
 />
    <glyph glyph-name="space" unicode=" " horiz-adv-x="170" 
 />
    <glyph glyph-name="exclam" unicode="!" horiz-adv-x="270" 
d="M135 100q23 0 39 -16t16 -39t-16 -39t-39 -16t-39 16t-16 39t16 39t39 16zM185 650v-410q0 -19 -15.5 -34.5t-34.5 -15.5t-34.5 15.5t-15.5 34.5v410q0 19 15.5 34.5t34.5 15.5t34.5 -15.5t15.5 -34.5z" />
    <glyph glyph-name="quotedbl" unicode="&#x22;" horiz-adv-x="365" 
d="M180 630l-55 -130q-1 -3 -3.5 -8t-14 -13.5t-27.5 -8.5q-22 0 -36 13t-14 32l5 25l55 130q1 3 3.5 8t14 13.5t27.5 8.5q22 0 36 -13t14 -32zM330 630l-55 -130q-1 -3 -3.5 -8t-14 -13.5t-27.5 -8.5q-22 0 -36 13t-14 32l5 25l55 130q1 3 3.5 8t14 13.5t27.5 8.5
q22 0 36 -13t14 -32z" />
    <glyph glyph-name="numbersign" unicode="#" horiz-adv-x="580" 
d="M260 420l-31 -140h91l30 140h-90zM420 280h45q19 0 34.5 -15.5t15.5 -34.5t-15.5 -34.5t-34.5 -15.5h-65l-29 -140q-8 -40 -51 -40q-19 0 -32 13t-13 32l5 40l20 95h-90l-29 -140q-8 -40 -51 -40q-19 0 -32 13t-13 32l5 40l20 95h-50q-19 0 -34.5 15.5t-15.5 34.5
t15.5 34.5t34.5 15.5h70l30 140h-45q-19 0 -34.5 15.5t-15.5 34.5t15.5 34.5t34.5 15.5h65l29 140q8 40 51 40q19 0 32 -13t13 -32l-5 -40l-20 -95h90l29 140q8 40 51 40q19 0 32 -13t13 -32l-5 -40l-20 -95h50q19 0 34.5 -15.5t15.5 -34.5t-15.5 -34.5t-34.5 -15.5h-70z
" />
    <glyph glyph-name="dollar" unicode="$" horiz-adv-x="480" 
d="M290 740v-35q53 -11 88 -40t47 -65q5 -15 5 -30q0 -22 -13 -36t-32 -14q-16 0 -27 7.5t-14 14.5l-4 8q-8 25 -31.5 42.5t-58.5 17.5q-45 0 -72.5 -27.5t-27.5 -72.5q0 -28 16 -48.5t41.5 -33t56.5 -23.5t62 -26.5t56.5 -36.5t41.5 -57t16 -85q0 -150 -150 -200v-40
q0 -19 -15.5 -34.5t-34.5 -15.5t-34.5 15.5t-15.5 34.5v35q-57 7 -95 39t-50 76q-5 15 -5 30q0 22 13 36t32 14q16 0 27 -7.5t14 -14.5l4 -8q26 -70 100 -70q49 0 79.5 30.5t30.5 79.5q0 28 -16 48.5t-41.5 33t-56.5 23.5t-62 26.5t-56.5 36.5t-41.5 57t-16 85
q0 75 38 122.5t102 67.5v40q0 19 15.5 34.5t34.5 15.5t34.5 -15.5t15.5 -34.5z" />
    <glyph glyph-name="percent" unicode="%" horiz-adv-x="695" 
d="M140 80l330 590q15 30 45 30q19 0 34.5 -15.5t15.5 -34.5q1 -19 -10 -30l-330 -590q-15 -30 -45 -30q-19 0 -34.5 15.5t-15.5 34.5q0 7 2.5 14.5t5.5 11.5zM160 350q-66 0 -103 44.5t-37 135.5t37 135.5t103 44.5t103 -44.5t37 -135.5t-37 -135.5t-103 -44.5zM160 440
q50 0 50 90t-50 90t-50 -90t50 -90zM535 -10q-66 0 -103 44.5t-37 135.5t37 135.5t103 44.5t103 -44.5t37 -135.5t-37 -135.5t-103 -44.5zM535 80q50 0 50 90t-50 90t-50 -90t50 -90z" />
    <glyph glyph-name="ampersand" unicode="&#x26;" horiz-adv-x="530" 
d="M490 0q-9 0 -19 5t-15 10l-6 5l-30 35q-7 -7 -20 -18t-57 -29t-93 -18q-89 0 -149.5 58.5t-60.5 141.5q0 34 11 65.5t26 53.5t30.5 38.5t26.5 24.5l11 8q-6 7 -15 19.5t-24.5 54.5t-15.5 86q0 71 49.5 120.5t120.5 49.5q60 0 105 -45t45 -105q0 -31 -13 -62.5t-31 -54
t-36.5 -41t-31.5 -28.5l-13 -9l135 -155l10 20q10 25 40 25q23 0 36.5 -13.5t13.5 -35.5l-5 -26l-30 -50l40 -45q15 -15 15 -35q0 -22 -14 -36t-36 -14zM355 130l-150 175q-7 -5 -18 -14.5t-29 -39.5t-18 -61q0 -46 29 -73t81 -27q31 0 57.5 10t36.5 20zM260 610
q-30 0 -50 -20t-20 -50q0 -27 9 -53t17 -39l9 -13l9 6t20.5 17.5t26 27.5t20.5 34t9 40q0 19 -15.5 34.5t-34.5 15.5z" />
    <glyph glyph-name="quotesingle" unicode="'" horiz-adv-x="215" 
d="M180 630l-55 -130q-1 -3 -3.5 -8t-14 -13.5t-27.5 -8.5q-22 0 -36 13t-14 32l5 25l55 130q1 3 3.5 8t14 13.5t27.5 8.5q22 0 36 -13t14 -32z" />
    <glyph glyph-name="parenleft" unicode="(" horiz-adv-x="350" 
d="M170 315q0 -109 10 -184.5t28 -113t37.5 -52.5t44.5 -15q19 0 34.5 -15.5t15.5 -34.5t-15.5 -34.5t-34.5 -15.5q-220 0 -220 465t220 465q19 0 34.5 -15.5t15.5 -34.5t-15.5 -34.5t-34.5 -15.5q-25 0 -44.5 -15t-37.5 -52.5t-28 -113t-10 -184.5z" />
    <glyph glyph-name="parenright" unicode=")" horiz-adv-x="350" 
d="M180 315q0 109 -10 184.5t-28 113t-37.5 52.5t-44.5 15q-19 0 -34.5 15.5t-15.5 34.5t15.5 34.5t34.5 15.5q220 0 220 -465t-220 -465q-19 0 -34.5 15.5t-15.5 34.5t15.5 34.5t34.5 15.5q25 0 44.5 15t37.5 52.5t28 113t10 184.5z" />
    <glyph glyph-name="asterisk" unicode="*" horiz-adv-x="300" 
d="M150 460q-15 0 -25 10t-10 25v35l-25 -15q-15 -10 -25 -10q-15 0 -25 10t-10 25q0 9 5 16.5t10 10.5l5 3l35 20l-35 20q-20 10 -20 30q0 15 10 25t25 10q4 0 10.5 -2.5t10.5 -4.5l4 -3l25 -15v35q0 15 10 25t25 10t25 -10t10 -25v-35l25 15q15 10 25 10q15 0 25 -10
t10 -25q0 -9 -5 -16.5t-10 -10.5l-5 -3l-35 -20l35 -20q20 -10 20 -30q0 -15 -10 -25t-25 -10q-4 0 -10.5 2.5t-10.5 4.5l-4 3l-25 15v-35q0 -15 -10 -25t-25 -10z" />
    <glyph glyph-name="plus" unicode="+" horiz-adv-x="400" 
d="M150 170v100h-80q-19 0 -34.5 15.5t-15.5 34.5t15.5 34.5t34.5 15.5h80v100q0 19 15.5 34.5t34.5 15.5t34.5 -15.5t15.5 -34.5v-100h80q19 0 34.5 -15.5t15.5 -34.5t-15.5 -34.5t-34.5 -15.5h-80v-100q0 -19 -15.5 -34.5t-34.5 -15.5t-34.5 15.5t-15.5 34.5z" />
    <glyph glyph-name="comma" unicode="," horiz-adv-x="170" 
d="M135 20l-65 -120q-10 -20 -35 -20q-15 0 -25 10t-10 25l5 30l40 120q1 4 3.5 10t14 15.5t27.5 9.5q22 0 36 -14t14 -36z" />
    <glyph glyph-name="hyphen" unicode="-" horiz-adv-x="380" 
d="M310 270h-240q-19 0 -34.5 15.5t-15.5 34.5t15.5 34.5t34.5 15.5h240q19 0 34.5 -15.5t15.5 -34.5t-15.5 -34.5t-34.5 -15.5z" />
    <glyph glyph-name="period" unicode="." horiz-adv-x="170" 
d="M85 100q23 0 39 -16t16 -39t-16 -39t-39 -16t-39 16t-16 39t16 39t39 16z" />
    <glyph glyph-name="slash" unicode="/" horiz-adv-x="435" 
d="M10 60l330 630q15 30 45 30q19 0 34.5 -15.5t15.5 -34.5q0 -7 -2.5 -14.5t-4.5 -11.5l-3 -4l-330 -630q-15 -30 -45 -30q-19 0 -34.5 15.5t-15.5 34.5q0 7 2.5 14.5t5.5 11.5z" />
    <glyph glyph-name="zero" unicode="0" horiz-adv-x="540" 
d="M380 350q0 146 -29.5 203t-80.5 57t-80.5 -57t-29.5 -203t29.5 -203t80.5 -57t80.5 57t29.5 203zM60 350q0 360 210 360t210 -360t-210 -360t-210 360z" />
    <glyph glyph-name="one" unicode="1" horiz-adv-x="370" 
d="M240 0q-19 0 -34.5 15.5t-15.5 34.5v470l-80 -90q-15 -20 -40 -20q-22 0 -36 14t-14 36q0 9 4 17.5t8 12.5l3 5l155 175q27 30 50 30q19 0 34.5 -15.5t15.5 -34.5v-600q0 -19 -15.5 -34.5t-34.5 -15.5z" />
    <glyph glyph-name="two" unicode="2" horiz-adv-x="455" 
d="M305 520q0 41 -24.5 65.5t-65.5 24.5q-35 0 -58.5 -17.5t-31.5 -42.5q-1 -3 -3.5 -8t-14 -13.5t-27.5 -8.5q-19 0 -32 14t-13 36l5 30q13 43 59.5 76.5t115.5 33.5q81 0 135.5 -52.5t54.5 -137.5q0 -50 -22.5 -112t-55 -114t-65 -97t-54.5 -71l-23 -26h180
q19 0 34.5 -15.5t15.5 -34.5t-15.5 -34.5t-34.5 -15.5h-285q-19 0 -34.5 15.5t-15.5 34.5q0 9 4 17.5t8 12.5l3 5l26 27q26 28 65 75t77 101.5t65 118t27 113.5z" />
    <glyph glyph-name="three" unicode="3" horiz-adv-x="470" 
d="M190 410h30q45 0 72.5 27.5t27.5 72.5t-27.5 72.5t-72.5 27.5q-35 0 -58.5 -17.5t-31.5 -42.5q-1 -3 -3.5 -8t-14 -13.5t-27.5 -8.5q-19 0 -32 14t-13 36l5 30q13 43 59.5 76.5t115.5 33.5q84 0 142 -54t58 -136q0 -31 -9.5 -57.5t-22.5 -43t-26 -28t-22 -16.5l-10 -5
l11 -5.5t24 -18t30 -32.5t24 -51.5t11 -72.5q0 -83 -60.5 -141.5t-149.5 -58.5q-73 0 -120.5 35t-64.5 85q-5 15 -5 30q0 22 13 36t32 14q16 0 27 -7.5t14 -14.5l4 -8q26 -70 100 -70q49 0 79.5 30.5t30.5 79.5t-30.5 79.5t-79.5 30.5h-30q-19 0 -34.5 15.5t-15.5 34.5
t15.5 34.5t34.5 15.5z" />
    <glyph glyph-name="four" unicode="4" horiz-adv-x="460" 
d="M380 350v-80h10q19 0 34.5 -15.5t15.5 -34.5t-15.5 -34.5t-34.5 -15.5h-10v-120q0 -19 -15.5 -34.5t-34.5 -15.5t-34.5 15.5t-15.5 34.5v120h-220q-19 0 -34.5 15.5t-15.5 34.5q0 11 6 26t12 24l7 10l240 400q10 20 40 20q23 0 36.5 -14t13.5 -36q0 -7 -3.5 -15.5
t-7.5 -14.5l-4 -5l-205 -345h135v80q0 19 15.5 34.5t34.5 15.5t34.5 -15.5t15.5 -34.5z" />
    <glyph glyph-name="five" unicode="5" horiz-adv-x="470" 
d="M165 700h195q19 0 34.5 -15.5t15.5 -34.5t-15.5 -34.5t-34.5 -15.5h-155l-35 -170q30 10 70 10q74 0 132 -64.5t58 -155.5q0 -100 -61 -165t-149 -65q-73 0 -120.5 35t-64.5 85q-5 15 -5 30q0 22 13 36t32 14q16 0 27 -7.5t14 -14.5l4 -8q26 -70 100 -70q46 0 78 36
t32 94q0 60 -35 95t-95 35q-18 0 -34 -2.5t-24 -5.5l-7 -2q-15 -5 -30 -5q-19 0 -32 13t-13 32l5 40l50 240q3 16 17.5 28t32.5 12z" />
    <glyph glyph-name="six" unicode="6" horiz-adv-x="500" 
d="M260 -10q-88 0 -149 78.5t-61 221.5q0 175 66.5 272t183.5 143q15 5 40 5q22 0 38.5 -15.5t16.5 -34.5q0 -42 -40 -50q-73 -15 -131.5 -78.5t-73.5 -151.5q4 6 13.5 14t43 22t73.5 14q74 0 127 -60t53 -155t-59.5 -160t-140.5 -65zM150 290q4 -105 34 -152.5t76 -47.5
q40 0 65 32t25 93q0 62 -26.5 93.5t-73.5 31.5q-27 0 -52 -12.5t-36 -25.5z" />
    <glyph glyph-name="seven" unicode="7" horiz-adv-x="400" 
d="M120 0q-22 0 -36 14t-14 36l10 35l190 515h-220q-19 0 -34.5 15.5t-15.5 34.5t15.5 34.5t34.5 15.5h290q19 0 34.5 -15.5t15.5 -34.5l-5 -25l-220 -595q-1 -3 -3.5 -8t-14 -13.5t-27.5 -8.5z" />
    <glyph glyph-name="eight" unicode="8" horiz-adv-x="500" 
d="M250 410q45 0 72.5 27.5t27.5 72.5t-27.5 72.5t-72.5 27.5t-72.5 -27.5t-27.5 -72.5t27.5 -72.5t72.5 -27.5zM250 710q84 0 142 -54t58 -136q0 -31 -9.5 -57.5t-22.5 -43t-26 -28t-22 -16.5l-10 -5l11 -5.5t24 -18t30 -32.5t24 -51.5t11 -72.5q0 -83 -60.5 -141.5
t-149.5 -58.5t-149.5 58.5t-60.5 141.5q0 39 10.5 72t25 52t29 32.5t25.5 18.5l10 5l-10 5t-21.5 16t-27.5 28.5t-21.5 42.5t-9.5 58q0 82 58 136t142 54zM250 90q49 0 79.5 30.5t30.5 79.5t-30.5 79.5t-79.5 30.5t-79.5 -30.5t-30.5 -79.5t30.5 -79.5t79.5 -30.5z" />
    <glyph glyph-name="nine" unicode="9" horiz-adv-x="500" 
d="M240 710q88 0 149 -78.5t61 -221.5q0 -175 -66.5 -272t-183.5 -143q-15 -5 -40 -5q-22 0 -38.5 15.5t-16.5 34.5q0 42 40 50q73 15 131.5 78.5t73.5 151.5q-4 -6 -13.5 -14t-43 -22t-73.5 -14q-74 0 -127 60t-53 155t59.5 160t140.5 65zM350 410q-4 105 -34 152.5
t-76 47.5q-40 0 -65 -32t-25 -93q0 -62 26.5 -93.5t73.5 -31.5q27 0 52 12.5t36 25.5z" />
    <glyph glyph-name="colon" unicode=":" horiz-adv-x="170" 
d="M85 530q23 0 39 -16t16 -39t-16 -39t-39 -16t-39 16t-16 39t16 39t39 16zM85 100q23 0 39 -16t16 -39t-16 -39t-39 -16t-39 16t-16 39t16 39t39 16z" />
    <glyph glyph-name="semicolon" unicode=";" horiz-adv-x="175" 
d="M90 530q22 0 38.5 -16t16.5 -39t-16.5 -39t-38.5 -16t-38.5 16t-16.5 39t16.5 39t38.5 16zM135 20l-65 -120q-10 -20 -35 -20q-15 0 -25 10t-10 25l5 30l40 120q1 4 3.5 10t14 15.5t27.5 9.5q22 0 36 -14t14 -36z" />
    <glyph glyph-name="less" unicode="&#x3c;" horiz-adv-x="495" 
d="M180 270l260 -120q25 -10 25 -40q0 -22 -13 -36t-32 -14q-7 0 -14.5 2.5t-11.5 5.5l-4 2l-340 160q-30 15 -30 40t30 40l340 160q15 10 30 10q19 0 32 -14t13 -36q0 -13 -6.5 -23t-12.5 -13l-6 -4z" />
    <glyph glyph-name="equal" unicode="=" horiz-adv-x="390" 
d="M320 170h-250q-19 0 -34.5 15.5t-15.5 34.5t15.5 34.5t34.5 15.5h250q19 0 34.5 -15.5t15.5 -34.5t-15.5 -34.5t-34.5 -15.5zM320 350h-250q-19 0 -34.5 15.5t-15.5 34.5t15.5 34.5t34.5 15.5h250q19 0 34.5 -15.5t15.5 -34.5t-15.5 -34.5t-34.5 -15.5z" />
    <glyph glyph-name="greater" unicode="&#x3e;" horiz-adv-x="495" 
d="M55 150l260 120l-260 120q-25 10 -25 40q0 22 13 36t32 14q7 0 14.5 -2.5t11.5 -5.5l4 -2l340 -160q30 -15 30 -40t-30 -40l-340 -160q-15 -10 -30 -10q-19 0 -32 14t-13 36q0 13 6 23t12 13z" />
    <glyph glyph-name="question" unicode="?" horiz-adv-x="390" 
d="M370 520q0 -40 -20.5 -77.5t-44.5 -62.5t-44.5 -62.5t-20.5 -77.5q0 -19 -15.5 -34.5t-34.5 -15.5t-34.5 15.5t-15.5 34.5q0 51 20.5 94.5t44.5 68.5t44.5 56.5t20.5 60.5q0 40 -23 65t-57 25q-28 0 -50 -18t-30 -42q-1 -3 -3.5 -8t-14 -13.5t-27.5 -8.5q-19 0 -32 14
t-13 36l5 30q13 42 57.5 76t107.5 34q74 0 127 -53t53 -137zM190 100q22 0 38.5 -16t16.5 -39t-16.5 -39t-38.5 -16t-38.5 16t-16.5 39t16.5 39t38.5 16z" />
    <glyph glyph-name="at" unicode="@" horiz-adv-x="910" 
d="M460 710q182 0 291 -115t109 -315q0 -122 -50.5 -186t-129.5 -64q-22 0 -43 6.5t-34 16.5t-23.5 19.5t-15.5 15.5l-4 7q-6 -7 -16.5 -18t-44 -29t-69.5 -18q-61 0 -100.5 41.5t-39.5 108.5q0 68 48 114t122 46q18 0 35.5 -4t26.5 -8l8 -3v15q0 34 -23 57t-57 23
q-16 0 -33.5 -5t-26.5 -10l-10 -5q-10 -5 -25 -5t-27.5 13.5t-12.5 31.5q0 11 7.5 21t15.5 15l7 4q50 30 105 30q75 0 122.5 -47.5t47.5 -122.5v-160q0 -26 17 -43t43 -17q35 0 62.5 39t27.5 121q0 159 -84.5 249.5t-225.5 90.5q-148 0 -234 -91.5t-86 -258.5t86 -258.5
t234 -91.5q22 0 36 -13t14 -32t-14 -32t-36 -13q-190 0 -300 116t-110 324t110 324t300 116zM450 120q22 0 42 10t29 20l9 11v74q-30 15 -70 15q-37 0 -58.5 -19.5t-21.5 -50.5q0 -23 20.5 -41.5t49.5 -18.5z" />
    <glyph glyph-name="A" unicode="A" horiz-adv-x="510" 
d="M25 75l180 585q5 16 18.5 28t31.5 12t31.5 -12t18.5 -28l180 -585q5 -15 5 -25q0 -22 -14 -36t-36 -14q-16 0 -27 7.5t-15 14.5l-3 8l-30 95h-220l-30 -95q-1 -3 -3.5 -8t-14 -13.5t-27.5 -8.5q-22 0 -36 14t-14 36zM175 225h160l-80 265z" />
    <glyph glyph-name="B" unicode="B" horiz-adv-x="510" 
d="M340 410q5 -1 14 -4t31.5 -16.5t39.5 -31.5t31 -52t14 -76q0 -111 -83.5 -175.5t-256.5 -64.5q-19 0 -34.5 15.5t-15.5 34.5v610q0 19 13.5 32.5t36.5 17.5q40 10 90 10q87 0 143.5 -48.5t56.5 -111.5q0 -44 -20 -79t-40 -48zM320 540q0 32 -25 51t-75 19l-40 -5v-155
q71 0 105.5 25t34.5 65zM180 350v-260q102 7 146 43.5t44 106.5q0 47 -37.5 78.5t-102.5 31.5h-50z" />
    <glyph glyph-name="C" unicode="C" horiz-adv-x="505" 
d="M285 -10q-108 0 -166.5 83.5t-58.5 276.5t58.5 276.5t166.5 83.5q69 0 115.5 -33.5t59.5 -76.5q5 -15 5 -30q0 -22 -13 -36t-32 -14q-16 0 -27 7.5t-15 14.5l-3 8q-8 25 -31.5 42.5t-58.5 17.5q-62 0 -93.5 -56t-31.5 -204t31.5 -204t93.5 -56q74 0 100 70q1 3 3.5 8
t14 13.5t27.5 8.5q19 0 32 -14t13 -36l-5 -30q-17 -50 -64.5 -85t-120.5 -35z" />
    <glyph glyph-name="D" unicode="D" horiz-adv-x="540" 
d="M230 710q260 0 260 -340q0 -171 -100.5 -275.5t-259.5 -104.5q-22 0 -36 14t-14 36v610q0 19 13.5 32.5t36.5 17.5q40 10 100 10zM180 606v-516q210 48 210 280q0 121 -44 180.5t-116 59.5q-11 0 -23.5 -1t-19.5 -2z" />
    <glyph glyph-name="E" unicode="E" horiz-adv-x="440" 
d="M350 600h-170v-160h160q19 0 34.5 -15.5t15.5 -34.5t-15.5 -34.5t-34.5 -15.5h-160v-240h170q19 0 34.5 -15.5t15.5 -34.5t-15.5 -34.5t-34.5 -15.5h-220q-19 0 -34.5 15.5t-15.5 34.5v600q0 19 15.5 34.5t34.5 15.5h220q19 0 34.5 -15.5t15.5 -34.5t-15.5 -34.5
t-34.5 -15.5z" />
    <glyph glyph-name="F" unicode="F" horiz-adv-x="430" 
d="M350 600h-170v-160h160q19 0 34.5 -15.5t15.5 -34.5t-15.5 -34.5t-34.5 -15.5h-160v-290q0 -19 -15.5 -34.5t-34.5 -15.5t-34.5 15.5t-15.5 34.5v600q0 19 15.5 34.5t34.5 15.5h220q19 0 34.5 -15.5t15.5 -34.5t-15.5 -34.5t-34.5 -15.5z" />
    <glyph glyph-name="G" unicode="G" horiz-adv-x="540" 
d="M490 290v-50q0 -109 -61.5 -179.5t-143.5 -70.5q-108 0 -166.5 83.5t-58.5 276.5t58.5 276.5t166.5 83.5q69 0 115.5 -33.5t59.5 -76.5q5 -15 5 -30q0 -22 -13 -36t-32 -14q-16 0 -27 7.5t-15 14.5l-3 8q-8 25 -31.5 42.5t-58.5 17.5q-62 0 -93.5 -56t-31.5 -204
t31.5 -204t93.5 -56q44 0 74.5 39.5t30.5 110.5h-80q-19 0 -34.5 15.5t-15.5 34.5t15.5 34.5t34.5 15.5h130q19 0 34.5 -15.5t15.5 -34.5z" />
    <glyph glyph-name="H" unicode="H" horiz-adv-x="570" 
d="M180 440h210v210q0 19 15.5 34.5t34.5 15.5t34.5 -15.5t15.5 -34.5v-600q0 -19 -15.5 -34.5t-34.5 -15.5t-34.5 15.5t-15.5 34.5v290h-210v-290q0 -19 -15.5 -34.5t-34.5 -15.5t-34.5 15.5t-15.5 34.5v600q0 19 15.5 34.5t34.5 15.5t34.5 -15.5t15.5 -34.5v-210z" />
    <glyph glyph-name="I" unicode="I" horiz-adv-x="260" 
d="M180 650v-600q0 -19 -15.5 -34.5t-34.5 -15.5t-34.5 15.5t-15.5 34.5v600q0 19 15.5 34.5t34.5 15.5t34.5 -15.5t15.5 -34.5z" />
    <glyph glyph-name="J" unicode="J" horiz-adv-x="430" 
d="M160 90q42 0 71 31t29 79v450q0 19 15.5 34.5t34.5 15.5t34.5 -15.5t15.5 -34.5v-450q0 -93 -56.5 -151.5t-143.5 -58.5q-61 0 -101 26.5t-54 58.5q-5 10 -5 30q0 22 13 36t32 14q11 0 21 -6.5t14 -12.5l5 -6q30 -40 75 -40z" />
    <glyph glyph-name="K" unicode="K" horiz-adv-x="520" 
d="M360 390l135 -320q5 -10 5 -20q0 -22 -14 -36t-36 -14q-13 0 -24.5 7.5t-15.5 14.5l-5 8l-130 310h-95v-290q0 -19 -15.5 -34.5t-34.5 -15.5t-34.5 15.5t-15.5 34.5v600q0 19 15.5 34.5t34.5 15.5t34.5 -15.5t15.5 -34.5v-210h95l95 230q15 30 45 30q23 0 36.5 -14
t13.5 -36l-5 -20z" />
    <glyph glyph-name="L" unicode="L" horiz-adv-x="400" 
d="M180 100h160q19 0 34.5 -15.5t15.5 -34.5t-15.5 -34.5t-34.5 -15.5h-210q-19 0 -34.5 15.5t-15.5 34.5v600q0 19 15.5 34.5t34.5 15.5t34.5 -15.5t15.5 -34.5v-550z" />
    <glyph glyph-name="M" unicode="M" horiz-adv-x="710" 
d="M355 235l115 425q5 17 19.5 28.5t35.5 11.5q22 0 37.5 -12t17.5 -28l85 -570q5 -25 5 -40q0 -22 -14 -36t-36 -14q-21 0 -34.5 12t-15.5 28l-60 410l-110 -410q-3 -12 -15 -21t-30 -9t-30 9t-15 21l-110 410l-60 -410q-2 -16 -15.5 -28t-34.5 -12q-22 0 -36 14t-14 36
l5 40l85 570q2 16 17.5 28t37.5 12q21 0 35.5 -11.5t19.5 -28.5z" />
    <glyph glyph-name="N" unicode="N" horiz-adv-x="590" 
d="M405 40l-225 420v-410q0 -19 -15.5 -34.5t-34.5 -15.5t-34.5 15.5t-15.5 34.5v600q0 19 15.5 34.5t34.5 15.5q33 0 55 -40l225 -420v410q0 19 15.5 34.5t34.5 15.5t34.5 -15.5t15.5 -34.5v-600q0 -19 -15.5 -34.5t-34.5 -15.5q-33 0 -55 40z" />
    <glyph glyph-name="O" unicode="O" horiz-adv-x="570" 
d="M410 350q0 148 -31.5 204t-93.5 56t-93.5 -56t-31.5 -204t31.5 -204t93.5 -56t93.5 56t31.5 204zM510 350q0 -193 -58.5 -276.5t-166.5 -83.5t-166.5 83.5t-58.5 276.5t58.5 276.5t166.5 83.5t166.5 -83.5t58.5 -276.5z" />
    <glyph glyph-name="P" unicode="P" horiz-adv-x="510" 
d="M230 710q110 0 175 -59t65 -151q0 -108 -68 -166.5t-222 -73.5v-210q0 -19 -15.5 -34.5t-34.5 -15.5t-34.5 15.5t-15.5 34.5v600q0 19 13.5 32.5t36.5 17.5q40 10 100 10zM180 605v-245q101 7 145.5 42t44.5 98q0 47 -37.5 78.5t-102.5 31.5z" />
    <glyph glyph-name="Q" unicode="Q" horiz-adv-x="570" 
d="M460 90l60 -80q10 -15 10 -30q0 -22 -14 -36t-36 -14q-13 0 -24.5 6t-15.5 12l-5 7l-45 60q-40 -25 -105 -25q-108 0 -166.5 83.5t-58.5 276.5t58.5 276.5t166.5 83.5t166.5 -83.5t58.5 -276.5q0 -84 -12.5 -149t-25.5 -88zM285 90q11 0 23.5 2.5t19.5 5.5l7 2l-40 55
q-10 15 -10 30q0 23 13.5 36.5t36.5 13.5q13 0 24.5 -6.5t16.5 -12.5l4 -6l15 -20q15 50 15 160q0 148 -31.5 204t-93.5 56t-93.5 -56t-31.5 -204t31.5 -204t93.5 -56z" />
    <glyph glyph-name="R" unicode="R" horiz-adv-x="530" 
d="M240 710q104 0 167 -59.5t63 -150.5q0 -41 -10 -75t-24 -53.5t-27.5 -33t-23.5 -18.5l-10 -5l105 -245q5 -10 5 -20q0 -22 -13.5 -36t-36.5 -14q-13 0 -24.5 7.5t-16.5 14.5l-4 8l-105 245q-55 -15 -105 -15v-210q0 -19 -15.5 -34.5t-34.5 -15.5t-34.5 15.5t-15.5 34.5
v600q0 19 13.5 32.5t36.5 17.5q50 10 110 10zM180 605v-245q101 7 145.5 42t44.5 98q0 46 -36 78t-94 32z" />
    <glyph glyph-name="S" unicode="S" horiz-adv-x="480" 
d="M50 510q0 88 58 144t142 56q69 0 115.5 -33.5t59.5 -76.5q5 -15 5 -30q0 -22 -13 -36t-32 -14q-16 0 -27 7.5t-14 14.5l-4 8q-8 25 -31.5 42.5t-58.5 17.5q-45 0 -72.5 -27.5t-27.5 -72.5q0 -28 16 -48.5t41.5 -33t56.5 -23.5t62 -26.5t56.5 -36.5t41.5 -57t16 -85
q0 -90 -60 -150t-150 -60q-73 0 -120.5 35t-64.5 85q-5 15 -5 30q0 22 13 36t32 14q16 0 27 -7.5t14 -14.5l4 -8q26 -70 100 -70q49 0 79.5 30.5t30.5 79.5q0 28 -16 48.5t-41.5 33t-56.5 23.5t-62 26.5t-56.5 36.5t-41.5 57t-16 85z" />
    <glyph glyph-name="T" unicode="T" horiz-adv-x="420" 
d="M360 600h-100v-550q0 -19 -15.5 -34.5t-34.5 -15.5t-34.5 15.5t-15.5 34.5v550h-100q-19 0 -34.5 15.5t-15.5 34.5t15.5 34.5t34.5 15.5h300q19 0 34.5 -15.5t15.5 -34.5t-15.5 -34.5t-34.5 -15.5z" />
    <glyph glyph-name="U" unicode="U" horiz-adv-x="560" 
d="M280 90q46 0 78 34t32 86v440q0 19 15.5 34.5t34.5 15.5t34.5 -15.5t15.5 -34.5v-440q0 -97 -59.5 -158.5t-150.5 -61.5t-150.5 61.5t-59.5 158.5v440q0 19 15.5 34.5t34.5 15.5t34.5 -15.5t15.5 -34.5v-440q0 -52 32 -86t78 -34z" />
    <glyph glyph-name="V" unicode="V" 
d="M465 625l-170 -585q-5 -16 -18.5 -28t-31.5 -12t-31.5 12t-18.5 28l-170 585q-5 15 -5 25q0 22 14 36t36 14q16 0 27 -7.5t15 -14.5l3 -8l130 -450l130 450q1 3 3.5 8t14 13.5t27.5 8.5q22 0 36 -14t14 -36z" />
    <glyph glyph-name="W" unicode="W" horiz-adv-x="680" 
d="M340 450q36 0 45 -35l55 -205l135 460q1 3 3.5 8t14 13.5t27.5 8.5q22 0 36 -14t14 -36l-5 -25l-170 -585q-4 -16 -18 -28t-32 -12t-31.5 12t-18.5 28l-55 200l-55 -200q-5 -16 -18.5 -28t-31.5 -12t-32 12t-18 28l-170 585q-5 18 -5 25q0 22 14 36t36 14q16 0 27 -7.5
t15 -14.5l3 -8l135 -460l55 205q9 35 45 35z" />
    <glyph glyph-name="X" unicode="X" horiz-adv-x="530" 
d="M60 50v140q0 25 25 50l120 115l-120 115q-25 25 -25 50v130q0 19 15.5 34.5t34.5 15.5t34.5 -15.5t15.5 -34.5v-110l105 -100l105 100v110q0 19 15.5 34.5t34.5 15.5t34.5 -15.5t15.5 -34.5v-130q0 -25 -25 -50l-120 -115l120 -115q25 -25 25 -50v-140q0 -19 -15.5 -34.5
t-34.5 -15.5t-34.5 15.5t-15.5 34.5v120l-105 100l-105 -100v-120q0 -19 -15.5 -34.5t-34.5 -15.5t-34.5 15.5t-15.5 34.5z" />
    <glyph glyph-name="Y" unicode="Y" 
d="M30 510v140q0 19 15.5 34.5t34.5 15.5t34.5 -15.5t15.5 -34.5v-120l115 -110l115 110v120q0 19 15.5 34.5t34.5 15.5t34.5 -15.5t15.5 -34.5v-140q0 -25 -25 -50l-140 -135v-275q0 -19 -15.5 -34.5t-34.5 -15.5t-34.5 15.5t-15.5 34.5v275l-140 135q-25 25 -25 50z" />
    <glyph glyph-name="Z" unicode="Z" horiz-adv-x="430" 
d="M400 610l-255 -510h215q19 0 34.5 -15.5t15.5 -34.5t-15.5 -34.5t-34.5 -15.5h-290q-19 0 -34.5 15.5t-15.5 34.5q0 9 2.5 19t5.5 15l2 6l255 510h-205q-19 0 -34.5 15.5t-15.5 34.5t15.5 34.5t34.5 15.5h280q19 0 34.5 -15.5t15.5 -34.5q0 -9 -2.5 -19t-5.5 -15z" />
    <glyph glyph-name="bracketleft" unicode="[" horiz-adv-x="310" 
d="M240 680h-60v-730h60q19 0 34.5 -15.5t15.5 -34.5t-15.5 -34.5t-34.5 -15.5h-110q-19 0 -34.5 15.5t-15.5 34.5v830q0 19 15.5 34.5t34.5 15.5h110q19 0 34.5 -15.5t15.5 -34.5t-15.5 -34.5t-34.5 -15.5z" />
    <glyph glyph-name="backslash" unicode="\" horiz-adv-x="435" 
d="M95 690l330 -630q10 -15 10 -30q0 -19 -15.5 -34.5t-34.5 -15.5q-13 0 -24.5 7.5t-16.5 14.5l-4 8l-330 630q-10 15 -10 30q0 19 15.5 34.5t34.5 15.5q13 0 24.5 -7.5t15.5 -14.5z" />
    <glyph glyph-name="bracketright" unicode="]" horiz-adv-x="310" 
d="M130 680h-60q-19 0 -34.5 15.5t-15.5 34.5t15.5 34.5t34.5 15.5h110q19 0 34.5 -15.5t15.5 -34.5v-830q0 -19 -15.5 -34.5t-34.5 -15.5h-110q-19 0 -34.5 15.5t-15.5 34.5t15.5 34.5t34.5 15.5h60v730z" />
    <glyph glyph-name="asciicircum" unicode="^" horiz-adv-x="440" 
d="M220 560l-100 -220q-10 -25 -40 -25q-22 0 -36 13t-14 32q0 7 2.5 14.5t5.5 11.5l2 4l140 300q15 30 40 30t40 -30l140 -300q10 -15 10 -30q0 -19 -14 -32t-36 -13q-13 0 -23 6.5t-13 12.5l-4 6z" />
    <glyph glyph-name="underscore" unicode="_" horiz-adv-x="340" 
d="M290 -150h-240q-19 0 -34.5 15.5t-15.5 34.5t15.5 34.5t34.5 15.5h240q19 0 34.5 -15.5t15.5 -34.5t-15.5 -34.5t-34.5 -15.5z" />
    <glyph glyph-name="grave" unicode="`" horiz-adv-x="270" 
d="M160 550l-110 60q-20 10 -20 45q0 19 14 32t36 13q7 0 14.5 -2.5t11.5 -5.5l4 -2l110 -60q20 -10 20 -45q0 -19 -14 -32t-36 -13q-7 0 -14.5 2.5t-11.5 5.5z" />
    <glyph glyph-name="a" unicode="a" horiz-adv-x="455" 
d="M295 150v75q-40 15 -90 15q-37 0 -58.5 -21t-21.5 -59q0 -37 19.5 -58.5t50.5 -21.5q27 0 52 17.5t37 34.5zM385 370v-325q0 -19 -13 -32t-32 -13t-32 13t-13 32v10q-2 -3 -5 -7t-14 -15.5t-24 -20t-34 -15.5t-43 -7q-62 0 -101 45t-39 125q0 75 47.5 122.5t122.5 47.5
q22 0 44.5 -4t34.5 -8l11 -3v55q0 34 -23 57t-57 23q-16 0 -33.5 -5t-27.5 -10l-9 -5q-10 -5 -25 -5t-27.5 13.5t-12.5 31.5q0 11 7.5 21t14.5 15l8 4q50 30 105 30q75 0 122.5 -47.5t47.5 -122.5z" />
    <glyph glyph-name="b" unicode="b" horiz-adv-x="500" 
d="M160 655v-190q2 3 5 7t14 15.5t24 20t34 15.5t43 7q73 0 121.5 -67.5t48.5 -202.5t-48.5 -202.5t-121.5 -67.5q-22 0 -43 6.5t-34 16t-23.5 19.5t-15.5 16l-4 7v-10q0 -19 -13 -32t-32 -13t-32 13t-13 32v610q0 19 13 32t32 13t32 -13t13 -32zM160 370v-220l5 -7.5
t13 -16.5t21 -21.5t27.5 -17t33.5 -7.5q49 0 74.5 40.5t25.5 139.5t-25.5 139.5t-74.5 40.5q-27 0 -52 -17.5t-36 -34.5z" />
    <glyph glyph-name="c" unicode="c" horiz-adv-x="435" 
d="M140 265q0 -103 25.5 -144t74.5 -41q28 0 50 18t30 42q10 25 40 25q19 0 32 -13t13 -32l-5 -30q-45 -100 -160 -100q-87 0 -138.5 67.5t-51.5 207.5t51.5 207.5t138.5 67.5q110 0 150 -90q5 -10 5 -30q0 -19 -13 -32t-32 -13q-13 0 -23 6.5t-13 12.5l-4 6q-4 17 -25 33.5
t-45 16.5q-49 0 -74.5 -41t-25.5 -144z" />
    <glyph glyph-name="d" unicode="d" horiz-adv-x="500" 
d="M340 465v190q0 19 13 32t32 13t32 -13t13 -32v-610q0 -19 -13 -32t-32 -13t-32 13t-13 32v10q-2 -3 -5 -7t-14 -15.5t-24 -20t-34 -15.5t-43 -7q-73 0 -121.5 67.5t-48.5 202.5t48.5 202.5t121.5 67.5q36 0 66 -16.5t42 -32.5zM340 150v220l-5 7.5t-13 16.5t-21 21.5
t-27.5 17t-33.5 7.5q-49 0 -74.5 -40.5t-25.5 -139.5t25.5 -139.5t74.5 -40.5q27 0 52 17.5t36 34.5z" />
    <glyph glyph-name="e" unicode="e" horiz-adv-x="465" 
d="M240 80q28 0 50 18t30 42q10 25 40 25q19 0 32 -13t13 -32l-5 -30q-45 -100 -160 -100q-87 0 -138.5 67.5t-51.5 207.5q0 139 50.5 207t134.5 68t134.5 -68.5t50.5 -211.5q0 -15 -12.5 -27.5t-27.5 -12.5h-240q7 -140 100 -140zM140 310h190q-4 71 -29.5 105.5
t-65.5 34.5t-65.5 -34.5t-29.5 -105.5z" />
    <glyph glyph-name="f" unicode="f" horiz-adv-x="305" 
d="M190 510h65q19 0 32 -13t13 -32t-13 -32t-32 -13h-65v-375q0 -19 -13 -32t-32 -13t-32 13t-13 32v375h-35q-19 0 -32 13t-13 32t13 32t32 13h35v20q0 180 170 180q19 0 32 -13t13 -32t-13 -32t-32 -13q-80 0 -80 -90v-20z" />
    <glyph glyph-name="g" unicode="g" horiz-adv-x="500" 
d="M430 485v-440q0 -106 -52.5 -165.5t-137.5 -59.5q-115 0 -160 100q-5 10 -5 30q0 19 13 32t32 13q13 0 23 -6.5t13 -12.5l4 -6q8 -24 30 -42t50 -18q100 0 100 135v60q-2 -3 -5 -7t-14 -15.5t-24 -20t-34 -15.5t-43 -7q-72 0 -121 64.5t-49 185.5t49 185.5t121 64.5
q36 0 66 -16.5t42 -32.5l12 -16v10q0 19 13 32t32 13t32 -13t13 -32zM340 200v180l-5 7.5t-13 16.5t-21 21.5t-27.5 17t-33.5 7.5q-100 0 -100 -160t100 -160q27 0 52 17.5t36 34.5z" />
    <glyph glyph-name="h" unicode="h" 
d="M70 45v610q0 19 13 32t32 13t32 -13t13 -32v-180q2 3 5 7t14 15.5t24 20t34 15.5t43 7q58 0 99 -47t41 -123v-325q0 -19 -13 -32t-32 -13t-32 13t-13 32v325q0 37 -19.5 58.5t-50.5 21.5q-27 0 -52 -17.5t-36 -34.5l-12 -18v-335q0 -19 -13 -32t-32 -13t-32 13t-13 32z
" />
    <glyph glyph-name="i" unicode="i" horiz-adv-x="240" 
d="M75 45v440q0 19 13 32t32 13t32 -13t13 -32v-440q0 -19 -13 -32t-32 -13t-32 13t-13 32zM170 650q0 -19 -15.5 -34.5t-34.5 -15.5t-34.5 15.5t-15.5 34.5t15.5 34.5t34.5 15.5t34.5 -15.5t15.5 -34.5z" />
    <glyph glyph-name="j" unicode="j" horiz-adv-x="250" 
d="M180 650q0 -19 -15.5 -34.5t-34.5 -15.5t-34.5 15.5t-15.5 34.5t15.5 34.5t34.5 15.5t34.5 -15.5t15.5 -34.5zM5 -90q80 0 80 90v485q0 19 13 32t32 13t32 -13t13 -32v-485q0 -180 -170 -180q-19 0 -32 13t-13 32t13 32t32 13z" />
    <glyph glyph-name="k" unicode="k" horiz-adv-x="430" 
d="M240 330l70 170q1 3 3.5 8t13 13.5t23.5 8.5q19 0 32 -13t13 -32l-5 -25l-75 -175l90 -215q5 -15 5 -25q0 -19 -13 -32t-32 -13q-13 0 -23 7.5t-14 14.5l-3 8l-85 210h-80v-195q0 -19 -13 -32t-32 -13t-32 13t-13 32v610q0 19 13 32t32 13t32 -13t13 -32v-325h80z" />
    <glyph glyph-name="l" unicode="l" horiz-adv-x="230" 
d="M160 655v-610q0 -19 -13 -32t-32 -13t-32 13t-13 32v610q0 19 13 32t32 13t32 -13t13 -32z" />
    <glyph glyph-name="m" unicode="m" horiz-adv-x="710" 
d="M70 45v440q0 19 13 32t32 13t32 -13t13 -32v-10q1 3 3.5 7t12 15.5t21 20t31.5 15.5t42 7q33 0 62 -19t41 -37l12 -19q5 8 14.5 20.5t42 33.5t68.5 21q55 0 92.5 -43.5t37.5 -116.5v-335q0 -19 -13 -32t-32 -13t-32 13t-13 32v335q0 33 -16.5 51.5t-43.5 18.5
t-49.5 -17.5t-31.5 -34.5l-9 -18v-335q0 -19 -13 -32t-32 -13t-32 13t-13 32v335q0 33 -16.5 51.5t-43.5 18.5t-49.5 -17.5t-31.5 -34.5l-9 -18v-335q0 -19 -13 -32t-32 -13t-32 13t-13 32z" />
    <glyph glyph-name="n" unicode="n" 
d="M70 45v440q0 19 13 32t32 13t32 -13t13 -32v-10q2 3 5 7t14 15.5t24 20t34 15.5t43 7q58 0 99 -47t41 -123v-325q0 -19 -13 -32t-32 -13t-32 13t-13 32v325q0 37 -19.5 58.5t-50.5 21.5q-27 0 -52 -17.5t-36 -34.5l-12 -18v-335q0 -19 -13 -32t-32 -13t-32 13t-13 32z
" />
    <glyph glyph-name="o" unicode="o" horiz-adv-x="480" 
d="M240 80q49 0 74.5 41t25.5 144t-25.5 144t-74.5 41t-74.5 -41t-25.5 -144t25.5 -144t74.5 -41zM240 -10q-87 0 -138.5 67.5t-51.5 207.5t51.5 207.5t138.5 67.5t138.5 -67.5t51.5 -207.5t-51.5 -207.5t-138.5 -67.5z" />
    <glyph glyph-name="p" unicode="p" horiz-adv-x="500" 
d="M160 65v-190q0 -19 -13 -32t-32 -13t-32 13t-13 32v610q0 19 13 32t32 13t32 -13t13 -32v-10q2 3 5 7t14 15.5t24 20t34 15.5t43 7q73 0 121.5 -68t48.5 -202t-48.5 -202t-121.5 -68q-22 0 -43 6.5t-34 16t-23.5 19.5t-15.5 16zM160 380v-220l5 -7.5t13 -16.5t21 -21.5
t27.5 -17t33.5 -7.5q49 0 74.5 40.5t25.5 139.5t-25.5 139.5t-74.5 40.5q-27 0 -52 -17.5t-36 -34.5z" />
    <glyph glyph-name="q" unicode="q" horiz-adv-x="500" 
d="M340 -125v190q-2 -3 -5 -7t-14 -15.5t-24 -20t-34 -15.5t-43 -7q-73 0 -121.5 68t-48.5 202t48.5 202t121.5 68q36 0 66 -16.5t42 -32.5l12 -16v10q0 19 13 32t32 13t32 -13t13 -32v-610q0 -19 -13 -32t-32 -13t-32 13t-13 32zM340 160v220l-5 7.5t-13 16.5t-21 21.5
t-27.5 17t-33.5 7.5q-49 0 -74.5 -40.5t-25.5 -139.5t25.5 -139.5t74.5 -40.5q27 0 52 17.5t36 34.5z" />
    <glyph glyph-name="r" unicode="r" horiz-adv-x="330" 
d="M280 440h-20q-27 0 -52 -15t-36 -30l-12 -15v-335q0 -19 -13 -32t-32 -13t-32 13t-13 32v440q0 19 13 32t32 13t32 -13t13 -32v-10q2 3 5 7t14 15.5t24 20t34 15.5t43 7t36 -14t14 -36t-14 -36t-36 -14z" />
    <glyph glyph-name="s" unicode="s" horiz-adv-x="415" 
d="M210 540q110 0 150 -90q5 -10 5 -30q0 -19 -13 -32t-32 -13q-13 0 -23 6.5t-13 12.5l-4 6q-4 17 -25 33.5t-45 16.5q-30 0 -50 -20t-20 -50q0 -18 17.5 -33t43.5 -24t56.5 -23t56.5 -29.5t43.5 -44t17.5 -66.5q0 -75 -47.5 -122.5t-122.5 -47.5q-115 0 -160 100
q-5 10 -5 30q0 19 13 32t32 13q13 0 23 -6.5t14 -12.5l3 -6q8 -24 30 -42t50 -18q37 0 58.5 21t21.5 59q0 22 -24 38t-58.5 28.5t-69.5 29t-59 48.5t-24 76q0 71 44.5 115.5t115.5 44.5z" />
    <glyph glyph-name="t" unicode="t" horiz-adv-x="335" 
d="M255 440h-65v-270q0 -90 80 -90q19 0 32 -13t13 -32t-13 -32t-32 -13q-170 0 -170 180v270h-35q-19 0 -32 13t-13 32t13 32t32 13h35v105q0 19 13 32t32 13t32 -13t13 -32v-105h65q19 0 32 -13t13 -32t-13 -32t-32 -13z" />
    <glyph glyph-name="u" unicode="u" 
d="M420 485v-440q0 -19 -13 -32t-32 -13t-32 13t-13 32v10q-2 -3 -5 -7t-14 -15.5t-24 -20t-34 -15.5t-43 -7q-58 0 -99 47t-41 123v325q0 19 13 32t32 13t32 -13t13 -32v-325q0 -37 19.5 -58.5t50.5 -21.5q27 0 52 17.5t36 34.5l12 18v335q0 19 13 32t32 13t32 -13t13 -32z
" />
    <glyph glyph-name="v" unicode="v" horiz-adv-x="410" 
d="M385 455l-130 -415q-5 -16 -18.5 -28t-31.5 -12t-31.5 12t-18.5 28l-130 415q-5 15 -5 25q0 22 12 36t28 14t27 -7.5t15 -14.5l3 -8l100 -315l100 315q1 3 3.5 8t14 13.5t27.5 8.5t28 -14t12 -36z" />
    <glyph glyph-name="w" unicode="w" horiz-adv-x="570" 
d="M285 370q35 0 45 -35l45 -160l100 325q1 3 3.5 8t14 13.5t27.5 8.5t28 -14t12 -36l-5 -25l-125 -415q-5 -16 -18.5 -28t-31.5 -12t-31.5 12t-18.5 28l-45 160l-45 -160q-5 -16 -18.5 -28t-31.5 -12t-31.5 12t-18.5 28l-125 415q-5 15 -5 25q0 22 12 36t28 14t27 -7.5
t15 -14.5l3 -8l100 -325l45 160q10 35 45 35z" />
    <glyph glyph-name="x" unicode="x" horiz-adv-x="450" 
d="M225 330l75 69v86q0 19 13 32t32 13t32 -13t13 -32v-106q0 -24 -25 -49l-65 -60l65 -60q25 -25 25 -50v-115q0 -19 -13 -32t-32 -13t-32 13t-13 32v95l-75 70l-75 -70v-95q0 -19 -13 -32t-32 -13t-32 13t-13 32v115q0 25 25 50l65 60l-65 60q-25 25 -25 49v106
q0 19 13 32t32 13t32 -13t13 -32v-86z" />
    <glyph glyph-name="y" unicode="y" horiz-adv-x="470" 
d="M190 -125v185l-105 95q-25 23 -25 50v280q0 19 13 32t32 13t32 -13t13 -32v-260l85 -80l85 80v260q0 19 13 32t32 13t32 -13t13 -32v-280q0 -25 -25 -50l-105 -95v-185q0 -19 -13 -32t-32 -13t-32 13t-13 32z" />
    <glyph glyph-name="z" unicode="z" horiz-adv-x="380" 
d="M345 440l-205 -350h175q19 0 32 -13t13 -32t-13 -32t-32 -13h-250q-19 0 -32 13t-13 32q0 11 4 22.5t8 16.5l3 6l205 350h-165q-19 0 -32 13t-13 32t13 32t32 13h240q19 0 32 -13t13 -32q0 -11 -4 -22.5t-8 -16.5z" />
    <glyph glyph-name="braceleft" unicode="{" horiz-adv-x="350" 
d="M155 315q3 -1 7 -2.5t15.5 -9t20 -17.5t15.5 -30.5t7 -45.5v-260h60q19 0 34.5 -15.5t15.5 -34.5t-15.5 -34.5t-34.5 -15.5h-80q-34 0 -57 23t-23 57v280q0 25 -13 40t-32 15t-32 14t-13 36t13 36t32 14t32 15t13 40v280q0 34 23 57t57 23h80q19 0 34.5 -15.5t15.5 -34.5
t-15.5 -34.5t-34.5 -15.5h-60v-260q0 -40 -16 -66t-32 -32z" />
    <glyph glyph-name="bar" unicode="|" horiz-adv-x="260" 
d="M180 730v-790q0 -19 -15.5 -34.5t-34.5 -15.5t-34.5 15.5t-15.5 34.5v790q0 19 15.5 34.5t34.5 15.5t34.5 -15.5t15.5 -34.5z" />
    <glyph glyph-name="braceright" unicode="}" horiz-adv-x="350" 
d="M195 315q-3 1 -7 2.5t-15.5 9t-20 17.5t-15.5 30.5t-7 45.5v260h-60q-19 0 -34.5 15.5t-15.5 34.5t15.5 34.5t34.5 15.5h80q34 0 57 -23t23 -57v-280q0 -25 13 -40t32 -15t32 -14t13 -36t-13 -36t-32 -14t-32 -15t-13 -40v-280q0 -34 -23 -57t-57 -23h-80
q-19 0 -34.5 15.5t-15.5 34.5t15.5 34.5t34.5 15.5h60v260q0 40 16 66t32 32z" />
    <glyph glyph-name="asciitilde" unicode="~" horiz-adv-x="420" 
d="M280 240q-34 0 -58 17.5t-40 35t-32 17.5q-28 0 -50 -45q-10 -20 -35 -20q-45 0 -45 45l5 25q1 4 3 10.5t11.5 22.5t21 28.5t33 23t46.5 10.5q34 0 58 -17.5t40 -35t32 -17.5q28 0 50 45q10 20 35 20q45 0 45 -45l-5 -25q-1 -4 -3 -10.5t-11.5 -22.5t-21 -28.5t-33 -23
t-46.5 -10.5z" />
    <glyph glyph-name="nbspace" unicode="&#xa0;" horiz-adv-x="170" 
 />
    <glyph glyph-name="exclamdown" unicode="&#xa1;" horiz-adv-x="270" 
d="M135 430q-23 0 -39 16t-16 39t16 39t39 16t39 -16t16 -39t-16 -39t-39 -16zM185 290v-410q0 -19 -15.5 -34.5t-34.5 -15.5t-34.5 15.5t-15.5 34.5v410q0 19 15.5 34.5t34.5 15.5t34.5 -15.5t15.5 -34.5z" />
    <glyph glyph-name="cent" unicode="&#xa2;" horiz-adv-x="435" 
d="M195 -35v30q-64 13 -104.5 77t-40.5 193t40.5 193t104.5 77v30q0 19 13 32t32 13t32 -13t13 -32v-30q69 -14 105 -85q5 -10 5 -30q0 -19 -13 -32t-32 -13q-13 0 -23 6.5t-13 12.5l-4 6q-4 17 -25 33.5t-45 16.5q-49 0 -74.5 -41t-25.5 -144t25.5 -144t74.5 -41
q28 0 50 18t30 42q10 25 40 25q19 0 32 -13t13 -32l-5 -30q-16 -36 -46 -62t-69 -33v-30q0 -19 -13 -32t-32 -13t-32 13t-13 32z" />
    <glyph glyph-name="sterling" unicode="&#xa3;" horiz-adv-x="510" 
d="M350 240h-80q0 -36 -12.5 -66t-25.5 -42l-12 -12q31 0 78.5 -15t71.5 -15q21 0 35 10t23.5 20t21.5 10q22 0 36 -14t14 -36q0 -33 -37 -61.5t-93 -28.5q-20 0 -75 15t-75 15t-60 -15t-60 -15q-22 0 -36 14t-14 36q0 26 19 45.5t41 32t41 44t19 78.5h-60q-19 0 -34.5 15.5
t-15.5 34.5t15.5 34.5t34.5 15.5h40q-9 10 -22.5 27.5t-35.5 65t-22 87.5q0 85 54.5 137.5t135.5 52.5q65 0 108.5 -30.5t56.5 -69.5q5 -15 5 -30q0 -22 -13 -36t-32 -14q-16 0 -27 7.5t-14 14.5l-4 8q-20 50 -80 50q-41 0 -65.5 -24.5t-24.5 -65.5q0 -33 20 -78t40 -74
l20 -28h100q19 0 34.5 -15.5t15.5 -34.5t-15.5 -34.5t-34.5 -15.5z" />
    <glyph glyph-name="currency" unicode="&#xa4;" horiz-adv-x="530" 
d="M350 140h-150v-90q0 -19 -15.5 -34.5t-34.5 -15.5t-34.5 15.5t-15.5 34.5v90h-30q-19 0 -34.5 15.5t-15.5 34.5t15.5 34.5t34.5 15.5h30v40h-30q-19 0 -34.5 15.5t-15.5 34.5t15.5 34.5t34.5 15.5h30v270q0 19 14 32.5t36 17.5q40 10 100 10q109 0 174.5 -57.5
t65.5 -142.5q0 -101 -68.5 -158t-221.5 -72v-40h150q19 0 34.5 -15.5t15.5 -34.5t-15.5 -34.5t-34.5 -15.5zM200 605v-225q190 14 190 130q0 40 -38 70t-102 30z" />
    <glyph glyph-name="yen" unicode="&#xa5;" 
d="M385 140h-90v-90q0 -19 -15.5 -34.5t-34.5 -15.5t-34.5 15.5t-15.5 34.5v90h-90q-19 0 -34.5 15.5t-15.5 34.5t15.5 34.5t34.5 15.5h90v40h-90q-19 0 -34.5 15.5t-15.5 34.5t15.5 34.5t34.5 15.5h35l-85 80q-25 25 -25 50v140q0 19 15.5 34.5t34.5 15.5t34.5 -15.5
t15.5 -34.5v-120l115 -110l115 110v120q0 19 15.5 34.5t34.5 15.5t34.5 -15.5t15.5 -34.5v-140q0 -25 -25 -50l-85 -80h35q19 0 34.5 -15.5t15.5 -34.5t-15.5 -34.5t-34.5 -15.5h-90v-40h90q19 0 34.5 -15.5t15.5 -34.5t-15.5 -34.5t-34.5 -15.5z" />
    <glyph glyph-name="brokenbar" unicode="&#xa6;" horiz-adv-x="260" 
d="M180 220v-280q0 -19 -15.5 -34.5t-34.5 -15.5t-34.5 15.5t-15.5 34.5v280q0 19 15.5 34.5t34.5 15.5t34.5 -15.5t15.5 -34.5zM180 730v-280q0 -19 -15.5 -34.5t-34.5 -15.5t-34.5 15.5t-15.5 34.5v280q0 19 15.5 34.5t34.5 15.5t34.5 -15.5t15.5 -34.5z" />
    <glyph glyph-name="section" unicode="&#xa7;" 
d="M450 250q0 -44 -22.5 -81.5t-45.5 -52.5l-22 -16q4 -4 11 -13t18 -37.5t11 -59.5q0 -75 -47.5 -122.5t-122.5 -47.5q-115 0 -160 100q-5 10 -5 30q0 19 13 32t32 13q13 0 23 -6.5t13 -12.5l4 -6q8 -24 30 -42t50 -18q38 0 59 21t21 59q0 35 -28 60t-67.5 41.5t-79 36.5
t-67.5 58.5t-28 93.5q0 44 22.5 81.5t45.5 52.5l22 16q-4 4 -11 13t-18 37.5t-11 59.5q0 75 47.5 122.5t122.5 47.5q115 0 160 -100q5 -10 5 -30q0 -19 -13 -32t-32 -13q-13 0 -23 6.5t-13 12.5l-4 6q-8 24 -30 42t-50 18q-38 0 -59 -21t-21 -59q0 -35 28 -60t67.5 -41.5
t79 -36.5t67.5 -58.5t28 -93.5zM360 250q0 22 -17.5 44t-42.5 36.5t-50 26.5t-42 17l-18 6q-2 -1 -6.5 -3.5t-14.5 -11.5t-18 -19.5t-14.5 -28t-6.5 -37.5q0 -22 17.5 -44t42.5 -36.5t50 -26.5t42 -17l18 -6q2 1 6.5 3.5t14.5 11.5t18 19.5t14.5 28t6.5 37.5z" />
    <glyph glyph-name="dieresis" unicode="&#xa8;" horiz-adv-x="330" 
d="M85 700q23 0 39 -16t16 -39t-16 -39t-39 -16t-39 16t-16 39t16 39t39 16zM245 700q23 0 39 -16t16 -39t-16 -39t-39 -16t-39 16t-16 39t16 39t39 16z" />
    <glyph glyph-name="copyright" unicode="&#xa9;" horiz-adv-x="840" 
d="M790 350q0 -185 -101.5 -292.5t-268.5 -107.5t-268.5 107.5t-101.5 292.5t101.5 292.5t268.5 107.5t268.5 -107.5t101.5 -292.5zM140 350q0 -144 77 -227t203 -83t203 83t77 227t-77 227t-203 83t-203 -83t-77 -227zM330 350q0 -76 24 -108t71 -32q52 0 70 45
q10 25 40 25q19 0 32 -13t13 -32l-5 -30q-21 -42 -54 -63.5t-96 -21.5q-85 0 -135 58.5t-50 171.5t50 171.5t135 58.5q103 0 140 -75q5 -10 5 -30q0 -19 -13 -32t-32 -13q-13 0 -23 6t-14 12l-3 7q-4 13 -20 24t-40 11q-47 0 -71 -32t-24 -108z" />
    <glyph glyph-name="ordfeminine" unicode="&#xaa;" horiz-adv-x="340" 
d="M160 630q-15 0 -30 -10t-30 -10t-25 11t-10 29q0 22 28.5 41t76.5 19q57 0 88.5 -33.5t31.5 -96.5v-190q0 -40 -40 -40q-19 0 -29.5 10.5t-10.5 28.5q-2 -3 -10 -11t-28 -18t-41 -10q-36 0 -63.5 31.5t-27.5 78.5q0 49 32 79.5t88 30.5q13 0 25.5 -2.5t18.5 -5.5l6 -2v20
q0 22 -14 36t-36 14zM210 450v40q-20 10 -40 10q-50 0 -50 -40t40 -40q13 0 25.5 7.5t18.5 14.5z" />
    <glyph glyph-name="guillemotleft" unicode="&#xab;" horiz-adv-x="510" 
d="M30 260q0 20 20 40l150 150q10 10 30 10q19 0 34.5 -15.5t15.5 -34.5q0 -9 -2.5 -16.5t-5.5 -10.5l-2 -3l-120 -120l120 -120q10 -10 10 -30q0 -19 -15.5 -34.5t-34.5 -15.5q-9 0 -16.5 2.5t-10.5 5.5l-3 2l-150 150q-20 20 -20 40zM230 260q0 20 20 40l150 150
q10 10 30 10q19 0 34.5 -15.5t15.5 -34.5q0 -9 -2.5 -16.5t-5.5 -10.5l-2 -3l-120 -120l120 -120q10 -10 10 -30q0 -19 -15.5 -34.5t-34.5 -15.5q-9 0 -16.5 2.5t-10.5 5.5l-3 2l-150 150q-20 20 -20 40z" />
    <glyph glyph-name="logicalnot" unicode="&#xac;" horiz-adv-x="420" 
d="M350 210q-19 0 -34.5 15.5t-15.5 34.5v80h-230q-19 0 -34.5 15.5t-15.5 34.5t15.5 34.5t34.5 15.5h280q19 0 34.5 -15.5t15.5 -34.5v-130q0 -19 -15.5 -34.5t-34.5 -15.5z" />
    <glyph glyph-name="uni00AD" unicode="&#xad;" horiz-adv-x="380" 
d="M310 270h-240q-19 0 -34.5 15.5t-15.5 34.5t15.5 34.5t34.5 15.5h240q19 0 34.5 -15.5t15.5 -34.5t-15.5 -34.5t-34.5 -15.5z" />
    <glyph glyph-name="registered" unicode="&#xae;" horiz-adv-x="840" 
d="M495 435q0 24 -20.5 39.5t-59.5 15.5l-50 -5v-135q72 7 101 28t29 57zM525 320l50 -130q5 -15 5 -25q0 -19 -13 -32t-32 -13q-13 0 -23 7.5t-14 14.5l-3 8l-50 130l-10 -2q-10 -3 -30 -7t-40 -6v-97q0 -21 -13.5 -34.5t-33.5 -13.5q-19 0 -31 13.5t-12 34.5v353
q0 18 14 31.5t36 17.5q45 10 90 10q74 0 122 -42t48 -103q0 -38 -15 -66.5t-30 -38.5zM790 350q0 -185 -101.5 -292.5t-268.5 -107.5t-268.5 107.5t-101.5 292.5t101.5 292.5t268.5 107.5t268.5 -107.5t101.5 -292.5zM140 350q0 -144 77 -227t203 -83t203 83t77 227t-77 227
t-203 83t-203 -83t-77 -227z" />
    <glyph glyph-name="macron" unicode="&#xaf;" horiz-adv-x="340" 
d="M265 610h-190q-19 0 -32 13t-13 32t13 32t32 13h190q19 0 32 -13t13 -32t-13 -32t-32 -13z" />
    <glyph glyph-name="degree" unicode="&#xb0;" horiz-adv-x="300" 
d="M270 610q0 -49 -35.5 -84.5t-84.5 -35.5t-84.5 35.5t-35.5 84.5t35.5 84.5t84.5 35.5t84.5 -35.5t35.5 -84.5zM100 610q0 -19 15.5 -34.5t34.5 -15.5t34.5 15.5t15.5 34.5t-15.5 34.5t-34.5 15.5t-34.5 -15.5t-15.5 -34.5z" />
    <glyph glyph-name="plusminus" unicode="&#xb1;" horiz-adv-x="400" 
d="M330 50h-260q-19 0 -34.5 15.5t-15.5 34.5t15.5 34.5t34.5 15.5h80v120h-80q-19 0 -34.5 15.5t-15.5 34.5t15.5 34.5t34.5 15.5h80v100q0 19 15.5 34.5t34.5 15.5t34.5 -15.5t15.5 -34.5v-100h80q19 0 34.5 -15.5t15.5 -34.5t-15.5 -34.5t-34.5 -15.5h-80v-120h80
q19 0 34.5 -15.5t15.5 -34.5t-15.5 -34.5t-34.5 -15.5z" />
    <glyph glyph-name="twosuperior" unicode="&#xb2;" horiz-adv-x="320" 
d="M180 590q0 40 -40 40q-15 0 -30 -10t-30 -10t-25 11t-10 29q0 22 28.5 41t76.5 19q110 0 110 -120q0 -25 -10.5 -51t-26 -44.5t-31 -33.5t-26.5 -23l-10 -8h84q40 0 40 -40t-40 -40h-170q-40 0 -40 40q0 9 6 19t12 15l7 6l13 8q12 9 30.5 25.5t37 35.5t31.5 44t13 47z
" />
    <glyph glyph-name="threesuperior" unicode="&#xb3;" horiz-adv-x="305" 
d="M260 605q0 -48 -55 -70q3 -1 7.5 -3t14.5 -9t18 -15t14 -22.5t6 -30.5q0 -105 -130 -105q-48 0 -76.5 19t-28.5 41q0 18 10 29t25 11q14 0 31.5 -10t38.5 -10q25 0 37.5 9t12.5 21t-11 21t-29 9h-15q-40 0 -40 40t40 40h20q11 0 20.5 9.5t9.5 20.5q0 12 -11 21t-29 9
q-21 0 -38.5 -10t-31.5 -10q-15 0 -25 11t-10 29q0 22 28.5 41t76.5 19q59 0 89.5 -27.5t30.5 -77.5z" />
    <glyph glyph-name="acute" unicode="&#xb4;" horiz-adv-x="270" 
d="M220 610l-110 -60q-15 -10 -30 -10q-22 0 -36 13t-14 32q0 16 5 27t10 14l5 4l110 60q15 10 30 10q22 0 36 -13t14 -32q0 -16 -5 -27t-10 -14z" />
    <glyph glyph-name="mu" unicode="&#xb5;" 
d="M160 405v-245q0 -37 19.5 -58.5t50.5 -21.5q27 0 52 17.5t36 34.5l12 18v335q0 19 13 32t32 13t32 -13t13 -32v-440q0 -19 -13 -32t-32 -13t-32 13t-13 32v10q-2 -3 -5 -7t-14 -15.5t-24 -20t-34 -15.5t-43 -7q-13 0 -25.5 2.5t-18.5 5.5l-6 2v-125q0 -19 -13 -32
t-32 -13t-32 13t-13 32v610q0 19 13 32t32 13t32 -13t13 -32v-77v-3z" />
    <glyph glyph-name="paragraph" unicode="&#xb6;" horiz-adv-x="470" 
d="M395 610h-30v-735q0 -19 -13 -32t-32 -13t-32 13t-13 32v735h-50v-735q0 -19 -13 -32t-32 -13t-32 13t-13 32v605q-42 0 -73.5 32.5t-31.5 77.5t31.5 77.5t73.5 32.5h260q19 0 32 -13t13 -32t-13 -32t-32 -13z" />
    <glyph glyph-name="periodcentered" unicode="&#xb7;" horiz-adv-x="170" 
d="M85 405q23 0 39 -16.5t16 -38.5t-16 -38.5t-39 -16.5t-39 16.5t-16 38.5t16 38.5t39 16.5z" />
    <glyph glyph-name="cedilla" unicode="&#xb8;" horiz-adv-x="310" 
d="M125 -50l28 60h66l-29 -60q4 0 10 -1.5t21.5 -7.5t27.5 -14.5t21.5 -26.5t9.5 -40q0 -42 -31 -71t-79 -29h-35q-40 0 -40 40t40 40h35q8 0 14 6t6 14t-6 14t-14 6h-20q-40 0 -40 30q0 4 4 14t8 18z" />
    <glyph glyph-name="onesuperior" unicode="&#xb9;" horiz-adv-x="250" 
d="M200 670v-280q0 -40 -40 -40t-40 40v180l-25 -30q-15 -20 -35 -20q-40 0 -40 40q0 7 4 14.5t8 11.5l3 4l85 95q20 25 40 25q40 0 40 -40z" />
    <glyph glyph-name="ordmasculine" unicode="&#xba;" horiz-adv-x="340" 
d="M170 350q-66 0 -103 44.5t-37 135.5t37 135.5t103 44.5t103 -44.5t37 -135.5t-37 -135.5t-103 -44.5zM170 440q50 0 50 90t-50 90t-50 -90t50 -90z" />
    <glyph glyph-name="guillemotright" unicode="&#xbb;" horiz-adv-x="510" 
d="M480 260q0 -20 -20 -40l-150 -150q-10 -10 -30 -10q-19 0 -34.5 15.5t-15.5 34.5q0 9 2.5 16.5t5.5 10.5l2 3l120 120l-120 120q-10 10 -10 30q0 19 15.5 34.5t34.5 15.5q9 0 16.5 -2.5t10.5 -5.5l3 -2l150 -150q20 -20 20 -40zM280 260q0 -20 -20 -40l-150 -150
q-10 -10 -30 -10q-19 0 -34.5 15.5t-15.5 34.5q0 9 2.5 16.5t5.5 10.5l2 3l120 120l-120 120q-10 10 -10 30q0 19 15.5 34.5t34.5 15.5q9 0 16.5 -2.5t10.5 -5.5l3 -2l150 -150q20 -20 20 -40z" />
    <glyph glyph-name="onequarter" unicode="&#xbc;" horiz-adv-x="670" 
d="M140 80l330 590q15 30 45 30q19 0 34.5 -15.5t15.5 -34.5q1 -19 -10 -30l-330 -590q-15 -30 -45 -30q-19 0 -34.5 15.5t-15.5 34.5q0 7 2.5 14.5t5.5 11.5zM210 670v-280q0 -40 -40 -40t-40 40v180l-25 -30q-15 -20 -35 -20q-40 0 -40 40q0 7 4 14.5t8 11.5l3 4l85 95
q20 25 40 25q40 0 40 -40zM610 160v-10q40 0 40 -40t-40 -40v-30q0 -40 -40 -40t-40 40v30h-110q-40 0 -40 40q0 9 4 19t8 15l3 6l120 195q10 15 25 15q18 0 31.5 -12.5t13.5 -27.5q0 -7 -2.5 -14.5t-4.5 -11.5l-3 -4l-85 -140h40v10q0 40 40 40t40 -40z" />
    <glyph glyph-name="onehalf" unicode="&#xbd;" horiz-adv-x="710" 
d="M140 80l330 590q15 30 45 30q19 0 34.5 -15.5t15.5 -34.5q1 -19 -10 -30l-330 -590q-15 -30 -45 -30q-19 0 -34.5 15.5t-15.5 34.5q0 7 2.5 14.5t5.5 11.5zM210 670v-280q0 -40 -40 -40t-40 40v180l-25 -30q-15 -20 -35 -20q-40 0 -40 40q0 7 4 14.5t8 11.5l3 4l85 95
q20 25 40 25q40 0 40 -40zM570 240q0 40 -40 40q-15 0 -30 -10t-30 -10t-25 11t-10 29q0 22 28.5 41t76.5 19q110 0 110 -120q0 -25 -10.5 -51t-26 -44.5t-31 -33.5t-26.5 -23l-10 -8h84q40 0 40 -40t-40 -40h-170q-40 0 -40 40q0 9 6 19t12 15l7 6l13 8q12 9 30.5 25.5
t37 35.5t31.5 44t13 47z" />
    <glyph glyph-name="threequarters" unicode="&#xbe;" horiz-adv-x="670" 
d="M140 80l330 590q15 30 45 30q19 0 34.5 -15.5t15.5 -34.5q1 -19 -10 -30l-330 -590q-15 -30 -45 -30q-19 0 -34.5 15.5t-15.5 34.5q0 7 2.5 14.5t5.5 11.5zM610 160v-10q40 0 40 -40t-40 -40v-30q0 -40 -40 -40t-40 40v30h-110q-40 0 -40 40q0 9 4 19t8 15l3 6l120 195
q10 15 25 15q18 0 31.5 -12.5t13.5 -27.5q0 -7 -2.5 -14.5t-4.5 -11.5l-3 -4l-85 -140h40v10q0 40 40 40t40 -40zM260 605q0 -48 -55 -70q3 -1 7.5 -3t14.5 -9t18 -15t14 -22.5t6 -30.5q0 -105 -130 -105q-48 0 -76.5 19t-28.5 41q0 18 10 29t25 11q14 0 31.5 -10t38.5 -10
q25 0 37.5 9t12.5 21t-11 21t-29 9h-15q-40 0 -40 40t40 40h20q11 0 20.5 9.5t9.5 20.5q0 12 -11 21t-29 9q-21 0 -38.5 -10t-31.5 -10q-15 0 -25 11t-10 29q0 22 28.5 41t76.5 19q59 0 89.5 -27.5t30.5 -77.5z" />
    <glyph glyph-name="questiondown" unicode="&#xbf;" horiz-adv-x="390" 
d="M20 10q0 40 20.5 77.5t44.5 62.5t44.5 62.5t20.5 77.5q0 19 15.5 34.5t34.5 15.5t34.5 -15.5t15.5 -34.5q0 -51 -20.5 -94.5t-44.5 -68.5t-44.5 -56.5t-20.5 -60.5q0 -40 23 -65t57 -25q28 0 50 18t30 42q1 3 3.5 8t14 13.5t27.5 8.5q19 0 32 -14t13 -36l-5 -30
q-13 -42 -57.5 -76t-107.5 -34q-74 0 -127 53t-53 137zM200 430q-22 0 -38.5 16t-16.5 39t16.5 39t38.5 16t38.5 -16t16.5 -39t-16.5 -39t-38.5 -16z" />
    <glyph glyph-name="Agrave" unicode="&#xc0;" horiz-adv-x="510" 
d="M25 75l180 585q5 16 18.5 28t31.5 12t31.5 -12t18.5 -28l180 -585q5 -15 5 -25q0 -22 -14 -36t-36 -14q-16 0 -27 7.5t-15 14.5l-3 8l-30 95h-220l-30 -95q-1 -3 -3.5 -8t-14 -13.5t-27.5 -8.5q-22 0 -36 14t-14 36zM175 225h160l-80 265zM230 780l-110 60q-20 10 -20 45
q0 19 14 32t36 13q7 0 14.5 -2.5t11.5 -5.5l4 -2l110 -60q20 -10 20 -45q0 -19 -14 -32t-36 -13q-7 0 -14.5 2.5t-11.5 5.5z" />
    <glyph glyph-name="Aacute" unicode="&#xc1;" horiz-adv-x="510" 
d="M25 75l180 585q5 16 18.5 28t31.5 12t31.5 -12t18.5 -28l180 -585q5 -15 5 -25q0 -22 -14 -36t-36 -14q-16 0 -27 7.5t-15 14.5l-3 8l-30 95h-220l-30 -95q-1 -3 -3.5 -8t-14 -13.5t-27.5 -8.5q-22 0 -36 14t-14 36zM175 225h160l-80 265zM390 840l-110 -60
q-15 -10 -30 -10q-22 0 -36 13t-14 32q0 16 5 27t10 14l5 4l110 60q15 10 30 10q22 0 36 -13t14 -32q0 -16 -5 -27t-10 -14z" />
    <glyph glyph-name="Acircumflex" unicode="&#xc2;" horiz-adv-x="510" 
d="M25 75l180 585q5 16 18.5 28t31.5 12t31.5 -12t18.5 -28l180 -585q5 -15 5 -25q0 -22 -14 -36t-36 -14q-16 0 -27 7.5t-15 14.5l-3 8l-30 95h-220l-30 -95q-1 -3 -3.5 -8t-14 -13.5t-27.5 -8.5q-22 0 -36 14t-14 36zM175 225h160l-80 265zM255 940q20 0 40 -20l80 -80
q10 -10 10 -30q0 -15 -12.5 -27.5t-27.5 -12.5q-9 0 -16.5 2.5t-10.5 5.5l-3 2l-60 60l-60 -60q-10 -10 -30 -10q-15 0 -27.5 12.5t-12.5 27.5q0 9 2.5 16.5t4.5 10.5l3 3l80 80q20 20 40 20z" />
    <glyph glyph-name="Atilde" unicode="&#xc3;" horiz-adv-x="510" 
d="M25 75l180 585q5 16 18.5 28t31.5 12t31.5 -12t18.5 -28l180 -585q5 -15 5 -25q0 -22 -14 -36t-36 -14q-16 0 -27 7.5t-15 14.5l-3 8l-30 95h-220l-30 -95q-1 -3 -3.5 -8t-14 -13.5t-27.5 -8.5q-22 0 -36 14t-14 36zM175 225h160l-80 265zM222 830q-13 0 -25 -20
q-17 -25 -40 -25q-18 0 -29 12t-11 28l4 25q8 30 32 50t54 20q23 0 48 -20t32 -20q13 0 25 20q17 25 40 25q18 0 29 -12t11 -28l-4 -25q-8 -30 -32 -50t-54 -20q-22 0 -47 20t-33 20z" />
    <glyph glyph-name="Adieresis" unicode="&#xc4;" horiz-adv-x="510" 
d="M25 75l180 585q5 16 18.5 28t31.5 12t31.5 -12t18.5 -28l180 -585q5 -15 5 -25q0 -22 -14 -36t-36 -14q-16 0 -27 7.5t-15 14.5l-3 8l-30 95h-220l-30 -95q-1 -3 -3.5 -8t-14 -13.5t-27.5 -8.5q-22 0 -36 14t-14 36zM175 225h160l-80 265zM175 900q23 0 39 -16t16 -39
t-16 -39t-39 -16t-39 16t-16 39t16 39t39 16zM335 900q23 0 39 -16t16 -39t-16 -39t-39 -16t-39 16t-16 39t16 39t39 16z" />
    <glyph glyph-name="Aring" unicode="&#xc5;" horiz-adv-x="510" 
d="M25 75l180 585q5 16 18.5 28t31.5 12t31.5 -12t18.5 -28l180 -585q5 -15 5 -25q0 -22 -14 -36t-36 -14q-16 0 -27 7.5t-15 14.5l-3 8l-30 95h-220l-30 -95q-1 -3 -3.5 -8t-14 -13.5t-27.5 -8.5q-22 0 -36 14t-14 36zM175 225h160l-80 265zM355 870q0 -41 -29.5 -70.5
t-70.5 -29.5t-70.5 29.5t-29.5 70.5t29.5 70.5t70.5 29.5t70.5 -29.5t29.5 -70.5zM285 870q0 11 -9.5 20.5t-20.5 9.5t-20.5 -9.5t-9.5 -20.5t9.5 -20.5t20.5 -9.5t20.5 9.5t9.5 20.5z" />
    <glyph glyph-name="AE" unicode="&#xc6;" horiz-adv-x="705" 
d="M-10 80l310 590q15 30 45 30h270q19 0 34.5 -15.5t15.5 -34.5t-15.5 -34.5t-34.5 -15.5h-170v-160h160q19 0 34.5 -15.5t15.5 -34.5t-15.5 -34.5t-34.5 -15.5h-160v-240h170q19 0 34.5 -15.5t15.5 -34.5t-15.5 -34.5t-34.5 -15.5h-220q-19 0 -34.5 15.5t-15.5 34.5v150
h-180l-90 -170q-15 -30 -45 -30q-19 0 -34.5 15.5t-15.5 34.5q0 7 2.5 14.5t5.5 11.5zM345 545l-130 -245h130v245z" />
    <glyph glyph-name="Ccedilla" unicode="&#xc7;" horiz-adv-x="505" 
d="M242 -50l19 41q-201 16 -201 359q0 193 58.5 276.5t166.5 83.5q69 0 115.5 -33.5t59.5 -76.5q5 -15 5 -30q0 -22 -13 -36t-32 -14q-16 0 -27 7.5t-15 14.5l-3 8q-8 25 -31.5 42.5t-58.5 17.5q-62 0 -93.5 -56t-31.5 -204t31.5 -204t93.5 -56q74 0 100 70q1 3 3.5 8
t14 13.5t27.5 8.5q19 0 32 -14t13 -36l-5 -30q-14 -42 -50.5 -74.5t-91.5 -41.5l-21 -44q4 0 10 -1.5t21.5 -7.5t27.5 -14.5t21.5 -26.5t9.5 -40q0 -42 -31 -71t-79 -29h-35q-40 0 -40 40t40 40h35q7 0 13.5 6t6.5 14t-6.5 14t-13.5 6h-20q-40 0 -40 30q0 4 3.5 14t7.5 18z
" />
    <glyph glyph-name="Egrave" unicode="&#xc8;" horiz-adv-x="440" 
d="M350 600h-170v-160h160q19 0 34.5 -15.5t15.5 -34.5t-15.5 -34.5t-34.5 -15.5h-160v-240h170q19 0 34.5 -15.5t15.5 -34.5t-15.5 -34.5t-34.5 -15.5h-220q-19 0 -34.5 15.5t-15.5 34.5v600q0 19 15.5 34.5t34.5 15.5h220q19 0 34.5 -15.5t15.5 -34.5t-15.5 -34.5
t-34.5 -15.5zM245 780l-110 60q-20 10 -20 45q0 19 14 32t36 13q7 0 14.5 -2.5t11.5 -5.5l4 -2l110 -60q20 -10 20 -45q0 -19 -14 -32t-36 -13q-7 0 -14.5 2.5t-11.5 5.5z" />
    <glyph glyph-name="Eacute" unicode="&#xc9;" horiz-adv-x="440" 
d="M350 600h-170v-160h160q19 0 34.5 -15.5t15.5 -34.5t-15.5 -34.5t-34.5 -15.5h-160v-240h170q19 0 34.5 -15.5t15.5 -34.5t-15.5 -34.5t-34.5 -15.5h-220q-19 0 -34.5 15.5t-15.5 34.5v600q0 19 15.5 34.5t34.5 15.5h220q19 0 34.5 -15.5t15.5 -34.5t-15.5 -34.5
t-34.5 -15.5zM325 840l-110 -60q-15 -10 -30 -10q-22 0 -36 13t-14 32q0 16 5 27t10 14l5 4l110 60q15 10 30 10q22 0 36 -13t14 -32q0 -16 -5 -27t-10 -14z" />
    <glyph glyph-name="Ecircumflex" unicode="&#xca;" horiz-adv-x="440" 
d="M350 600h-170v-160h160q19 0 34.5 -15.5t15.5 -34.5t-15.5 -34.5t-34.5 -15.5h-160v-240h170q19 0 34.5 -15.5t15.5 -34.5t-15.5 -34.5t-34.5 -15.5h-220q-19 0 -34.5 15.5t-15.5 34.5v600q0 19 15.5 34.5t34.5 15.5h220q19 0 34.5 -15.5t15.5 -34.5t-15.5 -34.5
t-34.5 -15.5zM240 940q20 0 40 -20l80 -80q10 -10 10 -30q0 -15 -12.5 -27.5t-27.5 -12.5q-9 0 -16.5 2.5t-10.5 5.5l-3 2l-60 60l-60 -60q-10 -10 -30 -10q-15 0 -27.5 12.5t-12.5 27.5q0 9 2.5 16.5t5.5 10.5l2 3l80 80q20 20 40 20z" />
    <glyph glyph-name="Edieresis" unicode="&#xcb;" horiz-adv-x="440" 
d="M350 600h-170v-160h160q19 0 34.5 -15.5t15.5 -34.5t-15.5 -34.5t-34.5 -15.5h-160v-240h170q19 0 34.5 -15.5t15.5 -34.5t-15.5 -34.5t-34.5 -15.5h-220q-19 0 -34.5 15.5t-15.5 34.5v600q0 19 15.5 34.5t34.5 15.5h220q19 0 34.5 -15.5t15.5 -34.5t-15.5 -34.5
t-34.5 -15.5zM150 890q22 0 38.5 -16t16.5 -39t-16.5 -39t-38.5 -16t-38.5 16t-16.5 39t16.5 39t38.5 16zM310 890q22 0 38.5 -16t16.5 -39t-16.5 -39t-38.5 -16t-38.5 16t-16.5 39t16.5 39t38.5 16z" />
    <glyph glyph-name="Igrave" unicode="&#xcc;" horiz-adv-x="260" 
d="M180 650v-600q0 -19 -15.5 -34.5t-34.5 -15.5t-34.5 15.5t-15.5 34.5v600q0 19 15.5 34.5t34.5 15.5t34.5 -15.5t15.5 -34.5zM105 780l-110 60q-20 10 -20 45q0 19 14 32t36 13q7 0 14.5 -2.5t11.5 -5.5l4 -2l110 -60q20 -10 20 -45q0 -19 -14 -32t-36 -13
q-7 0 -14.5 2.5t-11.5 5.5z" />
    <glyph glyph-name="Iacute" unicode="&#xcd;" horiz-adv-x="260" 
d="M180 650v-600q0 -19 -15.5 -34.5t-34.5 -15.5t-34.5 15.5t-15.5 34.5v600q0 19 15.5 34.5t34.5 15.5t34.5 -15.5t15.5 -34.5zM255 840l-110 -60q-15 -10 -30 -10q-22 0 -36 13t-14 32q0 16 5 27t10 14l5 4l110 60q15 10 30 10q22 0 36 -13t14 -32q0 -16 -5 -27t-10 -14z
" />
    <glyph glyph-name="Icircumflex" unicode="&#xce;" horiz-adv-x="260" 
d="M180 650v-600q0 -19 -15.5 -34.5t-34.5 -15.5t-34.5 15.5t-15.5 34.5v600q0 19 15.5 34.5t34.5 15.5t34.5 -15.5t15.5 -34.5zM130 940q20 0 40 -20l80 -80q10 -10 10 -30q0 -15 -12.5 -27.5t-27.5 -12.5q-9 0 -16.5 2.5t-10.5 5.5l-3 2l-60 60l-60 -60q-10 -10 -30 -10
q-15 0 -27.5 12.5t-12.5 27.5q0 9 2.5 16.5t5.5 10.5l2 3l80 80q20 20 40 20z" />
    <glyph glyph-name="Idieresis" unicode="&#xcf;" horiz-adv-x="260" 
d="M180 650v-600q0 -19 -15.5 -34.5t-34.5 -15.5t-34.5 15.5t-15.5 34.5v600q0 19 15.5 34.5t34.5 15.5t34.5 -15.5t15.5 -34.5zM50 900q22 0 38.5 -16t16.5 -39t-16.5 -39t-38.5 -16t-38.5 16t-16.5 39t16.5 39t38.5 16zM210 900q22 0 38.5 -16t16.5 -39t-16.5 -39
t-38.5 -16t-38.5 16t-16.5 39t16.5 39t38.5 16z" />
    <glyph glyph-name="Eth" unicode="&#xd0;" horiz-adv-x="560" 
d="M250 710q260 0 260 -340q0 -171 -100.5 -275.5t-259.5 -104.5q-22 0 -36 14t-14 36v270h-30q-19 0 -34.5 15.5t-15.5 34.5t15.5 34.5t34.5 15.5h30v240q0 19 14 32.5t36 17.5q40 10 100 10zM260 310h-60v-220q210 48 210 280q0 121 -44 180.5t-116 59.5q-11 0 -23.5 -1
t-19.5 -2l-7 -1v-196h60q19 0 34.5 -15.5t15.5 -34.5t-15.5 -34.5t-34.5 -15.5z" />
    <glyph glyph-name="Ntilde" unicode="&#xd1;" horiz-adv-x="590" 
d="M405 40l-225 420v-410q0 -19 -15.5 -34.5t-34.5 -15.5t-34.5 15.5t-15.5 34.5v600q0 19 15.5 34.5t34.5 15.5q33 0 55 -40l225 -420v410q0 19 15.5 34.5t34.5 15.5t34.5 -15.5t15.5 -34.5v-600q0 -19 -15.5 -34.5t-34.5 -15.5q-33 0 -55 40zM272 825q-13 0 -25 -20
q-17 -25 -40 -25q-18 0 -29 12t-11 28l4 25q8 30 32 50t54 20q23 0 48 -20t32 -20q13 0 25 20q17 25 40 25q18 0 29 -12t11 -28l-4 -25q-8 -30 -32 -50t-54 -20q-22 0 -47 20t-33 20z" />
    <glyph glyph-name="Ograve" unicode="&#xd2;" horiz-adv-x="570" 
d="M410 350q0 148 -31.5 204t-93.5 56t-93.5 -56t-31.5 -204t31.5 -204t93.5 -56t93.5 56t31.5 204zM510 350q0 -193 -58.5 -276.5t-166.5 -83.5t-166.5 83.5t-58.5 276.5t58.5 276.5t166.5 83.5t166.5 -83.5t58.5 -276.5zM270 780l-110 60q-20 10 -20 45q0 19 14 32t36 13
q7 0 14.5 -2.5t11.5 -5.5l4 -2l110 -60q20 -10 20 -45q0 -19 -14 -32t-36 -13q-7 0 -14.5 2.5t-11.5 5.5z" />
    <glyph glyph-name="Oacute" unicode="&#xd3;" horiz-adv-x="570" 
d="M410 350q0 148 -31.5 204t-93.5 56t-93.5 -56t-31.5 -204t31.5 -204t93.5 -56t93.5 56t31.5 204zM510 350q0 -193 -58.5 -276.5t-166.5 -83.5t-166.5 83.5t-58.5 276.5t58.5 276.5t166.5 83.5t166.5 -83.5t58.5 -276.5zM400 840l-110 -60q-15 -10 -30 -10q-22 0 -36 13
t-14 32q0 16 5 27t10 14l5 4l110 60q15 10 30 10q22 0 36 -13t14 -32q0 -16 -5 -27t-10 -14z" />
    <glyph glyph-name="Ocircumflex" unicode="&#xd4;" horiz-adv-x="570" 
d="M410 350q0 148 -31.5 204t-93.5 56t-93.5 -56t-31.5 -204t31.5 -204t93.5 -56t93.5 56t31.5 204zM510 350q0 -193 -58.5 -276.5t-166.5 -83.5t-166.5 83.5t-58.5 276.5t58.5 276.5t166.5 83.5t166.5 -83.5t58.5 -276.5zM285 940q20 0 40 -20l80 -80q10 -10 10 -30
q0 -15 -12.5 -27.5t-27.5 -12.5q-9 0 -16.5 2.5t-10.5 5.5l-3 2l-60 60l-60 -60q-10 -10 -30 -10q-15 0 -27.5 12.5t-12.5 27.5q0 9 2.5 16.5t4.5 10.5l3 3l80 80q20 20 40 20z" />
    <glyph glyph-name="Otilde" unicode="&#xd5;" horiz-adv-x="570" 
d="M410 350q0 148 -31.5 204t-93.5 56t-93.5 -56t-31.5 -204t31.5 -204t93.5 -56t93.5 56t31.5 204zM510 350q0 -193 -58.5 -276.5t-166.5 -83.5t-166.5 83.5t-58.5 276.5t58.5 276.5t166.5 83.5t166.5 -83.5t58.5 -276.5zM252 825q-13 0 -25 -20q-17 -25 -40 -25
q-18 0 -29 12t-11 28l4 25q8 30 32 50t54 20q23 0 48 -20t32 -20q13 0 25 20q17 25 40 25q18 0 29 -12t11 -28l-4 -25q-8 -30 -32 -50t-54 -20q-22 0 -47 20t-33 20z" />
    <glyph glyph-name="Odieresis" unicode="&#xd6;" horiz-adv-x="570" 
d="M410 350q0 148 -31.5 204t-93.5 56t-93.5 -56t-31.5 -204t31.5 -204t93.5 -56t93.5 56t31.5 204zM510 350q0 -193 -58.5 -276.5t-166.5 -83.5t-166.5 83.5t-58.5 276.5t58.5 276.5t166.5 83.5t166.5 -83.5t58.5 -276.5zM205 900q23 0 39 -16t16 -39t-16 -39t-39 -16
t-39 16t-16 39t16 39t39 16zM365 900q23 0 39 -16t16 -39t-16 -39t-39 -16t-39 16t-16 39t16 39t39 16z" />
    <glyph glyph-name="multiply" unicode="&#xd7;" horiz-adv-x="370" 
d="M255 320l70 -70q15 -14 15 -35q0 -23 -14 -36.5t-36 -13.5q-9 0 -17.5 3.5t-12.5 7.5l-5 4l-70 70l-70 -70q-15 -15 -35 -15q-22 0 -36 13.5t-14 36.5q0 9 4 18t8 13l3 4l70 70l-70 70q-15 14 -15 35q0 23 14 36.5t36 13.5q9 0 17.5 -3.5t12.5 -7.5l5 -4l70 -70l70 70
q15 15 35 15q22 0 36 -13.5t14 -36.5q0 -9 -4 -18t-8 -13l-3 -4z" />
    <glyph glyph-name="Oslash" unicode="&#xd8;" horiz-adv-x="560" 
d="M364 569l1 1l-8.5 11t-27.5 18t-49 11q-62 0 -93.5 -56t-31.5 -204l5 -115zM405 350q-1 90 -7 112l-203 -332l8.5 -11t27.5 -18t49 -11q62 0 93.5 56t31.5 204zM505 350q0 -193 -58.5 -276.5t-166.5 -83.5q-42 0 -77 12.5t-49 25.5l-14 12l-5 -10q-15 -30 -40 -30
q-19 0 -32 13t-13 32q0 7 4 15.5t8 13.5l3 6l25 40q-4 7 -10 21.5t-15.5 73.5t-9.5 135q0 193 58.5 276.5t166.5 83.5q42 0 77 -12.5t49 -25.5l14 -12l5 10q15 30 40 30q19 0 32 -13t13 -32q0 -7 -4 -15.5t-8 -13.5l-3 -6l-25 -40q4 -7 10 -21.5t15.5 -73.5t9.5 -135z" />
    <glyph glyph-name="Ugrave" unicode="&#xd9;" horiz-adv-x="560" 
d="M280 90q46 0 78 34t32 86v440q0 19 15.5 34.5t34.5 15.5t34.5 -15.5t15.5 -34.5v-440q0 -97 -59.5 -158.5t-150.5 -61.5t-150.5 61.5t-59.5 158.5v440q0 19 15.5 34.5t34.5 15.5t34.5 -15.5t15.5 -34.5v-440q0 -52 32 -86t78 -34zM265 780l-110 60q-20 10 -20 45
q0 19 14 32t36 13q7 0 14.5 -2.5t11.5 -5.5l4 -2l110 -60q20 -10 20 -45q0 -19 -14 -32t-36 -13q-7 0 -14.5 2.5t-11.5 5.5z" />
    <glyph glyph-name="Uacute" unicode="&#xda;" horiz-adv-x="560" 
d="M280 90q46 0 78 34t32 86v440q0 19 15.5 34.5t34.5 15.5t34.5 -15.5t15.5 -34.5v-440q0 -97 -59.5 -158.5t-150.5 -61.5t-150.5 61.5t-59.5 158.5v440q0 19 15.5 34.5t34.5 15.5t34.5 -15.5t15.5 -34.5v-440q0 -52 32 -86t78 -34zM395 840l-110 -60q-15 -10 -30 -10
q-22 0 -36 13t-14 32q0 16 5 27t10 14l5 4l110 60q15 10 30 10q22 0 36 -13t14 -32q0 -16 -5 -27t-10 -14z" />
    <glyph glyph-name="Ucircumflex" unicode="&#xdb;" horiz-adv-x="560" 
d="M280 90q46 0 78 34t32 86v440q0 19 15.5 34.5t34.5 15.5t34.5 -15.5t15.5 -34.5v-440q0 -97 -59.5 -158.5t-150.5 -61.5t-150.5 61.5t-59.5 158.5v440q0 19 15.5 34.5t34.5 15.5t34.5 -15.5t15.5 -34.5v-440q0 -52 32 -86t78 -34zM280 940q20 0 40 -20l80 -80
q10 -10 10 -30q0 -15 -12.5 -27.5t-27.5 -12.5q-9 0 -16.5 2.5t-10.5 5.5l-3 2l-60 60l-60 -60q-10 -10 -30 -10q-15 0 -27.5 12.5t-12.5 27.5q0 9 2.5 16.5t5.5 10.5l2 3l80 80q20 20 40 20z" />
    <glyph glyph-name="Udieresis" unicode="&#xdc;" horiz-adv-x="560" 
d="M280 90q46 0 78 34t32 86v440q0 19 15.5 34.5t34.5 15.5t34.5 -15.5t15.5 -34.5v-440q0 -97 -59.5 -158.5t-150.5 -61.5t-150.5 61.5t-59.5 158.5v440q0 19 15.5 34.5t34.5 15.5t34.5 -15.5t15.5 -34.5v-440q0 -52 32 -86t78 -34zM200 900q22 0 38.5 -16t16.5 -39
t-16.5 -39t-38.5 -16t-38.5 16t-16.5 39t16.5 39t38.5 16zM360 900q22 0 38.5 -16t16.5 -39t-16.5 -39t-38.5 -16t-38.5 16t-16.5 39t16.5 39t38.5 16z" />
    <glyph glyph-name="Yacute" unicode="&#xdd;" 
d="M30 510v140q0 19 15.5 34.5t34.5 15.5t34.5 -15.5t15.5 -34.5v-120l115 -110l115 110v120q0 19 15.5 34.5t34.5 15.5t34.5 -15.5t15.5 -34.5v-140q0 -25 -25 -50l-140 -135v-275q0 -19 -15.5 -34.5t-34.5 -15.5t-34.5 15.5t-15.5 34.5v275l-140 135q-25 25 -25 50z
M370 840l-110 -60q-15 -10 -30 -10q-22 0 -36 13t-14 32q0 16 5 27t10 14l5 4l110 60q15 10 30 10q22 0 36 -13t14 -32q0 -16 -5 -27t-10 -14z" />
    <glyph glyph-name="Thorn" unicode="&#xde;" horiz-adv-x="510" 
d="M130 710q19 0 34.5 -15.5t15.5 -34.5v-50q280 -29 280 -260t-280 -260v-50q0 -19 -15.5 -34.5t-34.5 -15.5t-34.5 15.5t-15.5 34.5v620q0 19 15.5 34.5t34.5 15.5zM180 510v-320q88 7 134 49t46 111t-46 111t-134 49z" />
    <glyph glyph-name="germandbls" unicode="&#xdf;" horiz-adv-x="475" 
d="M275 90q37 0 58.5 21t21.5 59q0 22 -15 40.5t-36.5 34.5t-42.5 34t-36 46.5t-15 64.5q0 27 14 51.5t31 39.5t31 34t14 35q0 60 -60 60q-38 0 -59 -21t-21 -59v-485q0 -19 -13 -32t-32 -13t-32 13t-13 32v485q0 75 47.5 122.5t122.5 47.5q68 0 109 -41t41 -109
q0 -27 -14 -51.5t-31 -39.5t-31 -34t-14 -35q0 -22 15 -40.5t36 -34.5l42.5 -34t36.5 -46.5t15 -64.5q0 -75 -47.5 -122.5t-122.5 -47.5q-19 0 -32 13t-13 32t13 32t32 13z" />
    <glyph glyph-name="agrave" unicode="&#xe0;" horiz-adv-x="455" 
d="M295 150v75q-40 15 -90 15q-37 0 -58.5 -21t-21.5 -59q0 -37 19.5 -58.5t50.5 -21.5q27 0 52 17.5t37 34.5zM385 370v-325q0 -19 -13 -32t-32 -13t-32 13t-13 32v10q-2 -3 -5 -7t-14 -15.5t-24 -20t-34 -15.5t-43 -7q-62 0 -101 45t-39 125q0 75 47.5 122.5t122.5 47.5
q22 0 44.5 -4t34.5 -8l11 -3v55q0 34 -23 57t-57 23q-16 0 -33.5 -5t-27.5 -10l-9 -5q-10 -5 -25 -5t-27.5 13.5t-12.5 31.5q0 11 7.5 21t14.5 15l8 4q50 30 105 30q75 0 122.5 -47.5t47.5 -122.5zM212 600l-110 60q-20 10 -20 45q0 19 14 32t36 13q7 0 14.5 -2.5t11.5 -5.5
l4 -2l110 -60q20 -10 20 -45q0 -19 -14 -32t-36 -13q-7 0 -14.5 2.5t-11.5 5.5z" />
    <glyph glyph-name="aacute" unicode="&#xe1;" horiz-adv-x="455" 
d="M295 150v75q-40 15 -90 15q-37 0 -58.5 -21t-21.5 -59q0 -37 19.5 -58.5t50.5 -21.5q27 0 52 17.5t37 34.5zM385 370v-325q0 -19 -13 -32t-32 -13t-32 13t-13 32v10q-2 -3 -5 -7t-14 -15.5t-24 -20t-34 -15.5t-43 -7q-62 0 -101 45t-39 125q0 75 47.5 122.5t122.5 47.5
q22 0 44.5 -4t34.5 -8l11 -3v55q0 34 -23 57t-57 23q-16 0 -33.5 -5t-27.5 -10l-9 -5q-10 -5 -25 -5t-27.5 13.5t-12.5 31.5q0 11 7.5 21t14.5 15l8 4q50 30 105 30q75 0 122.5 -47.5t47.5 -122.5zM342 660l-110 -60q-15 -10 -30 -10q-22 0 -36 13t-14 32q0 16 5 27t10 14
l5 4l110 60q15 10 30 10q22 0 36 -13t14 -32q0 -16 -5 -27t-10 -14z" />
    <glyph glyph-name="acircumflex" unicode="&#xe2;" horiz-adv-x="455" 
d="M295 150v75q-40 15 -90 15q-37 0 -58.5 -21t-21.5 -59q0 -37 19.5 -58.5t50.5 -21.5q27 0 52 17.5t37 34.5zM385 370v-325q0 -19 -13 -32t-32 -13t-32 13t-13 32v10q-2 -3 -5 -7t-14 -15.5t-24 -20t-34 -15.5t-43 -7q-62 0 -101 45t-39 125q0 75 47.5 122.5t122.5 47.5
q22 0 44.5 -4t34.5 -8l11 -3v55q0 34 -23 57t-57 23q-16 0 -33.5 -5t-27.5 -10l-9 -5q-10 -5 -25 -5t-27.5 13.5t-12.5 31.5q0 11 7.5 21t14.5 15l8 4q50 30 105 30q75 0 122.5 -47.5t47.5 -122.5zM227 760q20 0 40 -20l80 -80q10 -10 10 -30q0 -15 -12.5 -27.5t-27.5 -12.5
q-9 0 -16.5 2.5t-10.5 5.5l-3 2l-60 60l-60 -60q-10 -10 -30 -10q-15 0 -27.5 12.5t-12.5 27.5q0 9 2.5 16.5t4.5 10.5l3 3l80 80q20 20 40 20z" />
    <glyph glyph-name="atilde" unicode="&#xe3;" horiz-adv-x="455" 
d="M295 150v75q-40 15 -90 15q-37 0 -58.5 -21t-21.5 -59q0 -37 19.5 -58.5t50.5 -21.5q27 0 52 17.5t37 34.5zM385 370v-325q0 -19 -13 -32t-32 -13t-32 13t-13 32v10q-2 -3 -5 -7t-14 -15.5t-24 -20t-34 -15.5t-43 -7q-62 0 -101 45t-39 125q0 75 47.5 122.5t122.5 47.5
q22 0 44.5 -4t34.5 -8l11 -3v55q0 34 -23 57t-57 23q-16 0 -33.5 -5t-27.5 -10l-9 -5q-10 -5 -25 -5t-27.5 13.5t-12.5 31.5q0 11 7.5 21t14.5 15l8 4q50 30 105 30q75 0 122.5 -47.5t47.5 -122.5zM195 645q-13 0 -25 -20q-17 -25 -40 -25q-18 0 -29 12t-11 28l4 25
q8 30 32 50t54 20q22 0 47 -20t33 -20q13 0 25 20q17 25 40 25q18 0 29 -12t11 -28l-4 -25q-8 -30 -32 -50t-54 -20q-23 0 -48 20t-32 20z" />
    <glyph glyph-name="adieresis" unicode="&#xe4;" horiz-adv-x="455" 
d="M295 150v75q-40 15 -90 15q-37 0 -58.5 -21t-21.5 -59q0 -37 19.5 -58.5t50.5 -21.5q27 0 52 17.5t37 34.5zM385 370v-325q0 -19 -13 -32t-32 -13t-32 13t-13 32v10q-2 -3 -5 -7t-14 -15.5t-24 -20t-34 -15.5t-43 -7q-62 0 -101 45t-39 125q0 75 47.5 122.5t122.5 47.5
q22 0 44.5 -4t34.5 -8l11 -3v55q0 34 -23 57t-57 23q-16 0 -33.5 -5t-27.5 -10l-9 -5q-10 -5 -25 -5t-27.5 13.5t-12.5 31.5q0 11 7.5 21t14.5 15l8 4q50 30 105 30q75 0 122.5 -47.5t47.5 -122.5zM147 720q23 0 39 -16t16 -39t-16 -39t-39 -16t-39 16t-16 39t16 39t39 16z
M307 720q23 0 39 -16t16 -39t-16 -39t-39 -16t-39 16t-16 39t16 39t39 16z" />
    <glyph glyph-name="aring" unicode="&#xe5;" horiz-adv-x="455" 
d="M295 150v75q-40 15 -90 15q-37 0 -58.5 -21t-21.5 -59q0 -37 19.5 -58.5t50.5 -21.5q27 0 52 17.5t37 34.5zM385 370v-325q0 -19 -13 -32t-32 -13t-32 13t-13 32v10q-2 -3 -5 -7t-14 -15.5t-24 -20t-34 -15.5t-43 -7q-62 0 -101 45t-39 125q0 75 47.5 122.5t122.5 47.5
q22 0 44.5 -4t34.5 -8l11 -3v55q0 34 -23 57t-57 23q-16 0 -33.5 -5t-27.5 -10l-9 -5q-10 -5 -25 -5t-27.5 13.5t-12.5 31.5q0 11 7.5 21t14.5 15l8 4q50 30 105 30q75 0 122.5 -47.5t47.5 -122.5zM327 690q0 -41 -29.5 -70.5t-70.5 -29.5t-70.5 29.5t-29.5 70.5t29.5 70.5
t70.5 29.5t70.5 -29.5t29.5 -70.5zM257 690q0 11 -9.5 20.5t-20.5 9.5t-20.5 -9.5t-9.5 -20.5t9.5 -20.5t20.5 -9.5t20.5 9.5t9.5 20.5z" />
    <glyph glyph-name="ae" unicode="&#xe6;" horiz-adv-x="710" 
d="M295 140v85q-40 15 -90 15q-37 0 -58.5 -21t-21.5 -59q0 -37 19.5 -58.5t50.5 -21.5q27 0 52 15t37 30zM385 310h190q-4 71 -29.5 105.5t-65.5 34.5t-65.5 -34.5t-29.5 -105.5zM195 -10q-76 0 -118 44t-42 126q0 75 47.5 122.5t122.5 47.5q22 0 44.5 -4t34.5 -8l11 -3v55
q0 34 -23 57t-57 23q-16 0 -33.5 -5t-27.5 -10l-9 -5q-10 -5 -25 -5t-27.5 13.5t-12.5 31.5q0 11 7.5 21t14.5 15l8 4q50 30 105 30q40 0 73.5 -15t47.5 -30l14 -15q1 2 4 6.5t14.5 14.5t25 18t36.5 14.5t50 6.5q84 0 134.5 -68.5t50.5 -211.5q0 -15 -12.5 -27.5
t-27.5 -12.5h-240q7 -140 100 -140q28 0 50 18t30 42q10 25 40 25q19 0 32 -13t13 -32l-5 -30q-45 -100 -160 -100q-28 0 -53 8t-41.5 20t-28.5 24t-17 20l-5 8l-5.5 -8.5t-16.5 -19.5t-28.5 -24.5t-41 -19t-53.5 -8.5z" />
    <glyph glyph-name="ccedilla" unicode="&#xe7;" horiz-adv-x="435" 
d="M187 -50l20 43q-73 11 -115 78.5t-42 193.5q0 140 51.5 207.5t138.5 67.5q110 0 150 -90q5 -10 5 -30q0 -19 -13 -32t-32 -13q-13 0 -23 6.5t-13 12.5l-4 6q-4 17 -25 33.5t-45 16.5q-49 0 -74.5 -41t-25.5 -144t25.5 -144t74.5 -41q28 0 50 18t30 42q10 25 40 25
q19 0 32 -13t13 -32l-5 -30q-40 -86 -128 -98l-20 -42q4 0 10 -1.5t21.5 -7.5t27.5 -14.5t21.5 -26.5t9.5 -40q0 -42 -31 -71t-79 -29h-35q-40 0 -40 40t40 40h35q8 0 14 6t6 14t-6 14t-14 6h-20q-40 0 -40 30q0 4 4 14t8 18z" />
    <glyph glyph-name="egrave" unicode="&#xe8;" horiz-adv-x="465" 
d="M240 80q28 0 50 18t30 42q10 25 40 25q19 0 32 -13t13 -32l-5 -30q-45 -100 -160 -100q-87 0 -138.5 67.5t-51.5 207.5q0 139 50.5 207t134.5 68t134.5 -68.5t50.5 -211.5q0 -15 -12.5 -27.5t-27.5 -12.5h-240q7 -140 100 -140zM140 310h190q-4 71 -29.5 105.5
t-65.5 34.5t-65.5 -34.5t-29.5 -105.5zM227 600l-110 60q-20 10 -20 45q0 19 14 32t36 13q7 0 14.5 -2.5t11.5 -5.5l4 -2l110 -60q20 -10 20 -45q0 -19 -14 -32t-36 -13q-7 0 -14.5 2.5t-11.5 5.5z" />
    <glyph glyph-name="eacute" unicode="&#xe9;" horiz-adv-x="465" 
d="M240 80q28 0 50 18t30 42q10 25 40 25q19 0 32 -13t13 -32l-5 -30q-45 -100 -160 -100q-87 0 -138.5 67.5t-51.5 207.5q0 139 50.5 207t134.5 68t134.5 -68.5t50.5 -211.5q0 -15 -12.5 -27.5t-27.5 -12.5h-240q7 -140 100 -140zM140 310h190q-4 71 -29.5 105.5
t-65.5 34.5t-65.5 -34.5t-29.5 -105.5zM337 660l-110 -60q-15 -10 -30 -10q-22 0 -36 13t-14 32q0 16 5 27t10 14l5 4l110 60q15 10 30 10q22 0 36 -13t14 -32q0 -16 -5 -27t-10 -14z" />
    <glyph glyph-name="ecircumflex" unicode="&#xea;" horiz-adv-x="465" 
d="M240 80q28 0 50 18t30 42q10 25 40 25q19 0 32 -13t13 -32l-5 -30q-45 -100 -160 -100q-87 0 -138.5 67.5t-51.5 207.5q0 139 50.5 207t134.5 68t134.5 -68.5t50.5 -211.5q0 -15 -12.5 -27.5t-27.5 -12.5h-240q7 -140 100 -140zM140 310h190q-4 71 -29.5 105.5
t-65.5 34.5t-65.5 -34.5t-29.5 -105.5zM235 760q20 0 40 -20l80 -80q10 -10 10 -30q0 -15 -12.5 -27.5t-27.5 -12.5q-9 0 -16.5 2.5t-10.5 5.5l-3 2l-60 60l-60 -60q-10 -10 -30 -10q-15 0 -27.5 12.5t-12.5 27.5q0 9 2.5 16.5t4.5 10.5l3 3l80 80q20 20 40 20z" />
    <glyph glyph-name="edieresis" unicode="&#xeb;" horiz-adv-x="465" 
d="M240 80q28 0 50 18t30 42q10 25 40 25q19 0 32 -13t13 -32l-5 -30q-45 -100 -160 -100q-87 0 -138.5 67.5t-51.5 207.5q0 139 50.5 207t134.5 68t134.5 -68.5t50.5 -211.5q0 -15 -12.5 -27.5t-27.5 -12.5h-240q7 -140 100 -140zM140 310h190q-4 71 -29.5 105.5
t-65.5 34.5t-65.5 -34.5t-29.5 -105.5zM150 720q22 0 38.5 -16t16.5 -39t-16.5 -39t-38.5 -16t-38.5 16t-16.5 39t16.5 39t38.5 16zM310 720q22 0 38.5 -16t16.5 -39t-16.5 -39t-38.5 -16t-38.5 16t-16.5 39t16.5 39t38.5 16z" />
    <glyph glyph-name="igrave" unicode="&#xec;" horiz-adv-x="240" 
d="M75 45v440q0 19 13 32t32 13t32 -13t13 -32v-440q0 -19 -13 -32t-32 -13t-32 13t-13 32zM95 600l-110 60q-20 10 -20 45q0 19 14 32t36 13q7 0 14.5 -2.5t11.5 -5.5l4 -2l110 -60q20 -10 20 -45q0 -19 -14 -32t-36 -13q-7 0 -14.5 2.5t-11.5 5.5z" />
    <glyph glyph-name="iacute" unicode="&#xed;" horiz-adv-x="240" 
d="M75 45v440q0 19 13 32t32 13t32 -13t13 -32v-440q0 -19 -13 -32t-32 -13t-32 13t-13 32zM255 660l-110 -60q-15 -10 -30 -10q-22 0 -36 13t-14 32q0 16 5 27t10 14l5 4l110 60q15 10 30 10q22 0 36 -13t14 -32q0 -16 -5 -27t-10 -14z" />
    <glyph glyph-name="icircumflex" unicode="&#xee;" horiz-adv-x="240" 
d="M75 45v440q0 19 13 32t32 13t32 -13t13 -32v-440q0 -19 -13 -32t-32 -13t-32 13t-13 32zM120 760q20 0 40 -20l80 -80q10 -10 10 -30q0 -15 -12.5 -27.5t-27.5 -12.5q-9 0 -16.5 2.5t-10.5 5.5l-3 2l-60 60l-60 -60q-10 -10 -30 -10q-15 0 -27.5 12.5t-12.5 27.5
q0 9 2.5 16.5t5.5 10.5l2 3l80 80q20 20 40 20z" />
    <glyph glyph-name="idieresis" unicode="&#xef;" horiz-adv-x="240" 
d="M75 45v440q0 19 13 32t32 13t32 -13t13 -32v-440q0 -19 -13 -32t-32 -13t-32 13t-13 32zM40 700q22 0 38.5 -16t16.5 -39t-16.5 -39t-38.5 -16t-38.5 16t-16.5 39t16.5 39t38.5 16zM200 700q22 0 38.5 -16t16.5 -39t-16.5 -39t-38.5 -16t-38.5 16t-16.5 39t16.5 39
t38.5 16z" />
    <glyph glyph-name="eth" unicode="&#xf0;" horiz-adv-x="470" 
d="M333 630l-21 -24q38 -33 65.5 -84t27.5 -112v-180q0 -115 -50.5 -177.5t-129.5 -62.5q-78 0 -129 60.5t-51 169.5q0 107 47.5 168.5t112.5 61.5q29 0 56.5 -10t40.5 -20l13 -10q0 75 -67 122l-28 -32q-12 -14 -34 -16t-36 11q-14 12 -16 34t10 36l15 18l-49 27
q-20 10 -20 45q0 19 14 32t36 13q7 0 14.5 -2.5t11.5 -5.5l4 -2l56 -31l31 36q13 14 35 15.5t36 -10.5t15.5 -34t-10.5 -36zM135 220q0 -71 25 -105.5t65 -34.5q41 0 65.5 36t24.5 114v85q-4 5 -11.5 12.5t-31 20t-47.5 12.5q-40 0 -65 -34.5t-25 -105.5z" />
    <glyph glyph-name="ntilde" unicode="&#xf1;" 
d="M70 45v440q0 19 13 32t32 13t32 -13t13 -32v-10q2 3 5 7t14 15.5t24 20t34 15.5t43 7q58 0 99 -47t41 -123v-325q0 -19 -13 -32t-32 -13t-32 13t-13 32v325q0 37 -19.5 58.5t-50.5 21.5q-27 0 -52 -17.5t-36 -34.5l-12 -18v-335q0 -19 -13 -32t-32 -13t-32 13t-13 32z
M212 645q-13 0 -25 -20q-17 -25 -40 -25q-18 0 -29 12t-11 28l4 25q8 30 32 50t54 20q23 0 48 -20t32 -20q13 0 25 20q17 25 40 25q18 0 29 -12t11 -28l-4 -25q-8 -30 -32 -50t-54 -20q-22 0 -47 20t-33 20z" />
    <glyph glyph-name="ograve" unicode="&#xf2;" horiz-adv-x="480" 
d="M240 80q49 0 74.5 41t25.5 144t-25.5 144t-74.5 41t-74.5 -41t-25.5 -144t25.5 -144t74.5 -41zM240 -10q-87 0 -138.5 67.5t-51.5 207.5t51.5 207.5t138.5 67.5t138.5 -67.5t51.5 -207.5t-51.5 -207.5t-138.5 -67.5zM215 600l-110 60q-20 10 -20 45q0 19 14 32t36 13
q7 0 14.5 -2.5t11.5 -5.5l4 -2l110 -60q20 -10 20 -45q0 -19 -14 -32t-36 -13q-7 0 -14.5 2.5t-11.5 5.5z" />
    <glyph glyph-name="oacute" unicode="&#xf3;" horiz-adv-x="480" 
d="M240 80q49 0 74.5 41t25.5 144t-25.5 144t-74.5 41t-74.5 -41t-25.5 -144t25.5 -144t74.5 -41zM240 -10q-87 0 -138.5 67.5t-51.5 207.5t51.5 207.5t138.5 67.5t138.5 -67.5t51.5 -207.5t-51.5 -207.5t-138.5 -67.5zM355 660l-110 -60q-15 -10 -30 -10q-22 0 -36 13
t-14 32q0 16 5 27t10 14l5 4l110 60q15 10 30 10q22 0 36 -13t14 -32q0 -16 -5 -27t-10 -14z" />
    <glyph glyph-name="ocircumflex" unicode="&#xf4;" horiz-adv-x="480" 
d="M240 80q49 0 74.5 41t25.5 144t-25.5 144t-74.5 41t-74.5 -41t-25.5 -144t25.5 -144t74.5 -41zM240 -10q-87 0 -138.5 67.5t-51.5 207.5t51.5 207.5t138.5 67.5t138.5 -67.5t51.5 -207.5t-51.5 -207.5t-138.5 -67.5zM240 760q20 0 40 -20l80 -80q10 -10 10 -30
q0 -15 -12.5 -27.5t-27.5 -12.5q-9 0 -16.5 2.5t-10.5 5.5l-3 2l-60 60l-60 -60q-10 -10 -30 -10q-15 0 -27.5 12.5t-12.5 27.5q0 9 2.5 16.5t5.5 10.5l2 3l80 80q20 20 40 20z" />
    <glyph glyph-name="otilde" unicode="&#xf5;" horiz-adv-x="480" 
d="M240 80q49 0 74.5 41t25.5 144t-25.5 144t-74.5 41t-74.5 -41t-25.5 -144t25.5 -144t74.5 -41zM240 -10q-87 0 -138.5 67.5t-51.5 207.5t51.5 207.5t138.5 67.5t138.5 -67.5t51.5 -207.5t-51.5 -207.5t-138.5 -67.5zM207 645q-13 0 -25 -20q-17 -25 -40 -25q-18 0 -29 12
t-11 28l4 25q8 30 32 50t54 20q22 0 47 -20t33 -20q13 0 25 20q17 25 40 25q18 0 29 -12t11 -28l-4 -25q-8 -30 -32 -50t-54 -20q-23 0 -48 20t-32 20z" />
    <glyph glyph-name="odieresis" unicode="&#xf6;" horiz-adv-x="480" 
d="M240 80q49 0 74.5 41t25.5 144t-25.5 144t-74.5 41t-74.5 -41t-25.5 -144t25.5 -144t74.5 -41zM240 -10q-87 0 -138.5 67.5t-51.5 207.5t51.5 207.5t138.5 67.5t138.5 -67.5t51.5 -207.5t-51.5 -207.5t-138.5 -67.5zM160 720q22 0 38.5 -16t16.5 -39t-16.5 -39t-38.5 -16
t-38.5 16t-16.5 39t16.5 39t38.5 16zM320 720q22 0 38.5 -16t16.5 -39t-16.5 -39t-38.5 -16t-38.5 16t-16.5 39t16.5 39t38.5 16z" />
    <glyph glyph-name="divide" unicode="&#xf7;" horiz-adv-x="400" 
d="M330 270h-260q-19 0 -34.5 15.5t-15.5 34.5t15.5 34.5t34.5 15.5h260q19 0 34.5 -15.5t15.5 -34.5t-15.5 -34.5t-34.5 -15.5zM200 550q22 0 38.5 -16t16.5 -39t-16.5 -39t-38.5 -16t-38.5 16t-16.5 39t16.5 39t38.5 16zM200 200q22 0 38.5 -16t16.5 -39t-16.5 -39
t-38.5 -16t-38.5 16t-16.5 39t16.5 39t38.5 16z" />
    <glyph glyph-name="oslash" unicode="&#xf8;" horiz-adv-x="470" 
d="M140 180l155 250q-20 20 -60 20q-49 0 -74.5 -41t-25.5 -144zM425 265q0 -140 -51.5 -207.5t-138.5 -67.5q-31 0 -57.5 9t-37.5 17l-10 9q-10 -25 -29 -25q-16 0 -28.5 12.5t-12.5 27.5q0 7 4 15.5t8 14.5l3 5l5 10q-4 6 -10 18.5t-15.5 59t-9.5 102.5q0 140 51.5 207.5
t138.5 67.5q31 0 57.5 -9t37.5 -17l10 -9q10 25 29 25q16 0 28.5 -12.5t12.5 -27.5q0 -7 -4 -15.5t-8 -14.5l-3 -5l-5 -10q4 -6 10 -18.5t15.5 -59t9.5 -102.5zM330 350l-155 -250q20 -20 60 -20q49 0 74.5 41t25.5 144z" />
    <glyph glyph-name="ugrave" unicode="&#xf9;" 
d="M420 485v-440q0 -19 -13 -32t-32 -13t-32 13t-13 32v10q-2 -3 -5 -7t-14 -15.5t-24 -20t-34 -15.5t-43 -7q-58 0 -99 47t-41 123v325q0 19 13 32t32 13t32 -13t13 -32v-325q0 -37 19.5 -58.5t50.5 -21.5q27 0 52 17.5t36 34.5l12 18v335q0 19 13 32t32 13t32 -13t13 -32z
M230 600l-110 60q-20 10 -20 45q0 19 14 32t36 13q7 0 14.5 -2.5t11.5 -5.5l4 -2l110 -60q20 -10 20 -45q0 -19 -14 -32t-36 -13q-7 0 -14.5 2.5t-11.5 5.5z" />
    <glyph glyph-name="uacute" unicode="&#xfa;" 
d="M420 485v-440q0 -19 -13 -32t-32 -13t-32 13t-13 32v10q-2 -3 -5 -7t-14 -15.5t-24 -20t-34 -15.5t-43 -7q-58 0 -99 47t-41 123v325q0 19 13 32t32 13t32 -13t13 -32v-325q0 -37 19.5 -58.5t50.5 -21.5q27 0 52 17.5t36 34.5l12 18v335q0 19 13 32t32 13t32 -13t13 -32z
M370 660l-110 -60q-15 -10 -30 -10q-22 0 -36 13t-14 32q0 16 5 27t10 14l5 4l110 60q15 10 30 10q22 0 36 -13t14 -32q0 -16 -5 -27t-10 -14z" />
    <glyph glyph-name="ucircumflex" unicode="&#xfb;" 
d="M420 485v-440q0 -19 -13 -32t-32 -13t-32 13t-13 32v10q-2 -3 -5 -7t-14 -15.5t-24 -20t-34 -15.5t-43 -7q-58 0 -99 47t-41 123v325q0 19 13 32t32 13t32 -13t13 -32v-325q0 -37 19.5 -58.5t50.5 -21.5q27 0 52 17.5t36 34.5l12 18v335q0 19 13 32t32 13t32 -13t13 -32z
M245 760q20 0 40 -20l80 -80q10 -10 10 -30q0 -15 -12.5 -27.5t-27.5 -12.5q-9 0 -16.5 2.5t-10.5 5.5l-3 2l-60 60l-60 -60q-10 -10 -30 -10q-15 0 -27.5 12.5t-12.5 27.5q0 9 2.5 16.5t4.5 10.5l3 3l80 80q20 20 40 20z" />
    <glyph glyph-name="udieresis" unicode="&#xfc;" 
d="M420 485v-440q0 -19 -13 -32t-32 -13t-32 13t-13 32v10q-2 -3 -5 -7t-14 -15.5t-24 -20t-34 -15.5t-43 -7q-58 0 -99 47t-41 123v325q0 19 13 32t32 13t32 -13t13 -32v-325q0 -37 19.5 -58.5t50.5 -21.5q27 0 52 17.5t36 34.5l12 18v335q0 19 13 32t32 13t32 -13t13 -32z
M165 710q23 0 39 -16t16 -39t-16 -39t-39 -16t-39 16t-16 39t16 39t39 16zM325 710q23 0 39 -16t16 -39t-16 -39t-39 -16t-39 16t-16 39t16 39t39 16z" />
    <glyph glyph-name="yacute" unicode="&#xfd;" horiz-adv-x="470" 
d="M190 -125v185l-105 95q-25 23 -25 50v280q0 19 13 32t32 13t32 -13t13 -32v-260l85 -80l85 80v260q0 19 13 32t32 13t32 -13t13 -32v-280q0 -25 -25 -50l-105 -95v-185q0 -19 -13 -32t-32 -13t-32 13t-13 32zM360 660l-110 -60q-15 -10 -30 -10q-22 0 -36 13t-14 32
q0 16 5 27t10 14l5 4l110 60q15 10 30 10q22 0 36 -13t14 -32q0 -16 -5 -27t-10 -14z" />
    <glyph glyph-name="thorn" unicode="&#xfe;" horiz-adv-x="500" 
d="M160 65v-190q0 -19 -13 -32t-32 -13t-32 13t-13 32v780q0 19 13 32t32 13t32 -13t13 -32v-190q2 3 5 7t14 15.5t24 20t34 15.5t43 7q73 0 121.5 -67t48.5 -198t-48.5 -198t-121.5 -67q-22 0 -43 6.5t-34 16t-23.5 19.5t-15.5 16zM160 370v-210l5 -7.5t13 -16.5t21 -21.5
t27.5 -17t33.5 -7.5q48 0 74 39.5t26 135.5t-26 135.5t-74 39.5q-27 0 -52 -17.5t-36 -34.5z" />
    <glyph glyph-name="ydieresis" unicode="&#xff;" horiz-adv-x="470" 
d="M190 -125v185l-105 95q-25 23 -25 50v280q0 19 13 32t32 13t32 -13t13 -32v-260l85 -80l85 80v260q0 19 13 32t32 13t32 -13t13 -32v-280q0 -25 -25 -50l-105 -95v-185q0 -19 -13 -32t-32 -13t-32 13t-13 32zM155 720q23 0 39 -16t16 -39t-16 -39t-39 -16t-39 16t-16 39
t16 39t39 16zM315 720q23 0 39 -16t16 -39t-16 -39t-39 -16t-39 16t-16 39t16 39t39 16z" />
    <glyph glyph-name="Amacron" unicode="&#x100;" horiz-adv-x="510" 
d="M25 75l180 585q5 16 18.5 28t31.5 12t31.5 -12t18.5 -28l180 -585q5 -15 5 -25q0 -22 -14 -36t-36 -14q-16 0 -27 7.5t-15 14.5l-3 8l-30 95h-220l-30 -95q-1 -3 -3.5 -8t-14 -13.5t-27.5 -8.5q-22 0 -36 14t-14 36zM175 225h160l-80 265zM350 810h-190q-19 0 -32 13
t-13 32t13 32t32 13h190q19 0 32 -13t13 -32t-13 -32t-32 -13z" />
    <glyph glyph-name="amacron" unicode="&#x101;" horiz-adv-x="455" 
d="M295 150v75q-40 15 -90 15q-37 0 -58.5 -21t-21.5 -59q0 -37 19.5 -58.5t50.5 -21.5q27 0 52 17.5t37 34.5zM385 370v-325q0 -19 -13 -32t-32 -13t-32 13t-13 32v10q-2 -3 -5 -7t-14 -15.5t-24 -20t-34 -15.5t-43 -7q-62 0 -101 45t-39 125q0 75 47.5 122.5t122.5 47.5
q22 0 44.5 -4t34.5 -8l11 -3v55q0 34 -23 57t-57 23q-16 0 -33.5 -5t-27.5 -10l-9 -5q-10 -5 -25 -5t-27.5 13.5t-12.5 31.5q0 11 7.5 21t14.5 15l8 4q50 30 105 30q75 0 122.5 -47.5t47.5 -122.5zM322 620h-190q-19 0 -32 13t-13 32t13 32t32 13h190q19 0 32 -13t13 -32
t-13 -32t-32 -13z" />
    <glyph glyph-name="Abreve" unicode="&#x102;" horiz-adv-x="510" 
d="M25 75l180 585q5 16 18.5 28t31.5 12t31.5 -12t18.5 -28l180 -585q5 -15 5 -25q0 -22 -14 -36t-36 -14q-16 0 -27 7.5t-15 14.5l-3 8l-30 95h-220l-30 -95q-1 -3 -3.5 -8t-14 -13.5t-27.5 -8.5q-22 0 -36 14t-14 36zM175 225h160l-80 265zM255 860q31 0 40 35q8 35 45 35
q19 0 32 -13t13 -32l-5 -25q-12 -37 -45.5 -63.5t-79.5 -26.5t-79.5 26.5t-45.5 63.5q-5 15 -5 25q0 19 13 32t32 13q37 0 45 -35q9 -35 40 -35z" />
    <glyph glyph-name="abreve" unicode="&#x103;" horiz-adv-x="455" 
d="M295 150v75q-40 15 -90 15q-37 0 -58.5 -21t-21.5 -59q0 -37 19.5 -58.5t50.5 -21.5q27 0 52 17.5t37 34.5zM385 370v-325q0 -19 -13 -32t-32 -13t-32 13t-13 32v10q-2 -3 -5 -7t-14 -15.5t-24 -20t-34 -15.5t-43 -7q-62 0 -101 45t-39 125q0 75 47.5 122.5t122.5 47.5
q22 0 44.5 -4t34.5 -8l11 -3v55q0 34 -23 57t-57 23q-16 0 -33.5 -5t-27.5 -10l-9 -5q-10 -5 -25 -5t-27.5 13.5t-12.5 31.5q0 11 7.5 21t14.5 15l8 4q50 30 105 30q75 0 122.5 -47.5t47.5 -122.5zM225 680q31 0 40 35q8 35 45 35q19 0 32 -13t13 -32l-5 -25
q-12 -37 -45.5 -63.5t-79.5 -26.5t-79.5 26.5t-45.5 63.5q-5 15 -5 25q0 19 13 32t32 13q37 0 45 -35q9 -35 40 -35z" />
    <glyph glyph-name="Aogonek" unicode="&#x104;" horiz-adv-x="510" 
d="M25 75l180 585q5 16 18.5 28t31.5 12t31.5 -12t18.5 -28l180 -585q5 -15 5 -25q0 -30 -30 -50q-80 -48 -80 -111q0 -11 9.5 -20.5t20.5 -9.5h25q40 0 40 -40t-40 -40h-25q-48 0 -79 29t-31 71q0 43 31.5 78.5t73.5 52.5l-40 115h-220l-30 -95q-1 -3 -3.5 -8t-14 -13.5
t-27.5 -8.5q-22 0 -36 14t-14 36zM175 225h160l-80 265z" />
    <glyph glyph-name="aogonek" unicode="&#x105;" horiz-adv-x="455" 
d="M385 370v-325q0 -27 -35 -45q-33 -17 -56.5 -46t-23.5 -64q0 -11 9.5 -20.5t20.5 -9.5h25q40 0 40 -40t-40 -40h-25q-48 0 -79 29t-31 71q0 43 32 79t83 56q-10 10 -10 30v10q-2 -3 -5 -7t-14 -15.5t-24 -20t-34 -15.5t-43 -7q-62 0 -101 45t-39 125q0 75 47.5 122.5
t122.5 47.5q22 0 44.5 -4t34.5 -8l11 -3v55q0 34 -23 57t-57 23q-16 0 -33.5 -5t-27.5 -10l-9 -5q-10 -5 -25 -5t-27.5 13.5t-12.5 31.5q0 11 7.5 21t14.5 15l8 4q50 30 105 30q75 0 122.5 -47.5t47.5 -122.5zM295 150v75q-40 15 -90 15q-37 0 -58.5 -21t-21.5 -59
q0 -37 19.5 -58.5t50.5 -21.5q27 0 52 17.5t37 34.5z" />
    <glyph glyph-name="Cacute" unicode="&#x106;" horiz-adv-x="505" 
d="M285 -10q-108 0 -166.5 83.5t-58.5 276.5t58.5 276.5t166.5 83.5q69 0 115.5 -33.5t59.5 -76.5q5 -15 5 -30q0 -22 -13 -36t-32 -14q-16 0 -27 7.5t-15 14.5l-3 8q-8 25 -31.5 42.5t-58.5 17.5q-62 0 -93.5 -56t-31.5 -204t31.5 -204t93.5 -56q74 0 100 70q1 3 3.5 8
t14 13.5t27.5 8.5q19 0 32 -14t13 -36l-5 -30q-17 -50 -64.5 -85t-120.5 -35zM397 840l-110 -60q-15 -10 -30 -10q-22 0 -36 13t-14 32q0 16 5 27t10 14l5 4l110 60q15 10 30 10q22 0 36 -13t14 -32q0 -16 -5 -27t-10 -14z" />
    <glyph glyph-name="cacute" unicode="&#x107;" horiz-adv-x="435" 
d="M140 265q0 -103 25.5 -144t74.5 -41q28 0 50 18t30 42q10 25 40 25q19 0 32 -13t13 -32l-5 -30q-45 -100 -160 -100q-87 0 -138.5 67.5t-51.5 207.5t51.5 207.5t138.5 67.5q110 0 150 -90q5 -10 5 -30q0 -19 -13 -32t-32 -13q-13 0 -23 6.5t-13 12.5l-4 6q-4 17 -25 33.5
t-45 16.5q-49 0 -74.5 -41t-25.5 -144zM342 660l-110 -60q-15 -10 -30 -10q-22 0 -36 13t-14 32q0 16 5 27t10 14l5 4l110 60q15 10 30 10q22 0 36 -13t14 -32q0 -16 -5 -27t-10 -14z" />
    <glyph glyph-name="Ccircumflex" unicode="&#x108;" horiz-adv-x="505" 
d="M285 -10q-108 0 -166.5 83.5t-58.5 276.5t58.5 276.5t166.5 83.5q69 0 115.5 -33.5t59.5 -76.5q5 -15 5 -30q0 -22 -13 -36t-32 -14q-16 0 -27 7.5t-15 14.5l-3 8q-8 25 -31.5 42.5t-58.5 17.5q-62 0 -93.5 -56t-31.5 -204t31.5 -204t93.5 -56q74 0 100 70q1 3 3.5 8
t14 13.5t27.5 8.5q19 0 32 -14t13 -36l-5 -30q-17 -50 -64.5 -85t-120.5 -35zM282 940q20 0 40 -20l80 -80q10 -10 10 -30q0 -15 -12.5 -27.5t-27.5 -12.5q-9 0 -16.5 2.5t-10.5 5.5l-3 2l-60 60l-60 -60q-10 -10 -30 -10q-15 0 -27.5 12.5t-12.5 27.5q0 9 2.5 16.5
t5.5 10.5l2 3l80 80q20 20 40 20z" />
    <glyph glyph-name="ccircumflex" unicode="&#x109;" horiz-adv-x="435" 
d="M140 265q0 -103 25.5 -144t74.5 -41q28 0 50 18t30 42q10 25 40 25q19 0 32 -13t13 -32l-5 -30q-45 -100 -160 -100q-87 0 -138.5 67.5t-51.5 207.5t51.5 207.5t138.5 67.5q110 0 150 -90q5 -10 5 -30q0 -19 -13 -32t-32 -13q-13 0 -23 6.5t-13 12.5l-4 6q-4 17 -25 33.5
t-45 16.5q-49 0 -74.5 -41t-25.5 -144zM237 760q20 0 40 -20l80 -80q10 -10 10 -30q0 -15 -12.5 -27.5t-27.5 -12.5q-9 0 -16.5 2.5t-10.5 5.5l-3 2l-60 60l-60 -60q-10 -10 -30 -10q-15 0 -27.5 12.5t-12.5 27.5q0 9 2.5 16.5t4.5 10.5l3 3l80 80q20 20 40 20z" />
    <glyph glyph-name="Ccaron" unicode="&#x10c;" horiz-adv-x="505" 
d="M285 -10q-108 0 -166.5 83.5t-58.5 276.5t58.5 276.5t166.5 83.5q69 0 115.5 -33.5t59.5 -76.5q5 -15 5 -30q0 -22 -13 -36t-32 -14q-16 0 -27 7.5t-15 14.5l-3 8q-8 25 -31.5 42.5t-58.5 17.5q-62 0 -93.5 -56t-31.5 -204t31.5 -204t93.5 -56q74 0 100 70q1 3 3.5 8
t14 13.5t27.5 8.5q19 0 32 -14t13 -36l-5 -30q-17 -50 -64.5 -85t-120.5 -35zM280 770q-20 0 -40 20l-80 80q-10 10 -10 30q0 15 12.5 27.5t27.5 12.5q9 0 16.5 -2.5t10.5 -5.5l3 -2l60 -60l60 60q10 10 30 10q15 0 27.5 -12.5t12.5 -27.5q0 -9 -2.5 -16.5t-5.5 -10.5l-2 -3
l-80 -80q-20 -20 -40 -20z" />
    <glyph glyph-name="ccaron" unicode="&#x10d;" horiz-adv-x="435" 
d="M140 265q0 -103 25.5 -144t74.5 -41q28 0 50 18t30 42q10 25 40 25q19 0 32 -13t13 -32l-5 -30q-45 -100 -160 -100q-87 0 -138.5 67.5t-51.5 207.5t51.5 207.5t138.5 67.5q110 0 150 -90q5 -10 5 -30q0 -19 -13 -32t-32 -13q-13 0 -23 6.5t-13 12.5l-4 6q-4 17 -25 33.5
t-45 16.5q-49 0 -74.5 -41t-25.5 -144zM235 590q-20 0 -40 20l-80 80q-10 10 -10 30q0 15 12.5 27.5t27.5 12.5q9 0 16.5 -2.5t10.5 -5.5l3 -2l60 -60l60 60q10 10 30 10q15 0 27.5 -12.5t12.5 -27.5q0 -9 -2.5 -16.5t-4.5 -10.5l-3 -3l-80 -80q-20 -20 -40 -20z" />
    <glyph glyph-name="Dcaron" unicode="&#x10e;" horiz-adv-x="540" 
d="M230 710q260 0 260 -340q0 -171 -100.5 -275.5t-259.5 -104.5q-22 0 -36 14t-14 36v610q0 19 13.5 32.5t36.5 17.5q40 10 100 10zM180 606v-516q210 48 210 280q0 121 -44 180.5t-116 59.5q-11 0 -23.5 -1t-19.5 -2zM250 770q-20 0 -40 20l-80 80q-10 10 -10 30
q0 15 12.5 27.5t27.5 12.5q9 0 16.5 -2.5t10.5 -5.5l3 -2l60 -60l60 60q10 10 30 10q15 0 27.5 -12.5t12.5 -27.5q0 -9 -2.5 -16.5t-5.5 -10.5l-2 -3l-80 -80q-20 -20 -40 -20z" />
    <glyph glyph-name="dcaron" unicode="&#x10f;" horiz-adv-x="580" 
d="M340 465v190q0 19 13 32t32 13t32 -13t13 -32v-610q0 -19 -13 -32t-32 -13t-32 13t-13 32v10q-2 -3 -5 -7t-14 -15.5t-24 -20t-34 -15.5t-43 -7q-73 0 -121.5 67.5t-48.5 202.5t48.5 202.5t121.5 67.5q36 0 66 -16.5t42 -32.5zM340 150v220l-5 7.5t-13 16.5t-21 21.5
t-27.5 17t-33.5 7.5q-49 0 -74.5 -40.5t-25.5 -139.5t25.5 -139.5t74.5 -40.5q27 0 52 17.5t36 34.5zM530 465q-15 0 -25 10.5t-10 24.5q0 8 10 33t10 47q0 8 -12.5 32t-12.5 43t14 32t36 13q25 0 42.5 -25.5t17.5 -74.5q0 -61 -23.5 -98t-46.5 -37z" />
    <glyph glyph-name="Dcroat" unicode="&#x110;" horiz-adv-x="560" 
d="M250 710q260 0 260 -340q0 -171 -100.5 -275.5t-259.5 -104.5q-22 0 -36 14t-14 36v270h-30q-19 0 -34.5 15.5t-15.5 34.5t15.5 34.5t34.5 15.5h30v240q0 19 14 32.5t36 17.5q40 10 100 10zM260 310h-60v-220q210 48 210 280q0 121 -44 180.5t-116 59.5q-11 0 -23.5 -1
t-19.5 -2l-7 -1v-196h60q19 0 34.5 -15.5t15.5 -34.5t-15.5 -34.5t-34.5 -15.5z" />
    <glyph glyph-name="dcroat" unicode="&#x111;" 
d="M330 530h-65q-19 0 -32 13t-13 32t13 32t32 13h65v35q0 19 13 32t32 13t32 -13t13 -32v-35h35q19 0 32 -13t13 -32t-13 -32t-32 -13h-35v-485q0 -19 -13 -32t-32 -13t-32 13t-13 32v10q-2 -3 -5 -7t-14 -15.5t-24 -20t-34 -15.5t-43 -7q-72 0 -121 64.5t-49 185.5
t49 185.5t121 64.5q22 0 43 -6.5t34 -16t23.5 -19.5t15.5 -16l4 -7v105zM330 150v180l-5 7.5t-13 16.5t-21 21.5t-27.5 17t-33.5 7.5q-49 0 -74.5 -34.5t-25.5 -125.5q0 -160 100 -160q27 0 52 17.5t36 34.5z" />
    <glyph glyph-name="Emacron" unicode="&#x112;" horiz-adv-x="440" 
d="M350 600h-170v-160h160q19 0 34.5 -15.5t15.5 -34.5t-15.5 -34.5t-34.5 -15.5h-160v-240h170q19 0 34.5 -15.5t15.5 -34.5t-15.5 -34.5t-34.5 -15.5h-220q-19 0 -34.5 15.5t-15.5 34.5v600q0 19 15.5 34.5t34.5 15.5h220q19 0 34.5 -15.5t15.5 -34.5t-15.5 -34.5
t-34.5 -15.5zM335 800h-190q-19 0 -32 13t-13 32t13 32t32 13h190q19 0 32 -13t13 -32t-13 -32t-32 -13z" />
    <glyph glyph-name="emacron" unicode="&#x113;" horiz-adv-x="465" 
d="M240 80q28 0 50 18t30 42q10 25 40 25q19 0 32 -13t13 -32l-5 -30q-45 -100 -160 -100q-87 0 -138.5 67.5t-51.5 207.5q0 139 50.5 207t134.5 68t134.5 -68.5t50.5 -211.5q0 -15 -12.5 -27.5t-27.5 -12.5h-240q7 -140 100 -140zM140 310h190q-4 71 -29.5 105.5
t-65.5 34.5t-65.5 -34.5t-29.5 -105.5zM325 620h-190q-19 0 -32 13t-13 32t13 32t32 13h190q19 0 32 -13t13 -32t-13 -32t-32 -13z" />
    <glyph glyph-name="Edotaccent" unicode="&#x116;" horiz-adv-x="440" 
d="M350 600h-170v-160h160q19 0 34.5 -15.5t15.5 -34.5t-15.5 -34.5t-34.5 -15.5h-160v-240h170q19 0 34.5 -15.5t15.5 -34.5t-15.5 -34.5t-34.5 -15.5h-220q-19 0 -34.5 15.5t-15.5 34.5v600q0 19 15.5 34.5t34.5 15.5h220q19 0 34.5 -15.5t15.5 -34.5t-15.5 -34.5
t-34.5 -15.5zM240 890q22 0 38.5 -16t16.5 -39t-16.5 -39t-38.5 -16t-38.5 16t-16.5 39t16.5 39t38.5 16z" />
    <glyph glyph-name="edotaccent" unicode="&#x117;" horiz-adv-x="465" 
d="M240 80q28 0 50 18t30 42q10 25 40 25q19 0 32 -13t13 -32l-5 -30q-45 -100 -160 -100q-87 0 -138.5 67.5t-51.5 207.5q0 139 50.5 207t134.5 68t134.5 -68.5t50.5 -211.5q0 -15 -12.5 -27.5t-27.5 -12.5h-240q7 -140 100 -140zM140 310h190q-4 71 -29.5 105.5
t-65.5 34.5t-65.5 -34.5t-29.5 -105.5zM230 720q22 0 38.5 -16t16.5 -39t-16.5 -39t-38.5 -16t-38.5 16t-16.5 39t16.5 39t38.5 16z" />
    <glyph glyph-name="Eogonek" unicode="&#x118;" horiz-adv-x="440" 
d="M280 0h-150q-19 0 -34.5 15.5t-15.5 34.5v600q0 19 15.5 34.5t34.5 15.5h220q19 0 34.5 -15.5t15.5 -34.5t-15.5 -34.5t-34.5 -15.5h-170v-160h160q19 0 34.5 -15.5t15.5 -34.5t-15.5 -34.5t-34.5 -15.5h-160v-240h170q19 0 34.5 -15.5t15.5 -34.5t-15.5 -34.5
t-34.5 -15.5l-10 -5t-21.5 -13.5t-27.5 -22.5t-21.5 -30.5t-9.5 -38.5q0 -11 9.5 -20.5t20.5 -9.5h25q40 0 40 -40t-40 -40h-25q-48 0 -79 29t-31 71q0 25 10.5 46.5t25 34.5t29 22.5t25.5 12.5z" />
    <glyph glyph-name="eogonek" unicode="&#x119;" horiz-adv-x="465" 
d="M240 80q28 0 50 18t30 42q10 25 40 25q19 0 32 -13t13 -32l-5 -30q-32 -70 -97 -91q-78 -43 -78 -109q0 -11 9.5 -20.5t20.5 -9.5h25q40 0 40 -40t-40 -40h-25q-48 0 -79 29t-31 71q0 39 21.5 68.5t49.5 43.5q-77 8 -121.5 75.5t-44.5 197.5q0 139 50.5 207t134.5 68
t134.5 -68.5t50.5 -211.5q0 -15 -12.5 -27.5t-27.5 -12.5h-240q7 -140 100 -140zM140 310h190q-4 71 -29.5 105.5t-65.5 34.5t-65.5 -34.5t-29.5 -105.5z" />
    <glyph glyph-name="Ecaron" unicode="&#x11a;" horiz-adv-x="440" 
d="M350 600h-170v-160h160q19 0 34.5 -15.5t15.5 -34.5t-15.5 -34.5t-34.5 -15.5h-160v-240h170q19 0 34.5 -15.5t15.5 -34.5t-15.5 -34.5t-34.5 -15.5h-220q-19 0 -34.5 15.5t-15.5 34.5v600q0 19 15.5 34.5t34.5 15.5h220q19 0 34.5 -15.5t15.5 -34.5t-15.5 -34.5
t-34.5 -15.5zM240 770q-20 0 -40 20l-80 80q-10 10 -10 30q0 15 12.5 27.5t27.5 12.5q9 0 16.5 -2.5t10.5 -5.5l3 -2l60 -60l60 60q10 10 30 10q15 0 27.5 -12.5t12.5 -27.5q0 -9 -2.5 -16.5t-5.5 -10.5l-2 -3l-80 -80q-20 -20 -40 -20z" />
    <glyph glyph-name="ecaron" unicode="&#x11b;" horiz-adv-x="465" 
d="M240 80q28 0 50 18t30 42q10 25 40 25q19 0 32 -13t13 -32l-5 -30q-45 -100 -160 -100q-87 0 -138.5 67.5t-51.5 207.5q0 139 50.5 207t134.5 68t134.5 -68.5t50.5 -211.5q0 -15 -12.5 -27.5t-27.5 -12.5h-240q7 -140 100 -140zM140 310h190q-4 71 -29.5 105.5
t-65.5 34.5t-65.5 -34.5t-29.5 -105.5zM235 590q-20 0 -40 20l-80 80q-10 10 -10 30q0 15 12.5 27.5t27.5 12.5q9 0 16.5 -2.5t10.5 -5.5l3 -2l60 -60l60 60q10 10 30 10q15 0 27.5 -12.5t12.5 -27.5q0 -9 -2.5 -16.5t-4.5 -10.5l-3 -3l-80 -80q-20 -20 -40 -20z" />
    <glyph glyph-name="Gbreve" unicode="&#x11e;" horiz-adv-x="540" 
d="M490 290v-50q0 -109 -61.5 -179.5t-143.5 -70.5q-108 0 -166.5 83.5t-58.5 276.5t58.5 276.5t166.5 83.5q69 0 115.5 -33.5t59.5 -76.5q5 -15 5 -30q0 -22 -13 -36t-32 -14q-16 0 -27 7.5t-15 14.5l-3 8q-8 25 -31.5 42.5t-58.5 17.5q-62 0 -93.5 -56t-31.5 -204
t31.5 -204t93.5 -56q44 0 74.5 39.5t30.5 110.5h-80q-19 0 -34.5 15.5t-15.5 34.5t15.5 34.5t34.5 15.5h130q19 0 34.5 -15.5t15.5 -34.5zM270 860q31 0 40 35q8 35 45 35q19 0 32 -13t13 -32l-5 -25q-12 -37 -45.5 -63.5t-79.5 -26.5t-79.5 26.5t-45.5 63.5q-5 15 -5 25
q0 19 13 32t32 13q37 0 45 -35q9 -35 40 -35z" />
    <glyph glyph-name="gbreve" unicode="&#x11f;" horiz-adv-x="500" 
d="M430 485v-440q0 -106 -52.5 -165.5t-137.5 -59.5q-115 0 -160 100q-5 10 -5 30q0 19 13 32t32 13q13 0 23 -6.5t13 -12.5l4 -6q8 -24 30 -42t50 -18q100 0 100 135v60q-2 -3 -5 -7t-14 -15.5t-24 -20t-34 -15.5t-43 -7q-72 0 -121 64.5t-49 185.5t49 185.5t121 64.5
q36 0 66 -16.5t42 -32.5l12 -16v10q0 19 13 32t32 13t32 -13t13 -32zM340 200v180l-5 7.5t-13 16.5t-21 21.5t-27.5 17t-33.5 7.5q-100 0 -100 -160t100 -160q27 0 52 17.5t36 34.5zM250 690q31 0 40 35q8 35 45 35q19 0 32 -13t13 -32l-5 -25q-12 -37 -45.5 -63.5
t-79.5 -26.5t-79.5 26.5t-45.5 63.5q-5 15 -5 25q0 19 13 32t32 13q37 0 45 -35q9 -35 40 -35z" />
    <glyph glyph-name="Gcommaaccent" unicode="&#x122;" horiz-adv-x="540" 
d="M490 290v-50q0 -109 -61.5 -179.5t-143.5 -70.5q-108 0 -166.5 83.5t-58.5 276.5t58.5 276.5t166.5 83.5q69 0 115.5 -33.5t59.5 -76.5q5 -15 5 -30q0 -22 -13 -36t-32 -14q-16 0 -27 7.5t-15 14.5l-3 8q-8 25 -31.5 42.5t-58.5 17.5q-62 0 -93.5 -56t-31.5 -204
t31.5 -204t93.5 -56q44 0 74.5 39.5t30.5 110.5h-80q-19 0 -34.5 15.5t-15.5 34.5t15.5 34.5t34.5 15.5h130q19 0 34.5 -15.5t15.5 -34.5zM280 -305q-15 0 -25 10.5t-10 24.5q0 8 10 33t10 47q0 8 -12.5 32t-12.5 43t14 32t36 13q25 0 42.5 -25.5t17.5 -74.5
q0 -61 -23.5 -98t-46.5 -37z" />
    <glyph glyph-name="gcommaaccent" unicode="&#x123;" horiz-adv-x="500" 
d="M255 835q15 0 25 -10.5t10 -24.5q0 -8 -10 -33t-10 -47q0 -8 12.5 -32t12.5 -43t-14 -32t-36 -13q-25 0 -42.5 25.5t-17.5 74.5q0 61 23.5 98t46.5 37zM430 485v-440q0 -106 -52.5 -165.5t-137.5 -59.5q-115 0 -160 100q-5 10 -5 30q0 19 13 32t32 13q13 0 23 -6.5
t13 -12.5l4 -6q8 -24 30 -42t50 -18q100 0 100 135v60q-2 -3 -5 -7t-14 -15.5t-24 -20t-34 -15.5t-43 -7q-72 0 -121 64.5t-49 185.5t49 185.5t121 64.5q36 0 66 -16.5t42 -32.5l12 -16v10q0 19 13 32t32 13t32 -13t13 -32zM340 200v180l-5 7.5t-13 16.5t-21 21.5t-27.5 17
t-33.5 7.5q-100 0 -100 -160t100 -160q27 0 52 17.5t36 34.5z" />
    <glyph glyph-name="Imacron" unicode="&#x12a;" horiz-adv-x="260" 
d="M180 650v-600q0 -19 -15.5 -34.5t-34.5 -15.5t-34.5 15.5t-15.5 34.5v600q0 19 15.5 34.5t34.5 15.5t34.5 -15.5t15.5 -34.5zM225 800h-190q-19 0 -32 13t-13 32t13 32t32 13h190q19 0 32 -13t13 -32t-13 -32t-32 -13z" />
    <glyph glyph-name="imacron" unicode="&#x12b;" horiz-adv-x="240" 
d="M75 45v440q0 19 13 32t32 13t32 -13t13 -32v-440q0 -19 -13 -32t-32 -13t-32 13t-13 32zM215 610h-190q-19 0 -32 13t-13 32t13 32t32 13h190q19 0 32 -13t13 -32t-13 -32t-32 -13z" />
    <glyph glyph-name="Iogonek" unicode="&#x12e;" horiz-adv-x="260" 
d="M180 650v-600q0 -36 -30 -45q-28 -17 -54 -47t-26 -67q0 -11 9.5 -20.5t20.5 -9.5h25q40 0 40 -40t-40 -40h-25q-48 0 -79 29t-31 71q0 28 12.5 52.5t31.5 41.5t33 26.5t27 15.5q-14 14 -14 33v600q0 19 15.5 34.5t34.5 15.5t34.5 -15.5t15.5 -34.5z" />
    <glyph glyph-name="iogonek" unicode="&#x12f;" horiz-adv-x="240" 
d="M75 45v440q0 19 13 32t32 13t32 -13t13 -32v-440q0 -22 -15 -35q-90 -56 -90 -120q0 -11 9.5 -20.5t20.5 -9.5h25q40 0 40 -40t-40 -40h-25q-48 0 -79 29t-31 71q0 46 33 80.5t73 54.5q-11 13 -11 30zM170 650q0 -19 -15.5 -34.5t-34.5 -15.5t-34.5 15.5t-15.5 34.5
t15.5 34.5t34.5 15.5t34.5 -15.5t15.5 -34.5z" />
    <glyph glyph-name="Idotaccent" unicode="&#x130;" horiz-adv-x="260" 
d="M180 650v-600q0 -19 -15.5 -34.5t-34.5 -15.5t-34.5 15.5t-15.5 34.5v600q0 19 15.5 34.5t34.5 15.5t34.5 -15.5t15.5 -34.5zM130 900q22 0 38.5 -16t16.5 -39t-16.5 -39t-38.5 -16t-38.5 16t-16.5 39t16.5 39t38.5 16z" />
    <glyph glyph-name="dotlessi" unicode="&#x131;" horiz-adv-x="240" 
d="M75 45v440q0 19 13 32t32 13t32 -13t13 -32v-440q0 -19 -13 -32t-32 -13t-32 13t-13 32z" />
    <glyph glyph-name="Kcommaaccent" unicode="&#x136;" horiz-adv-x="520" 
d="M360 390l135 -320q5 -10 5 -20q0 -22 -14 -36t-36 -14q-13 0 -24.5 7.5t-15.5 14.5l-5 8l-130 310h-95v-290q0 -19 -15.5 -34.5t-34.5 -15.5t-34.5 15.5t-15.5 34.5v600q0 19 15.5 34.5t34.5 15.5t34.5 -15.5t15.5 -34.5v-210h95l95 230q15 30 45 30q23 0 36.5 -14
t13.5 -36l-5 -20zM285 -295q-15 0 -25 10.5t-10 24.5q0 8 10 33t10 47q0 8 -12.5 32t-12.5 43t14 32t36 13q25 0 42.5 -25.5t17.5 -74.5q0 -61 -23.5 -98t-46.5 -37z" />
    <glyph glyph-name="kcommaaccent" unicode="&#x137;" horiz-adv-x="430" 
d="M240 330l70 170q1 3 3.5 8t13 13.5t23.5 8.5q19 0 32 -13t13 -32l-5 -25l-75 -175l90 -215q5 -15 5 -25q0 -19 -13 -32t-32 -13q-13 0 -23 7.5t-14 14.5l-3 8l-85 210h-80v-195q0 -19 -13 -32t-32 -13t-32 13t-13 32v610q0 19 13 32t32 13t32 -13t13 -32v-325h80z
M230 -305q-15 0 -25 10.5t-10 24.5q0 8 10 33t10 47q0 8 -12.5 32t-12.5 43t14 32t36 13q25 0 42.5 -25.5t17.5 -74.5q0 -61 -23.5 -98t-46.5 -37z" />
    <glyph glyph-name="Lacute" unicode="&#x139;" horiz-adv-x="400" 
d="M180 100h160q19 0 34.5 -15.5t15.5 -34.5t-15.5 -34.5t-34.5 -15.5h-210q-19 0 -34.5 15.5t-15.5 34.5v600q0 19 15.5 34.5t34.5 15.5t34.5 -15.5t15.5 -34.5v-550zM265 840l-110 -60q-15 -10 -30 -10q-22 0 -36 13t-14 32q0 16 5 27t10 14l5 4l110 60q15 10 30 10
q22 0 36 -13t14 -32q0 -16 -5 -27t-10 -14z" />
    <glyph glyph-name="lacute" unicode="&#x13a;" horiz-adv-x="230" 
d="M160 655v-610q0 -19 -13 -32t-32 -13t-32 13t-13 32v610q0 19 13 32t32 13t32 -13t13 -32zM250 840l-110 -60q-15 -10 -30 -10q-22 0 -36 13t-14 32q0 16 5 27t10 14l5 4l110 60q15 10 30 10q22 0 36 -13t14 -32q0 -16 -5 -27t-10 -14z" />
    <glyph glyph-name="Lcommaaccent" unicode="&#x13b;" horiz-adv-x="400" 
d="M180 100h160q19 0 34.5 -15.5t15.5 -34.5t-15.5 -34.5t-34.5 -15.5h-210q-19 0 -34.5 15.5t-15.5 34.5v600q0 19 15.5 34.5t34.5 15.5t34.5 -15.5t15.5 -34.5v-550zM225 -305q-15 0 -25 10.5t-10 24.5q0 8 10 33t10 47q0 8 -12.5 32t-12.5 43t14 32t36 13
q25 0 42.5 -25.5t17.5 -74.5q0 -61 -23.5 -98t-46.5 -37z" />
    <glyph glyph-name="lcommaaccent" unicode="&#x13c;" horiz-adv-x="230" 
d="M160 655v-610q0 -19 -13 -32t-32 -13t-32 13t-13 32v610q0 19 13 32t32 13t32 -13t13 -32zM110 -305q-15 0 -25 10.5t-10 24.5q0 8 10 33t10 47q0 8 -12.5 32t-12.5 43t14 32t36 13q25 0 42.5 -25.5t17.5 -74.5q0 -61 -23.5 -98t-46.5 -37z" />
    <glyph glyph-name="Lcaron" unicode="&#x13d;" horiz-adv-x="400" 
d="M180 100h160q19 0 34.5 -15.5t15.5 -34.5t-15.5 -34.5t-34.5 -15.5h-210q-19 0 -34.5 15.5t-15.5 34.5v600q0 19 15.5 34.5t34.5 15.5t34.5 -15.5t15.5 -34.5v-550zM285 465q-15 0 -25 10.5t-10 24.5q0 8 10 33t10 47q0 8 -12.5 32t-12.5 43t14 32t36 13q25 0 42.5 -25.5
t17.5 -74.5q0 -61 -23.5 -98t-46.5 -37z" />
    <glyph glyph-name="lcaron" unicode="&#x13e;" horiz-adv-x="310" 
d="M160 655v-610q0 -19 -13 -32t-32 -13t-32 13t-13 32v610q0 19 13 32t32 13t32 -13t13 -32zM260 465q-15 0 -25 10.5t-10 24.5q0 8 10 33t10 47q0 8 -12.5 32t-12.5 43t14 32t36 13q25 0 42.5 -25.5t17.5 -74.5q0 -61 -23.5 -98t-46.5 -37z" />
    <glyph glyph-name="Lslash" unicode="&#x141;" horiz-adv-x="425" 
d="M205 100h160q19 0 34.5 -15.5t15.5 -34.5t-15.5 -34.5t-34.5 -15.5h-210q-19 0 -34.5 15.5t-15.5 34.5v225l-25 -15q-10 -5 -25 -5q-18 0 -31.5 15.5t-13.5 34.5q0 11 6 21t12 14l7 5l70 40v265q0 19 15.5 34.5t34.5 15.5t34.5 -15.5t15.5 -34.5v-205l45 25q10 5 25 5
q18 0 31.5 -15.5t13.5 -34.5q0 -11 -6 -21t-12 -14l-7 -5l-90 -55v-230z" />
    <glyph glyph-name="lslash" unicode="&#x142;" horiz-adv-x="290" 
d="M190 655v-215l40 25q10 5 25 5q18 0 31.5 -15.5t13.5 -34.5q0 -11 -6 -21t-12 -15l-7 -4l-85 -50v-285q0 -19 -13 -32t-32 -13t-32 13t-13 32v230l-30 -15q-10 -5 -25 -5q-18 0 -31.5 15.5t-13.5 34.5q0 11 6 21t12 14l7 5l75 45v265q0 19 13 32t32 13t32 -13t13 -32z
" />
    <glyph glyph-name="Nacute" unicode="&#x143;" horiz-adv-x="590" 
d="M405 40l-225 420v-410q0 -19 -15.5 -34.5t-34.5 -15.5t-34.5 15.5t-15.5 34.5v600q0 19 15.5 34.5t34.5 15.5q33 0 55 -40l225 -420v410q0 19 15.5 34.5t34.5 15.5t34.5 -15.5t15.5 -34.5v-600q0 -19 -15.5 -34.5t-34.5 -15.5q-33 0 -55 40zM420 840l-110 -60
q-15 -10 -30 -10q-22 0 -36 13t-14 32q0 16 5 27t10 14l5 4l110 60q15 10 30 10q22 0 36 -13t14 -32q0 -16 -5 -27t-10 -14z" />
    <glyph glyph-name="nacute" unicode="&#x144;" 
d="M70 45v440q0 19 13 32t32 13t32 -13t13 -32v-10q2 3 5 7t14 15.5t24 20t34 15.5t43 7q58 0 99 -47t41 -123v-325q0 -19 -13 -32t-32 -13t-32 13t-13 32v325q0 37 -19.5 58.5t-50.5 21.5q-27 0 -52 -17.5t-36 -34.5l-12 -18v-335q0 -19 -13 -32t-32 -13t-32 13t-13 32z
M360 660l-110 -60q-15 -10 -30 -10q-22 0 -36 13t-14 32q0 16 5 27t10 14l5 4l110 60q15 10 30 10q22 0 36 -13t14 -32q0 -16 -5 -27t-10 -14z" />
    <glyph glyph-name="Ncommaaccent" unicode="&#x145;" horiz-adv-x="590" 
d="M405 40l-225 420v-410q0 -19 -15.5 -34.5t-34.5 -15.5t-34.5 15.5t-15.5 34.5v600q0 19 15.5 34.5t34.5 15.5q33 0 55 -40l225 -420v410q0 19 15.5 34.5t34.5 15.5t34.5 -15.5t15.5 -34.5v-600q0 -19 -15.5 -34.5t-34.5 -15.5q-33 0 -55 40zM290 -305q-15 0 -25 10.5
t-10 24.5q0 8 10 33t10 47q0 8 -12.5 32t-12.5 43t14 32t36 13q25 0 42.5 -25.5t17.5 -74.5q0 -61 -23.5 -98t-46.5 -37z" />
    <glyph glyph-name="ncommaaccent" unicode="&#x146;" 
d="M70 45v440q0 19 13 32t32 13t32 -13t13 -32v-10q2 3 5 7t14 15.5t24 20t34 15.5t43 7q58 0 99 -47t41 -123v-325q0 -19 -13 -32t-32 -13t-32 13t-13 32v325q0 37 -19.5 58.5t-50.5 21.5q-27 0 -52 -17.5t-36 -34.5l-12 -18v-335q0 -19 -13 -32t-32 -13t-32 13t-13 32z
M240 -305q-15 0 -25 10.5t-10 24.5q0 8 10 33t10 47q0 8 -12.5 32t-12.5 43t14 32t36 13q25 0 42.5 -25.5t17.5 -74.5q0 -61 -23.5 -98t-46.5 -37z" />
    <glyph glyph-name="Ncaron" unicode="&#x147;" horiz-adv-x="590" 
d="M405 40l-225 420v-410q0 -19 -15.5 -34.5t-34.5 -15.5t-34.5 15.5t-15.5 34.5v600q0 19 15.5 34.5t34.5 15.5q33 0 55 -40l225 -420v410q0 19 15.5 34.5t34.5 15.5t34.5 -15.5t15.5 -34.5v-600q0 -19 -15.5 -34.5t-34.5 -15.5q-33 0 -55 40zM295 770q-20 0 -40 20l-80 80
q-10 10 -10 30q0 15 12.5 27.5t27.5 12.5q9 0 16.5 -2.5t10.5 -5.5l3 -2l60 -60l60 60q10 10 30 10q15 0 27.5 -12.5t12.5 -27.5q0 -9 -2.5 -16.5t-4.5 -10.5l-3 -3l-80 -80q-20 -20 -40 -20z" />
    <glyph glyph-name="ncaron" unicode="&#x148;" 
d="M70 45v440q0 19 13 32t32 13t32 -13t13 -32v-10q2 3 5 7t14 15.5t24 20t34 15.5t43 7q58 0 99 -47t41 -123v-325q0 -19 -13 -32t-32 -13t-32 13t-13 32v325q0 37 -19.5 58.5t-50.5 21.5q-27 0 -52 -17.5t-36 -34.5l-12 -18v-335q0 -19 -13 -32t-32 -13t-32 13t-13 32z
M245 590q-20 0 -40 20l-80 80q-10 10 -10 30q0 15 12.5 27.5t27.5 12.5q9 0 16.5 -2.5t10.5 -5.5l3 -2l60 -60l60 60q10 10 30 10q15 0 27.5 -12.5t12.5 -27.5q0 -9 -2.5 -16.5t-4.5 -10.5l-3 -3l-80 -80q-20 -20 -40 -20z" />
    <glyph glyph-name="Omacron" unicode="&#x14c;" horiz-adv-x="570" 
d="M410 350q0 148 -31.5 204t-93.5 56t-93.5 -56t-31.5 -204t31.5 -204t93.5 -56t93.5 56t31.5 204zM510 350q0 -193 -58.5 -276.5t-166.5 -83.5t-166.5 83.5t-58.5 276.5t58.5 276.5t166.5 83.5t166.5 -83.5t58.5 -276.5zM380 800h-190q-19 0 -32 13t-13 32t13 32t32 13
h190q19 0 32 -13t13 -32t-13 -32t-32 -13z" />
    <glyph glyph-name="omacron" unicode="&#x14d;" horiz-adv-x="480" 
d="M240 80q49 0 74.5 41t25.5 144t-25.5 144t-74.5 41t-74.5 -41t-25.5 -144t25.5 -144t74.5 -41zM240 -10q-87 0 -138.5 67.5t-51.5 207.5t51.5 207.5t138.5 67.5t138.5 -67.5t51.5 -207.5t-51.5 -207.5t-138.5 -67.5zM335 620h-190q-19 0 -32 13t-13 32t13 32t32 13h190
q19 0 32 -13t13 -32t-13 -32t-32 -13z" />
    <glyph glyph-name="Ohungarumlaut" unicode="&#x150;" horiz-adv-x="570" 
d="M410 350q0 148 -31.5 204t-93.5 56t-93.5 -56t-31.5 -204t31.5 -204t93.5 -56t93.5 56t31.5 204zM510 350q0 -193 -58.5 -276.5t-166.5 -83.5t-166.5 83.5t-58.5 276.5t58.5 276.5t166.5 83.5t166.5 -83.5t58.5 -276.5zM170 845l60 80q10 15 30 15q22 0 36 -14t14 -36
q0 -4 -2.5 -10.5t-5.5 -10.5l-2 -4l-60 -80q-10 -15 -30 -15q-22 0 -36 14t-14 36q0 4 2.5 10.5t5.5 10.5zM325 845l60 80q10 15 30 15q23 0 36.5 -14t13.5 -36q0 -4 -2.5 -10.5t-4.5 -10.5l-3 -4l-60 -80q-10 -15 -30 -15q-23 0 -36.5 14t-13.5 36q0 4 2.5 10.5t4.5 10.5z
" />
    <glyph glyph-name="ohungarumlaut" unicode="&#x151;" horiz-adv-x="480" 
d="M240 80q49 0 74.5 41t25.5 144t-25.5 144t-74.5 41t-74.5 -41t-25.5 -144t25.5 -144t74.5 -41zM240 -10q-87 0 -138.5 67.5t-51.5 207.5t51.5 207.5t138.5 67.5t138.5 -67.5t51.5 -207.5t-51.5 -207.5t-138.5 -67.5zM130 665l60 80q10 15 30 15q22 0 36 -14t14 -36
q0 -4 -2.5 -10.5t-5.5 -10.5l-2 -4l-60 -80q-10 -15 -30 -15q-22 0 -36 14t-14 36q0 4 2.5 10.5t5.5 10.5zM285 665l60 80q10 15 30 15q23 0 36.5 -14t13.5 -36q0 -4 -2.5 -10.5t-4.5 -10.5l-3 -4l-60 -80q-10 -15 -30 -15q-23 0 -36.5 14t-13.5 36q0 4 2.5 10.5t4.5 10.5z
" />
    <glyph glyph-name="OE" unicode="&#x152;" horiz-adv-x="700" 
d="M610 600h-170v-160h160q19 0 34.5 -15.5t15.5 -34.5t-15.5 -34.5t-34.5 -15.5h-160v-240h170q19 0 34.5 -15.5t15.5 -34.5t-15.5 -34.5t-34.5 -15.5h-325q-225 0 -225 350t225 350h325q19 0 34.5 -15.5t15.5 -34.5t-15.5 -34.5t-34.5 -15.5zM160 350q0 -96 16.5 -153
t42.5 -77t66 -20h55v500h-55q-40 0 -66 -20t-42.5 -77t-16.5 -153z" />
    <glyph glyph-name="oe" unicode="&#x153;" horiz-adv-x="755" 
d="M240 80q49 0 74.5 41t25.5 144t-25.5 144t-74.5 41t-74.5 -41t-25.5 -144t25.5 -144t74.5 -41zM240 540q28 0 53 -8t41 -20t28.5 -24t17.5 -20l5 -8l5.5 8.5t16.5 19.5t28 24.5t39 19t51 8.5q84 0 134.5 -68.5t50.5 -211.5q0 -15 -12.5 -27.5t-27.5 -12.5h-240
q7 -140 100 -140q28 0 50 18t30 42q10 25 40 25q19 0 32 -13t13 -32l-5 -30q-45 -100 -160 -100q-28 0 -53 8t-41 20t-28.5 24t-17.5 20l-5 8l-5.5 -8.5t-16.5 -19.5t-28.5 -24.5t-41 -19t-53.5 -8.5q-87 0 -138.5 67.5t-51.5 207.5t51.5 207.5t138.5 67.5zM430 310h190
q-4 71 -29.5 105.5t-65.5 34.5t-65.5 -34.5t-29.5 -105.5z" />
    <glyph glyph-name="Racute" unicode="&#x154;" horiz-adv-x="530" 
d="M240 710q104 0 167 -59.5t63 -150.5q0 -41 -10 -75t-24 -53.5t-27.5 -33t-23.5 -18.5l-10 -5l105 -245q5 -10 5 -20q0 -22 -13.5 -36t-36.5 -14q-13 0 -24.5 7.5t-16.5 14.5l-4 8l-105 245q-55 -15 -105 -15v-210q0 -19 -15.5 -34.5t-34.5 -15.5t-34.5 15.5t-15.5 34.5
v600q0 19 13.5 32.5t36.5 17.5q50 10 110 10zM180 605v-245q101 7 145.5 42t44.5 98q0 46 -36 78t-94 32zM360 840l-110 -60q-15 -10 -30 -10q-22 0 -36 13t-14 32q0 16 5 27t10 14l5 4l110 60q15 10 30 10q22 0 36 -13t14 -32q0 -16 -5 -27t-10 -14z" />
    <glyph glyph-name="racute" unicode="&#x155;" horiz-adv-x="330" 
d="M280 440h-20q-27 0 -52 -15t-36 -30l-12 -15v-335q0 -19 -13 -32t-32 -13t-32 13t-13 32v440q0 19 13 32t32 13t32 -13t13 -32v-10q2 3 5 7t14 15.5t24 20t34 15.5t43 7t36 -14t14 -36t-14 -36t-36 -14zM310 660l-110 -60q-15 -10 -30 -10q-22 0 -36 13t-14 32q0 16 5 27
t10 14l5 4l110 60q15 10 30 10q22 0 36 -13t14 -32q0 -16 -5 -27t-10 -14z" />
    <glyph glyph-name="Rcommaaccent" unicode="&#x156;" horiz-adv-x="530" 
d="M240 710q104 0 167 -59.5t63 -150.5q0 -41 -10 -75t-24 -53.5t-27.5 -33t-23.5 -18.5l-10 -5l105 -245q5 -10 5 -20q0 -22 -13.5 -36t-36.5 -14q-13 0 -24.5 7.5t-16.5 14.5l-4 8l-105 245q-55 -15 -105 -15v-210q0 -19 -15.5 -34.5t-34.5 -15.5t-34.5 15.5t-15.5 34.5
v600q0 19 13.5 32.5t36.5 17.5q50 10 110 10zM180 605v-245q101 7 145.5 42t44.5 98q0 46 -36 78t-94 32zM270 -305q-15 0 -25 10.5t-10 24.5q0 8 10 33t10 47q0 8 -12.5 32t-12.5 43t14 32t36 13q25 0 42.5 -25.5t17.5 -74.5q0 -61 -23.5 -98t-46.5 -37z" />
    <glyph glyph-name="rcommaaccent" unicode="&#x157;" horiz-adv-x="330" 
d="M280 440h-20q-27 0 -52 -15t-36 -30l-12 -15v-335q0 -19 -13 -32t-32 -13t-32 13t-13 32v440q0 19 13 32t32 13t32 -13t13 -32v-10q2 3 5 7t14 15.5t24 20t34 15.5t43 7t36 -14t14 -36t-14 -36t-36 -14zM110 -305q-15 0 -25 10.5t-10 24.5q0 8 10 33t10 47q0 8 -12.5 32
t-12.5 43t14 32t36 13q25 0 42.5 -25.5t17.5 -74.5q0 -61 -23.5 -98t-46.5 -37z" />
    <glyph glyph-name="Rcaron" unicode="&#x158;" horiz-adv-x="530" 
d="M240 710q104 0 167 -59.5t63 -150.5q0 -41 -10 -75t-24 -53.5t-27.5 -33t-23.5 -18.5l-10 -5l105 -245q5 -10 5 -20q0 -22 -13.5 -36t-36.5 -14q-13 0 -24.5 7.5t-16.5 14.5l-4 8l-105 245q-55 -15 -105 -15v-210q0 -19 -15.5 -34.5t-34.5 -15.5t-34.5 15.5t-15.5 34.5
v600q0 19 13.5 32.5t36.5 17.5q50 10 110 10zM180 605v-245q101 7 145.5 42t44.5 98q0 46 -36 78t-94 32zM265 770q-20 0 -40 20l-80 80q-10 10 -10 30q0 15 12.5 27.5t27.5 12.5q9 0 16.5 -2.5t10.5 -5.5l3 -2l60 -60l60 60q10 10 30 10q15 0 27.5 -12.5t12.5 -27.5
q0 -9 -2.5 -16.5t-4.5 -10.5l-3 -3l-80 -80q-20 -20 -40 -20z" />
    <glyph glyph-name="rcaron" unicode="&#x159;" horiz-adv-x="330" 
d="M280 440h-20q-27 0 -52 -15t-36 -30l-12 -15v-335q0 -19 -13 -32t-32 -13t-32 13t-13 32v440q0 19 13 32t32 13t32 -13t13 -32v-10q2 3 5 7t14 15.5t24 20t34 15.5t43 7t36 -14t14 -36t-14 -36t-36 -14zM195 590q-20 0 -40 20l-80 80q-10 10 -10 30q0 15 12.5 27.5
t27.5 12.5q9 0 16.5 -2.5t10.5 -5.5l3 -2l60 -60l60 60q10 10 30 10q15 0 27.5 -12.5t12.5 -27.5q0 -9 -2.5 -16.5t-4.5 -10.5l-3 -3l-80 -80q-20 -20 -40 -20z" />
    <glyph glyph-name="Sacute" unicode="&#x15a;" horiz-adv-x="480" 
d="M50 510q0 88 58 144t142 56q69 0 115.5 -33.5t59.5 -76.5q5 -15 5 -30q0 -22 -13 -36t-32 -14q-16 0 -27 7.5t-14 14.5l-4 8q-8 25 -31.5 42.5t-58.5 17.5q-45 0 -72.5 -27.5t-27.5 -72.5q0 -28 16 -48.5t41.5 -33t56.5 -23.5t62 -26.5t56.5 -36.5t41.5 -57t16 -85
q0 -90 -60 -150t-150 -60q-73 0 -120.5 35t-64.5 85q-5 15 -5 30q0 22 13 36t32 14q16 0 27 -7.5t14 -14.5l4 -8q26 -70 100 -70q49 0 79.5 30.5t30.5 79.5q0 28 -16 48.5t-41.5 33t-56.5 23.5t-62 26.5t-56.5 36.5t-41.5 57t-16 85zM355 840l-110 -60q-15 -10 -30 -10
q-22 0 -36 13t-14 32q0 16 5 27t10 14l5 4l110 60q15 10 30 10q22 0 36 -13t14 -32q0 -16 -5 -27t-10 -14z" />
    <glyph glyph-name="sacute" unicode="&#x15b;" horiz-adv-x="415" 
d="M210 540q110 0 150 -90q5 -10 5 -30q0 -19 -13 -32t-32 -13q-13 0 -23 6.5t-13 12.5l-4 6q-4 17 -25 33.5t-45 16.5q-30 0 -50 -20t-20 -50q0 -18 17.5 -33t43.5 -24t56.5 -23t56.5 -29.5t43.5 -44t17.5 -66.5q0 -75 -47.5 -122.5t-122.5 -47.5q-115 0 -160 100
q-5 10 -5 30q0 19 13 32t32 13q13 0 23 -6.5t14 -12.5l3 -6q8 -24 30 -42t50 -18q37 0 58.5 21t21.5 59q0 22 -24 38t-58.5 28.5t-69.5 29t-59 48.5t-24 76q0 71 44.5 115.5t115.5 44.5zM322 660l-110 -60q-15 -10 -30 -10q-22 0 -36 13t-14 32q0 16 5 27t10 14l5 4l110 60
q15 10 30 10q22 0 36 -13t14 -32q0 -16 -5 -27t-10 -14z" />
    <glyph glyph-name="Scedilla" unicode="&#x15e;" horiz-adv-x="480" 
d="M190 -50l19 41q-65 6 -107 39.5t-57 79.5q-5 15 -5 30q0 22 13 36t32 14q16 0 27 -7.5t14 -14.5l4 -8q26 -70 100 -70q49 0 79.5 30.5t30.5 79.5q0 28 -16 48.5t-41.5 33t-56.5 23.5t-62 26.5t-56.5 36.5t-41.5 57t-16 85q0 88 58 144t142 56q69 0 115.5 -33.5
t59.5 -76.5q5 -15 5 -30q0 -22 -13 -36t-32 -14q-16 0 -27 7.5t-14 14.5l-4 8q-8 25 -31.5 42.5t-58.5 17.5q-45 0 -72.5 -27.5t-27.5 -72.5q0 -28 16 -48.5t41.5 -33t56.5 -23.5t62 -26.5t56.5 -36.5t41.5 -57t16 -85q0 -77 -45.5 -134t-118.5 -71l-21 -45q4 0 10 -1.5
t21.5 -7.5t27.5 -14.5t21.5 -26.5t9.5 -40q0 -42 -31 -71t-79 -29h-35q-40 0 -40 40t40 40h35q7 0 13.5 6t6.5 14t-6.5 14t-13.5 6h-20q-40 0 -40 30q0 4 3.5 14t7.5 18z" />
    <glyph glyph-name="scedilla" unicode="&#x15f;" horiz-adv-x="415" 
d="M157 -50l19 42q-92 10 -131 98q-5 10 -5 30q0 19 13 32t32 13q13 0 23 -6.5t14 -12.5l3 -6q8 -24 30 -42t50 -18q37 0 58.5 21t21.5 59q0 22 -24 38t-58.5 28.5t-69.5 29t-59 48.5t-24 76q0 71 44.5 115.5t115.5 44.5q110 0 150 -90q5 -10 5 -30q0 -19 -13 -32t-32 -13
q-13 0 -23 6.5t-13 12.5l-4 6q-4 17 -25 33.5t-45 16.5q-30 0 -50 -20t-20 -50q0 -18 17.5 -33t43.5 -24t56.5 -23t56.5 -29.5t43.5 -44t17.5 -66.5q0 -65 -36 -110t-96 -56l-21 -44q4 0 10 -1.5t21.5 -7.5t27.5 -14.5t21.5 -26.5t9.5 -40q0 -42 -31 -71t-79 -29h-35
q-40 0 -40 40t40 40h35q8 0 14 6t6 14t-6 14t-14 6h-20q-40 0 -40 30q0 4 4 14t8 18z" />
    <glyph glyph-name="Scaron" unicode="&#x160;" horiz-adv-x="480" 
d="M50 510q0 88 58 144t142 56q69 0 115.5 -33.5t59.5 -76.5q5 -15 5 -30q0 -22 -13 -36t-32 -14q-16 0 -27 7.5t-14 14.5l-4 8q-8 25 -31.5 42.5t-58.5 17.5q-45 0 -72.5 -27.5t-27.5 -72.5q0 -28 16 -48.5t41.5 -33t56.5 -23.5t62 -26.5t56.5 -36.5t41.5 -57t16 -85
q0 -90 -60 -150t-150 -60q-73 0 -120.5 35t-64.5 85q-5 15 -5 30q0 22 13 36t32 14q16 0 27 -7.5t14 -14.5l4 -8q26 -70 100 -70q49 0 79.5 30.5t30.5 79.5q0 28 -16 48.5t-41.5 33t-56.5 23.5t-62 26.5t-56.5 36.5t-41.5 57t-16 85zM240 770q-20 0 -40 20l-80 80
q-10 10 -10 30q0 15 12.5 27.5t27.5 12.5q9 0 16.5 -2.5t10.5 -5.5l3 -2l60 -60l60 60q10 10 30 10q15 0 27.5 -12.5t12.5 -27.5q0 -9 -2.5 -16.5t-5.5 -10.5l-2 -3l-80 -80q-20 -20 -40 -20z" />
    <glyph glyph-name="scaron" unicode="&#x161;" horiz-adv-x="415" 
d="M210 540q110 0 150 -90q5 -10 5 -30q0 -19 -13 -32t-32 -13q-13 0 -23 6.5t-13 12.5l-4 6q-4 17 -25 33.5t-45 16.5q-30 0 -50 -20t-20 -50q0 -18 17.5 -33t43.5 -24t56.5 -23t56.5 -29.5t43.5 -44t17.5 -66.5q0 -75 -47.5 -122.5t-122.5 -47.5q-115 0 -160 100
q-5 10 -5 30q0 19 13 32t32 13q13 0 23 -6.5t14 -12.5l3 -6q8 -24 30 -42t50 -18q37 0 58.5 21t21.5 59q0 22 -24 38t-58.5 28.5t-69.5 29t-59 48.5t-24 76q0 71 44.5 115.5t115.5 44.5zM207 590q-20 0 -40 20l-80 80q-10 10 -10 30q0 15 12.5 27.5t27.5 12.5q9 0 16.5 -2.5
t10.5 -5.5l3 -2l60 -60l60 60q10 10 30 10q15 0 27.5 -12.5t12.5 -27.5q0 -9 -2.5 -16.5t-4.5 -10.5l-3 -3l-80 -80q-20 -20 -40 -20z" />
    <glyph glyph-name="Tcommaaccent" unicode="&#x162;" horiz-adv-x="420" 
d="M360 600h-100v-550q0 -19 -15.5 -34.5t-34.5 -15.5t-34.5 15.5t-15.5 34.5v550h-100q-19 0 -34.5 15.5t-15.5 34.5t15.5 34.5t34.5 15.5h300q19 0 34.5 -15.5t15.5 -34.5t-15.5 -34.5t-34.5 -15.5zM205 -305q-15 0 -25 10.5t-10 24.5q0 8 10 33t10 47q0 8 -12.5 32
t-12.5 43t14 32t36 13q25 0 42.5 -25.5t17.5 -74.5q0 -61 -23.5 -98t-46.5 -37z" />
    <glyph glyph-name="tcommaaccent" unicode="&#x163;" horiz-adv-x="335" 
d="M255 440h-65v-270q0 -90 80 -90q19 0 32 -13t13 -32t-13 -32t-32 -13q-170 0 -170 180v270h-35q-19 0 -32 13t-13 32t13 32t32 13h35v105q0 19 13 32t32 13t32 -13t13 -32v-105h65q19 0 32 -13t13 -32t-13 -32t-32 -13zM202 -305q-15 0 -25 10.5t-10 24.5q0 8 10 33
t10 47q0 8 -12.5 32t-12.5 43t14 32t36 13q25 0 42.5 -25.5t17.5 -74.5q0 -61 -23.5 -98t-46.5 -37z" />
    <glyph glyph-name="Tcaron" unicode="&#x164;" horiz-adv-x="420" 
d="M360 600h-100v-550q0 -19 -15.5 -34.5t-34.5 -15.5t-34.5 15.5t-15.5 34.5v550h-100q-19 0 -34.5 15.5t-15.5 34.5t15.5 34.5t34.5 15.5h300q19 0 34.5 -15.5t15.5 -34.5t-15.5 -34.5t-34.5 -15.5zM210 770q-20 0 -40 20l-80 80q-10 10 -10 30q0 15 12.5 27.5t27.5 12.5
q9 0 16.5 -2.5t10.5 -5.5l3 -2l60 -60l60 60q10 10 30 10q15 0 27.5 -12.5t12.5 -27.5q0 -9 -2.5 -16.5t-5.5 -10.5l-2 -3l-80 -80q-20 -20 -40 -20z" />
    <glyph glyph-name="tcaron" unicode="&#x165;" horiz-adv-x="425" 
d="M255 440h-65v-270q0 -90 80 -90q19 0 32 -13t13 -32t-13 -32t-32 -13q-170 0 -170 180v270h-35q-19 0 -32 13t-13 32t13 32t32 13h35v105q0 19 13 32t32 13t32 -13t13 -32v-105h65q19 0 32 -13t13 -32t-13 -32t-32 -13zM375 465q-15 0 -25 10.5t-10 24.5q0 8 10 33t10 47
q0 8 -12.5 32t-12.5 43t14 32t36 13q25 0 42.5 -25.5t17.5 -74.5q0 -61 -23.5 -98t-46.5 -37z" />
    <glyph glyph-name="Umacron" unicode="&#x16a;" horiz-adv-x="560" 
d="M280 90q46 0 78 34t32 86v440q0 19 15.5 34.5t34.5 15.5t34.5 -15.5t15.5 -34.5v-440q0 -97 -59.5 -158.5t-150.5 -61.5t-150.5 61.5t-59.5 158.5v440q0 19 15.5 34.5t34.5 15.5t34.5 -15.5t15.5 -34.5v-440q0 -52 32 -86t78 -34zM375 800h-190q-19 0 -32 13t-13 32
t13 32t32 13h190q19 0 32 -13t13 -32t-13 -32t-32 -13z" />
    <glyph glyph-name="umacron" unicode="&#x16b;" 
d="M420 485v-440q0 -19 -13 -32t-32 -13t-32 13t-13 32v10q-2 -3 -5 -7t-14 -15.5t-24 -20t-34 -15.5t-43 -7q-58 0 -99 47t-41 123v325q0 19 13 32t32 13t32 -13t13 -32v-325q0 -37 19.5 -58.5t50.5 -21.5q27 0 52 17.5t36 34.5l12 18v335q0 19 13 32t32 13t32 -13t13 -32z
M340 620h-190q-19 0 -32 13t-13 32t13 32t32 13h190q19 0 32 -13t13 -32t-13 -32t-32 -13z" />
    <glyph glyph-name="Uring" unicode="&#x16e;" horiz-adv-x="560" 
d="M280 90q46 0 78 34t32 86v440q0 19 15.5 34.5t34.5 15.5t34.5 -15.5t15.5 -34.5v-440q0 -97 -59.5 -158.5t-150.5 -61.5t-150.5 61.5t-59.5 158.5v440q0 19 15.5 34.5t34.5 15.5t34.5 -15.5t15.5 -34.5v-440q0 -52 32 -86t78 -34zM380 870q0 -41 -29.5 -70.5t-70.5 -29.5
t-70.5 29.5t-29.5 70.5t29.5 70.5t70.5 29.5t70.5 -29.5t29.5 -70.5zM310 870q0 11 -9.5 20.5t-20.5 9.5t-20.5 -9.5t-9.5 -20.5t9.5 -20.5t20.5 -9.5t20.5 9.5t9.5 20.5z" />
    <glyph glyph-name="uring" unicode="&#x16f;" 
d="M420 485v-440q0 -19 -13 -32t-32 -13t-32 13t-13 32v10q-2 -3 -5 -7t-14 -15.5t-24 -20t-34 -15.5t-43 -7q-58 0 -99 47t-41 123v325q0 19 13 32t32 13t32 -13t13 -32v-325q0 -37 19.5 -58.5t50.5 -21.5q27 0 52 17.5t36 34.5l12 18v335q0 19 13 32t32 13t32 -13t13 -32z
M345 690q0 -41 -29.5 -70.5t-70.5 -29.5t-70.5 29.5t-29.5 70.5t29.5 70.5t70.5 29.5t70.5 -29.5t29.5 -70.5zM275 690q0 11 -9.5 20.5t-20.5 9.5t-20.5 -9.5t-9.5 -20.5t9.5 -20.5t20.5 -9.5t20.5 9.5t9.5 20.5z" />
    <glyph glyph-name="Uhungarumlaut" unicode="&#x170;" horiz-adv-x="560" 
d="M280 90q46 0 78 34t32 86v440q0 19 15.5 34.5t34.5 15.5t34.5 -15.5t15.5 -34.5v-440q0 -97 -59.5 -158.5t-150.5 -61.5t-150.5 61.5t-59.5 158.5v440q0 19 15.5 34.5t34.5 15.5t34.5 -15.5t15.5 -34.5v-440q0 -52 32 -86t78 -34zM160 845l60 80q10 15 30 15q22 0 36 -14
t14 -36q0 -4 -2.5 -10.5t-5.5 -10.5l-2 -4l-60 -80q-10 -15 -30 -15q-22 0 -36 14t-14 36q0 4 2.5 10.5t5.5 10.5zM315 845l60 80q10 15 30 15q23 0 36.5 -14t13.5 -36q0 -4 -2.5 -10.5t-4.5 -10.5l-3 -4l-60 -80q-10 -15 -30 -15q-23 0 -36.5 14t-13.5 36q0 4 2.5 10.5
t4.5 10.5z" />
    <glyph glyph-name="uhungarumlaut" unicode="&#x171;" 
d="M420 485v-440q0 -19 -13 -32t-32 -13t-32 13t-13 32v10q-2 -3 -5 -7t-14 -15.5t-24 -20t-34 -15.5t-43 -7q-58 0 -99 47t-41 123v325q0 19 13 32t32 13t32 -13t13 -32v-325q0 -37 19.5 -58.5t50.5 -21.5q27 0 52 17.5t36 34.5l12 18v335q0 19 13 32t32 13t32 -13t13 -32z
M120 665l60 80q10 15 30 15q22 0 36 -14t14 -36q0 -4 -2.5 -10.5t-5.5 -10.5l-2 -4l-60 -80q-10 -15 -30 -15q-22 0 -36 14t-14 36q0 4 2.5 10.5t5.5 10.5zM275 665l60 80q10 15 30 15q23 0 36.5 -14t13.5 -36q0 -4 -2.5 -10.5t-4.5 -10.5l-3 -4l-60 -80q-10 -15 -30 -15
q-23 0 -36.5 14t-13.5 36q0 4 2.5 10.5t4.5 10.5z" />
    <glyph glyph-name="Uogonek" unicode="&#x172;" horiz-adv-x="560" 
d="M280 90q46 0 78 34t32 86v440q0 19 15.5 34.5t34.5 15.5t34.5 -15.5t15.5 -34.5v-440q0 -69 -31 -121t-84 -78q-28 -16 -57.5 -50.5t-29.5 -70.5q0 -11 9.5 -20.5t20.5 -9.5h25q40 0 40 -40t-40 -40h-25q-48 0 -79 29t-31 71q0 32 18.5 62t42.5 48q-87 4 -143 65t-56 155
v440q0 19 15.5 34.5t34.5 15.5t34.5 -15.5t15.5 -34.5v-440q0 -52 32 -86t78 -34z" />
    <glyph glyph-name="uogonek" unicode="&#x173;" 
d="M420 485v-440q0 -32 -30 -42q-28 -17 -54 -46.5t-26 -66.5q0 -11 9.5 -20.5t20.5 -9.5h25q40 0 40 -40t-40 -40h-25q-48 0 -79 29t-31 71q0 36 24 68.5t45.5 46.5t39.5 22q-9 12 -9 28v10q-2 -3 -5 -7t-14 -15.5t-24 -20t-34 -15.5t-43 -7q-58 0 -99 47t-41 123v325
q0 19 13 32t32 13t32 -13t13 -32v-325q0 -37 19.5 -58.5t50.5 -21.5q27 0 52 17.5t36 34.5l12 18v335q0 19 13 32t32 13t32 -13t13 -32z" />
    <glyph glyph-name="Ydieresis" unicode="&#x178;" 
d="M30 510v140q0 19 15.5 34.5t34.5 15.5t34.5 -15.5t15.5 -34.5v-120l115 -110l115 110v120q0 19 15.5 34.5t34.5 15.5t34.5 -15.5t15.5 -34.5v-140q0 -25 -25 -50l-140 -135v-275q0 -19 -15.5 -34.5t-34.5 -15.5t-34.5 15.5t-15.5 34.5v275l-140 135q-25 25 -25 50z
M165 890q23 0 39 -16t16 -39t-16 -39t-39 -16t-39 16t-16 39t16 39t39 16zM325 890q23 0 39 -16t16 -39t-16 -39t-39 -16t-39 16t-16 39t16 39t39 16z" />
    <glyph glyph-name="Zacute" unicode="&#x179;" horiz-adv-x="430" 
d="M400 610l-255 -510h215q19 0 34.5 -15.5t15.5 -34.5t-15.5 -34.5t-34.5 -15.5h-290q-19 0 -34.5 15.5t-15.5 34.5q0 9 2.5 19t5.5 15l2 6l255 510h-205q-19 0 -34.5 15.5t-15.5 34.5t15.5 34.5t34.5 15.5h280q19 0 34.5 -15.5t15.5 -34.5q0 -9 -2.5 -19t-5.5 -15z
M340 840l-110 -60q-15 -10 -30 -10q-22 0 -36 13t-14 32q0 16 5 27t10 14l5 4l110 60q15 10 30 10q22 0 36 -13t14 -32q0 -16 -5 -27t-10 -14z" />
    <glyph glyph-name="zacute" unicode="&#x17a;" horiz-adv-x="380" 
d="M345 440l-205 -350h175q19 0 32 -13t13 -32t-13 -32t-32 -13h-250q-19 0 -32 13t-13 32q0 11 4 22.5t8 16.5l3 6l205 350h-165q-19 0 -32 13t-13 32t13 32t32 13h240q19 0 32 -13t13 -32q0 -11 -4 -22.5t-8 -16.5zM315 660l-110 -60q-15 -10 -30 -10q-22 0 -36 13t-14 32
q0 16 5 27t10 14l5 4l110 60q15 10 30 10q22 0 36 -13t14 -32q0 -16 -5 -27t-10 -14z" />
    <glyph glyph-name="Zdotaccent" unicode="&#x17b;" horiz-adv-x="430" 
d="M400 610l-255 -510h215q19 0 34.5 -15.5t15.5 -34.5t-15.5 -34.5t-34.5 -15.5h-290q-19 0 -34.5 15.5t-15.5 34.5q0 9 2.5 19t5.5 15l2 6l255 510h-205q-19 0 -34.5 15.5t-15.5 34.5t15.5 34.5t34.5 15.5h280q19 0 34.5 -15.5t15.5 -34.5q0 -9 -2.5 -19t-5.5 -15z
M215 900q23 0 39 -16t16 -39t-16 -39t-39 -16t-39 16t-16 39t16 39t39 16z" />
    <glyph glyph-name="zdotaccent" unicode="&#x17c;" horiz-adv-x="380" 
d="M345 440l-205 -350h175q19 0 32 -13t13 -32t-13 -32t-32 -13h-250q-19 0 -32 13t-13 32q0 11 4 22.5t8 16.5l3 6l205 350h-165q-19 0 -32 13t-13 32t13 32t32 13h240q19 0 32 -13t13 -32q0 -11 -4 -22.5t-8 -16.5zM190 720q22 0 38.5 -16t16.5 -39t-16.5 -39t-38.5 -16
t-38.5 16t-16.5 39t16.5 39t38.5 16z" />
    <glyph glyph-name="Zcaron" unicode="&#x17d;" horiz-adv-x="430" 
d="M400 610l-255 -510h215q19 0 34.5 -15.5t15.5 -34.5t-15.5 -34.5t-34.5 -15.5h-290q-19 0 -34.5 15.5t-15.5 34.5q0 9 2.5 19t5.5 15l2 6l255 510h-205q-19 0 -34.5 15.5t-15.5 34.5t15.5 34.5t34.5 15.5h280q19 0 34.5 -15.5t15.5 -34.5q0 -9 -2.5 -19t-5.5 -15z
M215 770q-20 0 -40 20l-80 80q-10 10 -10 30q0 15 12.5 27.5t27.5 12.5q9 0 16.5 -2.5t10.5 -5.5l3 -2l60 -60l60 60q10 10 30 10q15 0 27.5 -12.5t12.5 -27.5q0 -9 -2.5 -16.5t-4.5 -10.5l-3 -3l-80 -80q-20 -20 -40 -20z" />
    <glyph glyph-name="zcaron" unicode="&#x17e;" horiz-adv-x="380" 
d="M345 440l-205 -350h175q19 0 32 -13t13 -32t-13 -32t-32 -13h-250q-19 0 -32 13t-13 32q0 11 4 22.5t8 16.5l3 6l205 350h-165q-19 0 -32 13t-13 32t13 32t32 13h240q19 0 32 -13t13 -32q0 -11 -4 -22.5t-8 -16.5zM190 590q-20 0 -40 20l-80 80q-10 10 -10 30
q0 15 12.5 27.5t27.5 12.5q9 0 16.5 -2.5t10.5 -5.5l3 -2l60 -60l60 60q10 10 30 10q15 0 27.5 -12.5t12.5 -27.5q0 -9 -2.5 -16.5t-5.5 -10.5l-2 -3l-80 -80q-20 -20 -40 -20z" />
    <glyph glyph-name="florin" unicode="&#x192;" horiz-adv-x="330" 
d="M130 510l5 20q17 92 64.5 136t135.5 44q19 0 32 -13t13 -32t-13 -32t-32 -13q-88 0 -110 -90l-5 -20h70q19 0 32 -13t13 -32t-13 -32t-32 -13h-80l-75 -420q-16 -92 -63.5 -136t-136.5 -44q-19 0 -32 13t-13 32t13 32t32 13q47 0 75 25t35 65l75 420h-55q-19 0 -32 13
t-13 32t13 32t32 13h65z" />
    <glyph glyph-name="Scommaaccent" unicode="&#x218;" horiz-adv-x="480" 
d="M50 510q0 88 58 144t142 56q69 0 115.5 -33.5t59.5 -76.5q5 -15 5 -30q0 -22 -13 -36t-32 -14q-16 0 -27 7.5t-14 14.5l-4 8q-8 25 -31.5 42.5t-58.5 17.5q-45 0 -72.5 -27.5t-27.5 -72.5q0 -28 16 -48.5t41.5 -33t56.5 -23.5t62 -26.5t56.5 -36.5t41.5 -57t16 -85
q0 -90 -60 -150t-150 -60q-73 0 -120.5 35t-64.5 85q-5 15 -5 30q0 22 13 36t32 14q16 0 27 -7.5t14 -14.5l4 -8q26 -70 100 -70q49 0 79.5 30.5t30.5 79.5q0 28 -16 48.5t-41.5 33t-56.5 23.5t-62 26.5t-56.5 36.5t-41.5 57t-16 85zM240 -305q-15 0 -25 10.5t-10 24.5
q0 8 10 33t10 47q0 8 -12.5 32t-12.5 43t14 32t36 13q25 0 42.5 -25.5t17.5 -74.5q0 -61 -23.5 -98t-46.5 -37z" />
    <glyph glyph-name="scommaaccent" unicode="&#x219;" horiz-adv-x="415" 
d="M210 540q110 0 150 -90q5 -10 5 -30q0 -19 -13 -32t-32 -13q-13 0 -23 6.5t-13 12.5l-4 6q-4 17 -25 33.5t-45 16.5q-30 0 -50 -20t-20 -50q0 -18 17.5 -33t43.5 -24t56.5 -23t56.5 -29.5t43.5 -44t17.5 -66.5q0 -75 -47.5 -122.5t-122.5 -47.5q-115 0 -160 100
q-5 10 -5 30q0 19 13 32t32 13q13 0 23 -6.5t14 -12.5l3 -6q8 -24 30 -42t50 -18q37 0 58.5 21t21.5 59q0 22 -24 38t-58.5 28.5t-69.5 29t-59 48.5t-24 76q0 71 44.5 115.5t115.5 44.5zM202 -305q-15 0 -25 10.5t-10 24.5q0 8 10 33t10 47q0 8 -12.5 32t-12.5 43t14 32
t36 13q25 0 42.5 -25.5t17.5 -74.5q0 -61 -23.5 -98t-46.5 -37z" />
    <glyph glyph-name="afii57929" unicode="&#x2bc;" horiz-adv-x="170" 
d="M70 475q-15 0 -25 10.5t-10 24.5q0 8 10 33t10 47q0 8 -12.5 32t-12.5 43t14 32t36 13q25 0 42.5 -25.5t17.5 -74.5q0 -61 -23.5 -98t-46.5 -37z" />
    <glyph glyph-name="circumflex" unicode="&#x2c6;" horiz-adv-x="320" 
d="M160 700q20 0 40 -20l80 -80q10 -10 10 -30q0 -15 -12.5 -27.5t-27.5 -12.5q-9 0 -16.5 2.5t-10.5 5.5l-3 2l-60 60l-60 -60q-10 -10 -30 -10q-15 0 -27.5 12.5t-12.5 27.5q0 9 2.5 16.5t5.5 10.5l2 3l80 80q20 20 40 20z" />
    <glyph glyph-name="caron" unicode="&#x2c7;" horiz-adv-x="320" 
d="M160 530q-20 0 -40 20l-80 80q-10 10 -10 30q0 15 12.5 27.5t27.5 12.5q9 0 16.5 -2.5t10.5 -5.5l3 -2l60 -60l60 60q10 10 30 10q15 0 27.5 -12.5t12.5 -27.5q0 -9 -2.5 -16.5t-5.5 -10.5l-2 -3l-80 -80q-20 -20 -40 -20z" />
    <glyph glyph-name="breve" unicode="&#x2d8;" horiz-adv-x="320" 
d="M160 630q31 0 40 35q8 35 45 35q19 0 32 -13t13 -32l-5 -25q-12 -37 -45.5 -63.5t-79.5 -26.5t-79.5 26.5t-45.5 63.5q-5 15 -5 25q0 19 13 32t32 13q37 0 45 -35q9 -35 40 -35z" />
    <glyph glyph-name="dotaccent" unicode="&#x2d9;" horiz-adv-x="170" 
d="M85 700q23 0 39 -16t16 -39t-16 -39t-39 -16t-39 16t-16 39t16 39t39 16z" />
    <glyph glyph-name="ring" unicode="&#x2da;" horiz-adv-x="260" 
d="M230 610q0 -41 -29.5 -70.5t-70.5 -29.5t-70.5 29.5t-29.5 70.5t29.5 70.5t70.5 29.5t70.5 -29.5t29.5 -70.5zM160 610q0 11 -9.5 20.5t-20.5 9.5t-20.5 -9.5t-9.5 -20.5t9.5 -20.5t20.5 -9.5t20.5 9.5t9.5 20.5z" />
    <glyph glyph-name="ogonek" unicode="&#x2db;" horiz-adv-x="230" 
d="M130 0h70q-4 -2 -10 -6t-21.5 -16t-27.5 -25.5t-21.5 -33t-9.5 -39.5q0 -11 9.5 -20.5t20.5 -9.5h25q40 0 40 -40t-40 -40h-25q-48 0 -79 29t-31 71q0 25 10.5 48t25 37t29 25t25.5 16z" />
    <glyph glyph-name="tilde" unicode="&#x2dc;" horiz-adv-x="335" 
d="M135 605q-13 0 -25 -20q-17 -25 -40 -25q-18 0 -29 12t-11 28l4 25q8 30 32 50t54 20q22 0 47 -20t33 -20q13 0 25 20q17 25 40 25q18 0 29 -12t11 -28l-4 -25q-8 -30 -32 -50t-54 -20q-23 0 -48 20t-32 20z" />
    <glyph glyph-name="hungarumlaut" unicode="&#x2dd;" horiz-adv-x="365" 
d="M40 605l60 80q10 15 30 15q22 0 36 -14t14 -36q0 -4 -2.5 -10.5t-5.5 -10.5l-2 -4l-60 -80q-10 -15 -30 -15q-22 0 -36 14t-14 36q0 4 2.5 10.5t5.5 10.5zM195 605l60 80q10 15 30 15q23 0 36.5 -14t13.5 -36q0 -4 -2.5 -10.5t-4.5 -10.5l-3 -4l-60 -80q-10 -15 -30 -15
q-23 0 -36.5 14t-13.5 36q0 4 2.5 10.5t4.5 10.5z" />
    <glyph glyph-name="afii10023" unicode="&#x401;" horiz-adv-x="440" 
d="M350 600h-170v-150h160q19 0 34.5 -15.5t15.5 -34.5t-15.5 -34.5t-34.5 -15.5h-160v-250h170q19 0 34.5 -15.5t15.5 -34.5t-15.5 -34.5t-34.5 -15.5h-220q-19 0 -34.5 15.5t-15.5 34.5v600q0 19 15.5 34.5t34.5 15.5h220q19 0 34.5 -15.5t15.5 -34.5t-15.5 -34.5
t-34.5 -15.5zM155 880q23 0 39 -16t16 -39t-16 -39t-39 -16t-39 16t-16 39t16 39t39 16zM315 880q23 0 39 -16t16 -39t-16 -39t-39 -16t-39 16t-16 39t16 39t39 16z" />
    <glyph glyph-name="afii10051" unicode="&#x402;" horiz-adv-x="590" 
d="M540 240v-70q0 -180 -170 -180q-19 0 -34.5 15.5t-15.5 34.5t15.5 34.5t34.5 15.5q31 0 50.5 21.5t19.5 58.5v70q0 52 -32 86t-78 34q-22 0 -44.5 -5t-33.5 -10l-12 -5v-290q0 -19 -15.5 -34.5t-34.5 -15.5t-34.5 15.5t-15.5 34.5v550h-100q-19 0 -34.5 15.5t-15.5 34.5
t15.5 34.5t34.5 15.5h300q19 0 34.5 -15.5t15.5 -34.5t-15.5 -34.5t-34.5 -15.5h-100v-160q40 20 100 20q84 0 142 -62t58 -158z" />
    <glyph glyph-name="afii10052" unicode="&#x403;" horiz-adv-x="390" 
d="M340 600h-160v-550q0 -19 -15.5 -34.5t-34.5 -15.5t-34.5 15.5t-15.5 34.5v600q0 19 15.5 34.5t34.5 15.5h210q19 0 34.5 -15.5t15.5 -34.5t-15.5 -34.5t-34.5 -15.5zM340 840l-110 -60q-15 -10 -30 -10q-22 0 -36 13t-14 32q0 16 5 27t10 14l5 4l110 60q15 10 30 10
q22 0 36 -13t14 -32q0 -16 -5 -27t-10 -14z" />
    <glyph glyph-name="afii10053" unicode="&#x404;" horiz-adv-x="505" 
d="M285 -10q-108 0 -166.5 83.5t-58.5 276.5t58.5 276.5t166.5 83.5q69 0 115.5 -33.5t59.5 -76.5q5 -15 5 -30q0 -22 -13 -36t-32 -14q-16 0 -27 7.5t-15 14.5l-3 8q-8 25 -31.5 42.5t-58.5 17.5q-118 0 -125 -200h155q19 0 34.5 -15.5t15.5 -34.5t-15.5 -34.5t-34.5 -15.5
h-155q4 -120 36 -170t89 -50q74 0 100 70q1 3 3.5 8t14 13.5t27.5 8.5q19 0 32 -14t13 -36l-5 -30q-17 -50 -64.5 -85t-120.5 -35z" />
    <glyph glyph-name="afii10054" unicode="&#x405;" horiz-adv-x="480" 
d="M50 510q0 88 58 144t142 56q69 0 115.5 -33.5t59.5 -76.5q5 -15 5 -30q0 -22 -13 -36t-32 -14q-16 0 -27 7.5t-14 14.5l-4 8q-8 25 -31.5 42.5t-58.5 17.5q-45 0 -72.5 -27.5t-27.5 -72.5q0 -28 16 -48.5t41.5 -33t56.5 -23.5t62 -26.5t56.5 -36.5t41.5 -57t16 -85
q0 -90 -60 -150t-150 -60q-73 0 -120.5 35t-64.5 85q-5 15 -5 30q0 22 13 36t32 14q16 0 27 -7.5t14 -14.5l4 -8q26 -70 100 -70q49 0 79.5 30.5t30.5 79.5q0 28 -16 48.5t-41.5 33t-56.5 23.5t-62 26.5t-56.5 36.5t-41.5 57t-16 85z" />
    <glyph glyph-name="afii10055" unicode="&#x406;" horiz-adv-x="260" 
d="M180 650v-600q0 -19 -15.5 -34.5t-34.5 -15.5t-34.5 15.5t-15.5 34.5v600q0 19 15.5 34.5t34.5 15.5t34.5 -15.5t15.5 -34.5z" />
    <glyph glyph-name="afii10056" unicode="&#x407;" horiz-adv-x="260" 
d="M180 650v-600q0 -19 -15.5 -34.5t-34.5 -15.5t-34.5 15.5t-15.5 34.5v600q0 19 15.5 34.5t34.5 15.5t34.5 -15.5t15.5 -34.5zM50 900q22 0 38.5 -16t16.5 -39t-16.5 -39t-38.5 -16t-38.5 16t-16.5 39t16.5 39t38.5 16zM210 900q22 0 38.5 -16t16.5 -39t-16.5 -39
t-38.5 -16t-38.5 16t-16.5 39t16.5 39t38.5 16z" />
    <glyph glyph-name="afii10057" unicode="&#x408;" horiz-adv-x="430" 
d="M160 90q42 0 71 31t29 79v450q0 19 15.5 34.5t34.5 15.5t34.5 -15.5t15.5 -34.5v-450q0 -93 -56.5 -151.5t-143.5 -58.5q-61 0 -101 26.5t-54 58.5q-5 10 -5 30q0 22 13 36t32 14q11 0 21 -6.5t14 -12.5l5 -6q30 -40 75 -40z" />
    <glyph glyph-name="afii10058" unicode="&#x409;" horiz-adv-x="790" 
d="M410 0q-19 0 -34.5 15.5t-15.5 34.5v540h-120q0 -154 -18.5 -271t-48.5 -180t-54 -93.5t-49 -45.5q-15 -10 -35 -10q-15 0 -30 15t-15 30q0 11 6 23.5t12 19.5l7 7q23 28 31.5 39.5t31 58.5t32.5 99t20 148.5t10 219.5q0 19 15.5 34.5t34.5 15.5h220q19 0 34.5 -15.5
t15.5 -34.5v-205q30 5 60 5q104 0 167 -61t63 -159q0 -104 -84 -167t-256 -63zM460 345v-245q101 7 145.5 42t44.5 98q0 46 -36 78t-94 32z" />
    <glyph glyph-name="afii10059" unicode="&#x40a;" horiz-adv-x="820" 
d="M180 450h210v200q0 19 15.5 34.5t34.5 15.5t34.5 -15.5t15.5 -34.5v-200h60q104 0 167 -61t63 -159q0 -104 -84 -167t-256 -63q-19 0 -34.5 15.5t-15.5 34.5v300h-210v-300q0 -19 -15.5 -34.5t-34.5 -15.5t-34.5 15.5t-15.5 34.5v600q0 19 15.5 34.5t34.5 15.5
t34.5 -15.5t15.5 -34.5v-200zM490 350v-250q101 7 145.5 42t44.5 98q0 46 -36 78t-94 32h-60z" />
    <glyph glyph-name="afii10060" unicode="&#x40b;" horiz-adv-x="600" 
d="M340 600h-100v-160q40 20 100 20q84 0 142 -62t58 -158v-190q0 -19 -15.5 -34.5t-34.5 -15.5t-34.5 15.5t-15.5 34.5v190q0 52 -32 86t-78 34q-22 0 -44.5 -5t-33.5 -10l-12 -5v-290q0 -19 -15.5 -34.5t-34.5 -15.5t-34.5 15.5t-15.5 34.5v550h-100q-19 0 -34.5 15.5
t-15.5 34.5t15.5 34.5t34.5 15.5h300q19 0 34.5 -15.5t15.5 -34.5t-15.5 -34.5t-34.5 -15.5z" />
    <glyph glyph-name="afii10061" unicode="&#x40c;" horiz-adv-x="520" 
d="M360 390l135 -320q5 -10 5 -20q0 -22 -14 -36t-36 -14q-13 0 -24.5 7.5t-15.5 14.5l-5 8l-130 310h-95v-290q0 -19 -15.5 -34.5t-34.5 -15.5t-34.5 15.5t-15.5 34.5v600q0 19 15.5 34.5t34.5 15.5t34.5 -15.5t15.5 -34.5v-210h95l95 230q15 30 45 30q23 0 36.5 -14
t13.5 -36l-5 -20zM385 840l-110 -60q-15 -10 -30 -10q-22 0 -36 13t-14 32q0 16 5 27t10 14l5 4l110 60q15 10 30 10q22 0 36 -13t14 -32q0 -16 -5 -27t-10 -14z" />
    <glyph glyph-name="afii10062" unicode="&#x40e;" horiz-adv-x="465" 
d="M125 75l65 170l-165 380q-5 10 -5 25q0 22 14 36t36 14q16 0 27 -7.5t15 -14.5l3 -8l125 -290l110 290q1 3 3.5 8t14 13.5t27.5 8.5q23 0 36.5 -14t13.5 -36l-5 -25l-225 -595q-1 -3 -3.5 -8t-14 -13.5t-27.5 -8.5q-22 0 -36 14t-14 36zM232 860q31 0 40 35q8 35 45 35
q19 0 32 -13t13 -32l-5 -25q-12 -37 -45.5 -63.5t-79.5 -26.5t-79.5 26.5t-45.5 63.5q-5 15 -5 25q0 19 13 32t32 13q37 0 45 -35q9 -35 40 -35z" />
    <glyph glyph-name="afii10145" unicode="&#x40f;" horiz-adv-x="570" 
d="M235 0h-105q-19 0 -34.5 15.5t-15.5 34.5v600q0 19 15.5 34.5t34.5 15.5t34.5 -15.5t15.5 -34.5v-540h210v540q0 19 15.5 34.5t34.5 15.5t34.5 -15.5t15.5 -34.5v-600q0 -19 -15.5 -34.5t-34.5 -15.5h-105v-80q0 -19 -15.5 -34.5t-34.5 -15.5t-34.5 15.5t-15.5 34.5v80z
" />
    <glyph glyph-name="afii10017" unicode="&#x410;" horiz-adv-x="510" 
d="M25 75l180 585q5 16 18.5 28t31.5 12t31.5 -12t18.5 -28l180 -585q5 -15 5 -25q0 -22 -14 -36t-36 -14q-16 0 -27 7.5t-15 14.5l-3 8l-30 95h-220l-30 -95q-1 -3 -3.5 -8t-14 -13.5t-27.5 -8.5q-22 0 -36 14t-14 36zM175 225h160l-80 265z" />
    <glyph glyph-name="afii10018" unicode="&#x411;" horiz-adv-x="520" 
d="M380 600h-200v-155q25 5 50 5q118 0 184 -60.5t66 -159.5q0 -104 -86 -167t-264 -63q-19 0 -34.5 15.5t-15.5 34.5v600q0 19 15.5 34.5t34.5 15.5h250q19 0 34.5 -15.5t15.5 -34.5t-15.5 -34.5t-34.5 -15.5zM180 345v-245q108 7 154 42t46 98q0 48 -39 79t-111 31z" />
    <glyph glyph-name="afii10019" unicode="&#x412;" horiz-adv-x="510" 
d="M340 410q5 -1 14 -4t31.5 -16.5t39.5 -31.5t31 -52t14 -76q0 -104 -84 -167t-256 -63q-19 0 -34.5 15.5t-15.5 34.5v600q0 19 13.5 32.5t36.5 17.5q40 10 90 10q87 0 143.5 -48.5t56.5 -111.5q0 -44 -20 -79t-40 -48zM320 540q0 32 -25 51t-75 19l-40 -5v-155
q71 0 105.5 25t34.5 65zM180 350v-250q101 7 145.5 42t44.5 98q0 46 -36 78t-94 32h-60z" />
    <glyph glyph-name="afii10020" unicode="&#x413;" horiz-adv-x="390" 
d="M340 600h-160v-550q0 -19 -15.5 -34.5t-34.5 -15.5t-34.5 15.5t-15.5 34.5v600q0 19 15.5 34.5t34.5 15.5h210q19 0 34.5 -15.5t15.5 -34.5t-15.5 -34.5t-34.5 -15.5z" />
    <glyph glyph-name="afii10021" unicode="&#x414;" horiz-adv-x="555" 
d="M185 700h220q19 0 34.5 -15.5t15.5 -34.5v-540h30q19 0 34.5 -15.5t15.5 -34.5v-140q0 -19 -15.5 -34.5t-34.5 -15.5t-34.5 15.5t-15.5 34.5v80h-345v-80q0 -19 -15.5 -34.5t-34.5 -15.5t-34.5 15.5t-15.5 34.5v140q0 19 15.5 34.5t34.5 15.5q1 0 10 16t23.5 57t28 99
t23.5 155.5t10 212.5q0 19 15.5 34.5t34.5 15.5zM235 590q0 -98 -9.5 -183.5t-22.5 -137.5t-26 -90t-23 -53l-9 -16h210v480h-120z" />
    <glyph glyph-name="afii10022" unicode="&#x415;" horiz-adv-x="440" 
d="M350 600h-170v-160h160q19 0 34.5 -15.5t15.5 -34.5t-15.5 -34.5t-34.5 -15.5h-160v-240h170q19 0 34.5 -15.5t15.5 -34.5t-15.5 -34.5t-34.5 -15.5h-220q-19 0 -34.5 15.5t-15.5 34.5v600q0 19 15.5 34.5t34.5 15.5h220q19 0 34.5 -15.5t15.5 -34.5t-15.5 -34.5
t-34.5 -15.5z" />
    <glyph glyph-name="afii10024" unicode="&#x416;" horiz-adv-x="740" 
d="M25 70l135 320l-100 240q-5 10 -5 20q0 22 13.5 36t36.5 14q13 0 24.5 -7.5t16.5 -14.5l4 -8l95 -230h75v210q0 19 15.5 34.5t34.5 15.5t34.5 -15.5t15.5 -34.5v-210h75l95 230q15 30 45 30q23 0 36.5 -14t13.5 -36l-5 -20l-100 -240l135 -320q5 -10 5 -20q0 -22 -14 -36
t-36 -14q-13 0 -24.5 7.5t-15.5 14.5l-5 8l-130 310h-75v-290q0 -19 -15.5 -34.5t-34.5 -15.5t-34.5 15.5t-15.5 34.5v290h-75l-130 -310q-15 -30 -45 -30q-22 0 -36 14t-14 36z" />
    <glyph glyph-name="afii10025" unicode="&#x417;" horiz-adv-x="480" 
d="M190 410h30q45 0 72.5 27.5t27.5 72.5t-27.5 72.5t-72.5 27.5q-35 0 -58.5 -17.5t-31.5 -42.5q-1 -3 -3.5 -8t-14 -13.5t-27.5 -8.5q-19 0 -32 14t-13 36l5 30q13 43 59.5 76.5t115.5 33.5q84 0 142 -54t58 -136q0 -31 -9.5 -57.5t-22.5 -43t-26 -28t-22 -16.5l-10 -5
l11 -5.5t24 -18t30 -32.5t24 -51.5t11 -72.5q0 -83 -60.5 -141.5t-149.5 -58.5q-73 0 -120.5 35t-64.5 85q-5 15 -5 30q0 22 13 36t32 14q16 0 27 -7.5t14 -14.5l4 -8q26 -70 100 -70q49 0 79.5 30.5t30.5 79.5t-30.5 79.5t-79.5 30.5h-30q-19 0 -34.5 15.5t-15.5 34.5
t15.5 34.5t34.5 15.5z" />
    <glyph glyph-name="afii10026" unicode="&#x418;" horiz-adv-x="590" 
d="M180 240l225 420q22 40 55 40q19 0 34.5 -15.5t15.5 -34.5v-600q0 -19 -15.5 -34.5t-34.5 -15.5t-34.5 15.5t-15.5 34.5v410l-225 -420q-22 -40 -55 -40q-19 0 -34.5 15.5t-15.5 34.5v600q0 19 15.5 34.5t34.5 15.5t34.5 -15.5t15.5 -34.5v-410z" />
    <glyph glyph-name="afii10027" unicode="&#x419;" horiz-adv-x="590" 
d="M180 240l225 420q22 40 55 40q19 0 34.5 -15.5t15.5 -34.5v-600q0 -19 -15.5 -34.5t-34.5 -15.5t-34.5 15.5t-15.5 34.5v410l-225 -420q-22 -40 -55 -40q-19 0 -34.5 15.5t-15.5 34.5v600q0 19 15.5 34.5t34.5 15.5t34.5 -15.5t15.5 -34.5v-410zM295 860q14 0 27.5 11.5
t17.5 23.5q16 40 50 40q19 0 32 -14t13 -36l-5 -25q-8 -34 -45.5 -62t-89.5 -28t-89.5 28t-45.5 62q-5 15 -5 25q0 22 13 36t32 14q34 0 50 -40q4 -12 17.5 -23.5t27.5 -11.5z" />
    <glyph glyph-name="afii10028" unicode="&#x41a;" horiz-adv-x="520" 
d="M360 390l135 -320q5 -10 5 -20q0 -22 -14 -36t-36 -14q-13 0 -24.5 7.5t-15.5 14.5l-5 8l-130 310h-95v-290q0 -19 -15.5 -34.5t-34.5 -15.5t-34.5 15.5t-15.5 34.5v600q0 19 15.5 34.5t34.5 15.5t34.5 -15.5t15.5 -34.5v-210h95l95 230q15 30 45 30q23 0 36.5 -14
t13.5 -36l-5 -20z" />
    <glyph glyph-name="afii10029" unicode="&#x41b;" horiz-adv-x="540" 
d="M190 700h220q19 0 34.5 -15.5t15.5 -34.5v-600q0 -19 -15.5 -34.5t-34.5 -15.5t-34.5 15.5t-15.5 34.5v540h-120q0 -154 -18.5 -271t-48.5 -180t-54 -93.5t-49 -45.5q-15 -10 -35 -10q-15 0 -30 15t-15 30q0 11 6 23.5t12 19.5l7 7q23 28 31.5 39.5t31 58.5t32.5 99
t20 148.5t10 219.5q0 19 15.5 34.5t34.5 15.5z" />
    <glyph glyph-name="afii10030" unicode="&#x41c;" horiz-adv-x="710" 
d="M355 235l115 425q5 17 19.5 28.5t35.5 11.5q22 0 37.5 -12t17.5 -28l85 -570q5 -25 5 -40q0 -22 -14 -36t-36 -14q-21 0 -34.5 12t-15.5 28l-60 410l-110 -410q-3 -12 -15 -21t-30 -9t-30 9t-15 21l-110 410l-60 -410q-2 -16 -15.5 -28t-34.5 -12q-22 0 -36 14t-14 36
l5 40l85 570q2 16 17.5 28t37.5 12q21 0 35.5 -11.5t19.5 -28.5z" />
    <glyph glyph-name="afii10031" unicode="&#x41d;" horiz-adv-x="570" 
d="M180 440h210v210q0 19 15.5 34.5t34.5 15.5t34.5 -15.5t15.5 -34.5v-600q0 -19 -15.5 -34.5t-34.5 -15.5t-34.5 15.5t-15.5 34.5v290h-210v-290q0 -19 -15.5 -34.5t-34.5 -15.5t-34.5 15.5t-15.5 34.5v600q0 19 15.5 34.5t34.5 15.5t34.5 -15.5t15.5 -34.5v-210z" />
    <glyph glyph-name="afii10032" unicode="&#x41e;" horiz-adv-x="570" 
d="M410 350q0 148 -31.5 204t-93.5 56t-93.5 -56t-31.5 -204t31.5 -204t93.5 -56t93.5 56t31.5 204zM510 350q0 -193 -58.5 -276.5t-166.5 -83.5t-166.5 83.5t-58.5 276.5t58.5 276.5t166.5 83.5t166.5 -83.5t58.5 -276.5z" />
    <glyph glyph-name="afii10033" unicode="&#x41f;" horiz-adv-x="570" 
d="M130 700h310q19 0 34.5 -15.5t15.5 -34.5v-600q0 -19 -15.5 -34.5t-34.5 -15.5t-34.5 15.5t-15.5 34.5v540h-210v-540q0 -19 -15.5 -34.5t-34.5 -15.5t-34.5 15.5t-15.5 34.5v600q0 19 15.5 34.5t34.5 15.5z" />
    <glyph glyph-name="afii10034" unicode="&#x420;" horiz-adv-x="510" 
d="M230 710q110 0 175 -59t65 -151q0 -108 -68 -166.5t-222 -73.5v-210q0 -19 -15.5 -34.5t-34.5 -15.5t-34.5 15.5t-15.5 34.5v600q0 19 13.5 32.5t36.5 17.5q40 10 100 10zM180 605v-245q101 7 145.5 42t44.5 98q0 47 -37.5 78.5t-102.5 31.5z" />
    <glyph glyph-name="afii10035" unicode="&#x421;" horiz-adv-x="505" 
d="M285 -10q-108 0 -166.5 83.5t-58.5 276.5t58.5 276.5t166.5 83.5q69 0 115.5 -33.5t59.5 -76.5q5 -15 5 -30q0 -22 -13 -36t-32 -14q-16 0 -27 7.5t-15 14.5l-3 8q-8 25 -31.5 42.5t-58.5 17.5q-62 0 -93.5 -56t-31.5 -204t31.5 -204t93.5 -56q74 0 100 70q1 3 3.5 8
t14 13.5t27.5 8.5q19 0 32 -14t13 -36l-5 -30q-17 -50 -64.5 -85t-120.5 -35z" />
    <glyph glyph-name="afii10036" unicode="&#x422;" horiz-adv-x="420" 
d="M360 600h-100v-550q0 -19 -15.5 -34.5t-34.5 -15.5t-34.5 15.5t-15.5 34.5v550h-100q-19 0 -34.5 15.5t-15.5 34.5t15.5 34.5t34.5 15.5h300q19 0 34.5 -15.5t15.5 -34.5t-15.5 -34.5t-34.5 -15.5z" />
    <glyph glyph-name="afii10037" unicode="&#x423;" horiz-adv-x="465" 
d="M125 75l65 170l-165 380q-5 10 -5 25q0 22 14 36t36 14q16 0 27 -7.5t15 -14.5l3 -8l125 -290l110 290q1 3 3.5 8t14 13.5t27.5 8.5q23 0 36.5 -14t13.5 -36l-5 -25l-225 -595q-1 -3 -3.5 -8t-14 -13.5t-27.5 -8.5q-22 0 -36 14t-14 36z" />
    <glyph glyph-name="afii10038" unicode="&#x424;" horiz-adv-x="700" 
d="M350 720q19 0 34.5 -15.5t15.5 -34.5v-30q115 -15 182.5 -90t67.5 -200t-67.5 -200t-182.5 -90v-30q0 -19 -15.5 -34.5t-34.5 -15.5t-34.5 15.5t-15.5 34.5v30q-115 15 -182.5 90t-67.5 200t67.5 200t182.5 90v30q0 19 15.5 34.5t34.5 15.5zM400 540v-380
q63 8 106.5 59.5t43.5 130.5t-43.5 130.5t-106.5 59.5zM300 160v380q-63 -8 -106.5 -59.5t-43.5 -130.5t43.5 -130.5t106.5 -59.5z" />
    <glyph glyph-name="afii10039" unicode="&#x425;" horiz-adv-x="530" 
d="M60 50v140q0 25 25 50l120 115l-120 115q-25 25 -25 50v130q0 19 15.5 34.5t34.5 15.5t34.5 -15.5t15.5 -34.5v-110l105 -100l105 100v110q0 19 15.5 34.5t34.5 15.5t34.5 -15.5t15.5 -34.5v-130q0 -25 -25 -50l-120 -115l120 -115q25 -25 25 -50v-140q0 -19 -15.5 -34.5
t-34.5 -15.5t-34.5 15.5t-15.5 34.5v120l-105 100l-105 -100v-120q0 -19 -15.5 -34.5t-34.5 -15.5t-34.5 15.5t-15.5 34.5z" />
    <glyph glyph-name="afii10040" unicode="&#x426;" horiz-adv-x="570" 
d="M470 650v-540h30q19 0 34.5 -15.5t15.5 -34.5v-140q0 -19 -15.5 -34.5t-34.5 -15.5t-34.5 15.5t-15.5 34.5v80h-320q-19 0 -34.5 15.5t-15.5 34.5v600q0 19 15.5 34.5t34.5 15.5t34.5 -15.5t15.5 -34.5v-540h190v540q0 19 15.5 34.5t34.5 15.5t34.5 -15.5t15.5 -34.5z
" />
    <glyph glyph-name="afii10041" unicode="&#x427;" horiz-adv-x="550" 
d="M280 340q22 0 44.5 5t33.5 10l12 5v290q0 19 15.5 34.5t34.5 15.5t34.5 -15.5t15.5 -34.5v-600q0 -19 -15.5 -34.5t-34.5 -15.5t-34.5 15.5t-15.5 34.5v210q-40 -20 -100 -20q-84 0 -142 62t-58 158v190q0 19 15.5 34.5t34.5 15.5t34.5 -15.5t15.5 -34.5v-190
q0 -52 32 -86t78 -34z" />
    <glyph glyph-name="afii10042" unicode="&#x428;" horiz-adv-x="760" 
d="M630 0h-500q-19 0 -34.5 15.5t-15.5 34.5v600q0 19 15.5 34.5t34.5 15.5t34.5 -15.5t15.5 -34.5v-540h150v540q0 19 15.5 34.5t34.5 15.5t34.5 -15.5t15.5 -34.5v-540h150v540q0 19 15.5 34.5t34.5 15.5t34.5 -15.5t15.5 -34.5v-600q0 -19 -15.5 -34.5t-34.5 -15.5z" />
    <glyph glyph-name="afii10043" unicode="&#x429;" horiz-adv-x="780" 
d="M660 0h-530q-19 0 -34.5 15.5t-15.5 34.5v600q0 19 15.5 34.5t34.5 15.5t34.5 -15.5t15.5 -34.5v-540h150v540q0 19 15.5 34.5t34.5 15.5t34.5 -15.5t15.5 -34.5v-540h150v540q0 19 15.5 34.5t34.5 15.5t34.5 -15.5t15.5 -34.5v-540h30q19 0 34.5 -15.5t15.5 -34.5v-140
q0 -19 -15.5 -34.5t-34.5 -15.5t-34.5 15.5t-15.5 34.5v80z" />
    <glyph glyph-name="afii10044" unicode="&#x42a;" horiz-adv-x="560" 
d="M140 600h-100q-19 0 -34.5 15.5t-15.5 34.5t15.5 34.5t34.5 15.5h150q19 0 34.5 -15.5t15.5 -34.5v-205q30 5 60 5q98 0 159 -61t61 -159q0 -103 -82.5 -166.5t-247.5 -63.5q-19 0 -34.5 15.5t-15.5 34.5v550zM240 345v-245q180 14 180 140q0 46 -34 78t-86 32z" />
    <glyph glyph-name="afii10045" unicode="&#x42b;" horiz-adv-x="710" 
d="M130 0q-19 0 -34.5 15.5t-15.5 34.5v600q0 19 15.5 34.5t34.5 15.5t34.5 -15.5t15.5 -34.5v-205q30 5 60 5q98 0 159 -61t61 -159q0 -103 -82.5 -166.5t-247.5 -63.5zM180 345v-245q180 14 180 140q0 46 -34 78t-86 32zM630 650v-600q0 -19 -15.5 -34.5t-34.5 -15.5
t-34.5 15.5t-15.5 34.5v600q0 19 15.5 34.5t34.5 15.5t34.5 -15.5t15.5 -34.5z" />
    <glyph glyph-name="afii10046" unicode="&#x42c;" horiz-adv-x="510" 
d="M130 0q-19 0 -34.5 15.5t-15.5 34.5v600q0 19 15.5 34.5t34.5 15.5t34.5 -15.5t15.5 -34.5v-205q30 5 60 5q104 0 167 -61t63 -159q0 -104 -84 -167t-256 -63zM180 345v-245q101 7 145.5 42t44.5 98q0 46 -36 78t-94 32z" />
    <glyph glyph-name="afii10047" unicode="&#x42d;" horiz-adv-x="505" 
d="M220 -10q-73 0 -120.5 35t-64.5 85q-5 15 -5 30q0 22 13 36t32 14q16 0 27 -7.5t14 -14.5l4 -8q26 -70 100 -70q57 0 89 50t36 170h-155q-19 0 -34.5 15.5t-15.5 34.5t15.5 34.5t34.5 15.5h155q-7 200 -125 200q-35 0 -58.5 -17.5t-31.5 -42.5q-1 -3 -3.5 -8t-14 -13.5
t-27.5 -8.5q-19 0 -32 14t-13 36l5 30q13 43 59.5 76.5t115.5 33.5q108 0 166.5 -83.5t58.5 -276.5t-58.5 -276.5t-166.5 -83.5z" />
    <glyph glyph-name="afii10048" unicode="&#x42e;" horiz-adv-x="760" 
d="M700 350q0 -360 -215 -360q-92 0 -150 76t-65 234h-90v-250q0 -19 -15.5 -34.5t-34.5 -15.5t-34.5 15.5t-15.5 34.5v600q0 19 15.5 34.5t34.5 15.5t34.5 -15.5t15.5 -34.5v-250h90q7 158 65 234t150 76q215 0 215 -360zM600 350q0 147 -30 203.5t-85 56.5t-85 -56.5
t-30 -203.5t30 -203.5t85 -56.5t85 56.5t30 203.5z" />
    <glyph glyph-name="afii10049" unicode="&#x42f;" horiz-adv-x="530" 
d="M290 710q27 0 54.5 -2.5t41.5 -5.5l14 -2q22 -4 36 -17.5t14 -32.5v-600q0 -19 -15.5 -34.5t-34.5 -15.5t-34.5 15.5t-15.5 34.5v210q-22 0 -48.5 4t-41.5 8l-15 3l-105 -245q-15 -30 -45 -30q-23 0 -36.5 14t-13.5 36l5 20l105 245l-10.5 5.5t-22.5 18t-28.5 33.5
t-23 53t-10.5 75q0 91 63 150.5t167 59.5zM350 360v245q-30 5 -60 5q-58 0 -94 -32t-36 -78q0 -63 44.5 -98t145.5 -42z" />
    <glyph glyph-name="afii10065" unicode="&#x430;" horiz-adv-x="455" 
d="M295 150v75q-40 15 -90 15q-37 0 -58.5 -21t-21.5 -59q0 -37 19.5 -58.5t50.5 -21.5q27 0 52 17.5t37 34.5zM385 370v-325q0 -19 -13 -32t-32 -13t-32 13t-13 32v10q-2 -3 -5 -7t-14 -15.5t-24 -20t-34 -15.5t-43 -7q-62 0 -101 45t-39 125q0 75 47.5 122.5t122.5 47.5
q22 0 44.5 -4t34.5 -8l11 -3v55q0 34 -23 57t-57 23q-16 0 -33.5 -5t-27.5 -10l-9 -5q-10 -5 -25 -5t-27.5 13.5t-12.5 31.5q0 11 7.5 21t14.5 15l8 4q50 30 105 30q75 0 122.5 -47.5t47.5 -122.5z" />
    <glyph glyph-name="afii10066" unicode="&#x431;" horiz-adv-x="470" 
d="M260 450q65 0 112.5 -61.5t47.5 -168.5q0 -109 -51 -169.5t-129 -60.5q-79 0 -129.5 62.5t-50.5 177.5v180q0 95 44.5 154.5t110.5 75.5l80 20q19 5 40.5 27.5t39.5 22.5q19 0 34.5 -15.5t15.5 -34.5q0 -62 -110 -90l-80 -20q-85 -21 -85 -140q45 40 110 40zM330 220
q0 71 -25 105.5t-65 34.5q-24 0 -46.5 -11t-33.5 -23l-10 -11v-85q0 -78 24.5 -114t65.5 -36q40 0 65 34.5t25 105.5z" />
    <glyph glyph-name="afii10067" unicode="&#x432;" horiz-adv-x="420" 
d="M290 310q4 -1 11 -4t24 -13.5t30 -24.5t24 -39t11 -54q0 -69 -70.5 -122t-194.5 -53h-10q-19 0 -32 13t-13 32v435q0 19 14 32.5t36 17.5q40 10 80 10q66 0 108 -38t42 -92q0 -31 -15 -56t-30 -34zM260 400q0 50 -60 50l-40 -5v-105q49 0 74.5 17.5t25.5 42.5zM160 250
v-160q71 7 105.5 33t34.5 62q0 28 -23.5 46.5t-66.5 18.5h-50z" />
    <glyph glyph-name="afii10068" unicode="&#x433;" horiz-adv-x="350" 
d="M350 485q0 -19 -13 -32t-32 -13h-145v-395q0 -19 -13 -32t-32 -13t-32 13t-13 32v440q0 19 13 32t32 13h190q19 0 32 -13t13 -32z" />
    <glyph glyph-name="afii10069" unicode="&#x434;" horiz-adv-x="475" 
d="M410 90q19 0 32 -13t13 -32v-110q0 -19 -13 -32t-32 -13t-32 13t-13 32v65h-285v-65q0 -19 -13 -32t-32 -13t-32 13t-13 32v110q0 19 13 32t32 13l8.5 11.5t19.5 39.5t24.5 72.5t19 113.5t8.5 158q0 19 13 32t32 13h180q19 0 32 -13t13 -32v-395h25zM205 440
q0 -73 -7 -135.5t-17.5 -100.5t-21 -65t-17.5 -38l-7 -11h160v350h-90z" />
    <glyph glyph-name="afii10070" unicode="&#x435;" horiz-adv-x="465" 
d="M240 80q28 0 50 18t30 42q10 25 40 25q19 0 32 -13t13 -32l-5 -30q-45 -100 -160 -100q-87 0 -138.5 67.5t-51.5 207.5q0 139 50.5 207t134.5 68t134.5 -68.5t50.5 -211.5q0 -15 -12.5 -27.5t-27.5 -12.5h-240q7 -140 100 -140zM140 310h190q-4 71 -29.5 105.5
t-65.5 34.5t-65.5 -34.5t-29.5 -105.5z" />
    <glyph glyph-name="afii10072" unicode="&#x436;" horiz-adv-x="590" 
d="M120 500l70 -170h60v155q0 19 13 32t32 13t32 -13t13 -32v-155h60l70 170q1 3 3.5 8t13 13.5t23.5 8.5q19 0 32 -13t13 -32l-5 -25l-75 -175l90 -215q5 -15 5 -25q0 -19 -13 -32t-32 -13q-13 0 -23 7.5t-14 14.5l-3 8l-85 210h-60v-195q0 -19 -13 -32t-32 -13t-32 13
t-13 32v195h-60l-85 -210q-1 -3 -3.5 -8t-13 -13.5t-23.5 -8.5q-19 0 -32 13t-13 32l5 25l90 215l-75 175q-5 15 -5 25q0 19 13 32t32 13q13 0 23 -7.5t13 -14.5z" />
    <glyph glyph-name="afii10073" unicode="&#x437;" horiz-adv-x="405" 
d="M175 320h20q30 0 50 19t20 46t-20 46t-50 19q-24 0 -45 -16.5t-25 -33.5q-10 -25 -40 -25q-19 0 -32 13t-13 32l5 30q40 90 150 90q70 0 115 -42t45 -103q0 -38 -17.5 -66.5t-35.5 -38.5l-17 -10q3 -1 8.5 -4t19.5 -13.5t24.5 -24.5t19 -39t8.5 -54q0 -65 -48 -110
t-122 -45q-115 0 -160 100q-5 10 -5 30q0 19 13 32t32 13q13 0 23 -6.5t14 -12.5l3 -6q8 -24 30 -42t50 -18q37 0 58.5 20.5t21.5 54.5t-21.5 54.5t-58.5 20.5h-20q-19 0 -32 13t-13 32t13 32t32 13z" />
    <glyph glyph-name="afii10074" unicode="&#x438;" 
d="M420 485v-440q0 -19 -13 -32t-32 -13t-32 13t-13 32v285l-170 -300q-18 -30 -45 -30q-19 0 -32 13t-13 32v440q0 19 13 32t32 13t32 -13t13 -32v-285l170 300q18 30 45 30q19 0 32 -13t13 -32z" />
    <glyph glyph-name="afii10075" unicode="&#x439;" 
d="M420 485v-440q0 -19 -13 -32t-32 -13t-32 13t-13 32v285l-170 -300q-18 -30 -45 -30q-19 0 -32 13t-13 32v440q0 19 13 32t32 13t32 -13t13 -32v-285l170 300q18 30 45 30q19 0 32 -13t13 -32zM245 670q30 0 40 30q12 35 45 35q15 0 27.5 -12.5t12.5 -27.5l-4 -25
q-9 -33 -40.5 -56.5t-80.5 -23.5t-80.5 23.5t-40.5 56.5q-4 15 -4 25q0 15 12.5 27.5t27.5 12.5q33 0 45 -35q10 -30 40 -30z" />
    <glyph glyph-name="afii10076" unicode="&#x43a;" horiz-adv-x="430" 
d="M240 330l70 170q1 3 3.5 8t13 13.5t23.5 8.5q19 0 32 -13t13 -32l-5 -25l-75 -175l90 -215q5 -15 5 -25q0 -19 -13 -32t-32 -13q-13 0 -23 7.5t-14 14.5l-3 8l-85 210h-80v-195q0 -19 -13 -32t-32 -13t-32 13t-13 32v440q0 19 13 32t32 13t32 -13t13 -32v-155h80z" />
    <glyph glyph-name="afii10077" unicode="&#x43b;" horiz-adv-x="450" 
d="M65 0q-15 -10 -35 -10q-15 0 -27.5 12.5t-12.5 27.5q0 11 6 23.5t12 19.5l7 7q20 23 30.5 39.5t29 61t27 121t8.5 183.5q0 19 13 32t32 13h180q19 0 32 -13t13 -32v-440q0 -19 -13 -32t-32 -13t-32 13t-13 32v395h-90q0 -350 -135 -440z" />
    <glyph glyph-name="afii10078" unicode="&#x43c;" horiz-adv-x="570" 
d="M285 10q-30 0 -40 30l-75 270l-40 -270q-2 -16 -14.5 -28t-30.5 -12q-19 0 -32 14t-13 36l5 40l60 400q2 16 15.5 28t34.5 12q38 0 50 -40l80 -295l80 295q12 40 50 40q21 0 34.5 -12t15.5 -28l60 -400q5 -25 5 -40q0 -22 -13 -36t-32 -14q-18 0 -30.5 12t-14.5 28
l-40 270l-75 -270q-10 -30 -40 -30z" />
    <glyph glyph-name="afii10079" unicode="&#x43d;" horiz-adv-x="480" 
d="M410 485v-440q0 -19 -13 -32t-32 -13t-32 13t-13 32v205h-160v-205q0 -19 -13 -32t-32 -13t-32 13t-13 32v440q0 19 13 32t32 13t32 -13t13 -32v-145h160v145q0 19 13 32t32 13t32 -13t13 -32z" />
    <glyph glyph-name="afii10080" unicode="&#x43e;" horiz-adv-x="480" 
d="M240 80q49 0 74.5 41t25.5 144t-25.5 144t-74.5 41t-74.5 -41t-25.5 -144t25.5 -144t74.5 -41zM240 -10q-87 0 -138.5 67.5t-51.5 207.5t51.5 207.5t138.5 67.5t138.5 -67.5t51.5 -207.5t-51.5 -207.5t-138.5 -67.5z" />
    <glyph glyph-name="afii10081" unicode="&#x43f;" horiz-adv-x="480" 
d="M410 485v-440q0 -19 -13 -32t-32 -13t-32 13t-13 32v395h-160v-395q0 -19 -13 -32t-32 -13t-32 13t-13 32v440q0 19 13 32t32 13h250q19 0 32 -13t13 -32z" />
    <glyph glyph-name="afii10082" unicode="&#x440;" horiz-adv-x="500" 
d="M160 65v-190q0 -19 -13 -32t-32 -13t-32 13t-13 32v610q0 19 13 32t32 13t32 -13t13 -32v-10q2 3 5 7t14 15.5t24 20t34 15.5t43 7q73 0 121.5 -68t48.5 -202t-48.5 -202t-121.5 -68q-22 0 -43 6.5t-34 16t-23.5 19.5t-15.5 16zM160 380v-220l5 -7.5t13 -16.5t21 -21.5
t27.5 -17t33.5 -7.5q49 0 74.5 40.5t25.5 139.5t-25.5 139.5t-74.5 40.5q-27 0 -52 -17.5t-36 -34.5z" />
    <glyph glyph-name="afii10083" unicode="&#x441;" horiz-adv-x="435" 
d="M140 265q0 -103 25.5 -144t74.5 -41q28 0 50 18t30 42q10 25 40 25q19 0 32 -13t13 -32l-5 -30q-45 -100 -160 -100q-87 0 -138.5 67.5t-51.5 207.5t51.5 207.5t138.5 67.5q110 0 150 -90q5 -10 5 -30q0 -19 -13 -32t-32 -13q-13 0 -23 6.5t-13 12.5l-4 6q-4 17 -25 33.5
t-45 16.5q-49 0 -74.5 -41t-25.5 -144z" />
    <glyph glyph-name="afii10084" unicode="&#x442;" horiz-adv-x="360" 
d="M10 485q0 19 13 32t32 13h250q19 0 32 -13t13 -32t-13 -32t-32 -13h-80v-395q0 -19 -13 -32t-32 -13t-32 13t-13 32v395h-80q-19 0 -32 13t-13 32z" />
    <glyph glyph-name="afii10085" unicode="&#x443;" horiz-adv-x="410" 
d="M115 -95l45 135l-135 415q-5 15 -5 25q0 22 12 36t28 14t27 -7.5t15 -14.5l3 -8l100 -314l100 314q1 3 3.5 8t14 13.5t27.5 8.5t28 -14t12 -36l-5 -25l-190 -595q-1 -3 -3.5 -8t-14 -13.5t-27.5 -8.5t-28 14t-12 36z" />
    <glyph glyph-name="afii10086" unicode="&#x444;" horiz-adv-x="670" 
d="M335 -170q-19 0 -32 13t-13 32v165q-3 -4 -10 -11t-30 -18t-50 -11q-66 0 -108 65t-42 205t42 205t108 65q27 0 49.5 -10t31.5 -20l9 -10v155q0 19 13 32t32 13t32 -13t13 -32v-155q3 4 10 11t30 18t50 11q66 0 108 -65t42 -205t-42 -205t-108 -65q-27 0 -49.5 10
t-31.5 20l-9 10v-165q0 -19 -13 -32t-32 -13zM380 405v-270q3 -5 9.5 -12.5t24.5 -20t36 -12.5q41 0 60.5 37t19.5 143t-19.5 143t-60.5 37q-18 0 -35.5 -11t-26.5 -23zM290 135v270q-3 5 -9.5 12.5t-24.5 20t-36 12.5q-41 0 -60.5 -37t-19.5 -143t19.5 -143t60.5 -37
q18 0 35.5 11t26.5 23z" />
    <glyph glyph-name="afii10087" unicode="&#x445;" horiz-adv-x="450" 
d="M225 330l75 69v86q0 19 13 32t32 13t32 -13t13 -32v-106q0 -24 -25 -49l-65 -60l65 -60q25 -25 25 -50v-115q0 -19 -13 -32t-32 -13t-32 13t-13 32v95l-75 70l-75 -70v-95q0 -19 -13 -32t-32 -13t-32 13t-13 32v115q0 25 25 50l65 60l-65 60q-25 25 -25 49v106
q0 19 13 32t32 13t32 -13t13 -32v-86z" />
    <glyph glyph-name="afii10088" unicode="&#x446;" horiz-adv-x="480" 
d="M390 485v-395h25q19 0 32 -13t13 -32v-110q0 -19 -13 -32t-32 -13t-32 13t-13 32v65h-255q-19 0 -32 13t-13 32v440q0 19 13 32t32 13t32 -13t13 -32v-395h140v395q0 19 13 32t32 13t32 -13t13 -32z" />
    <glyph glyph-name="afii10089" unicode="&#x447;" horiz-adv-x="460" 
d="M220 270q22 0 42 5t29 11l9 5v194q0 19 13 32t32 13t32 -13t13 -32v-440q0 -19 -13 -32t-32 -13t-32 13t-13 32v155q-30 -20 -90 -20q-69 0 -109.5 44.5t-40.5 125.5v135q0 19 13 32t32 13t32 -13t13 -32v-135q0 -37 19.5 -58.5t50.5 -21.5z" />
    <glyph glyph-name="afii10090" unicode="&#x448;" horiz-adv-x="630" 
d="M560 485v-440q0 -19 -13 -32t-32 -13h-400q-19 0 -32 13t-13 32v440q0 19 13 32t32 13t32 -13t13 -32v-395h110v395q0 19 13 32t32 13t32 -13t13 -32v-395h110v395q0 19 13 32t32 13t32 -13t13 -32z" />
    <glyph glyph-name="afii10091" unicode="&#x449;" horiz-adv-x="650" 
d="M630 45v-110q0 -19 -13 -32t-32 -13t-32 13t-13 32v65h-425q-19 0 -32 13t-13 32v440q0 19 13 32t32 13t32 -13t13 -32v-395h110v395q0 19 13 32t32 13t32 -13t13 -32v-395h110v395q0 19 13 32t32 13t32 -13t13 -32v-395h25q19 0 32 -13t13 -32z" />
    <glyph glyph-name="afii10092" unicode="&#x44a;" horiz-adv-x="450" 
d="M-10 485q0 19 13 32t32 13h120q19 0 32 -13t13 -32v-140q20 5 40 5q82 0 131 -47t49 -123q0 -72 -68.5 -126t-185.5 -54h-11q-19 0 -32 13t-13 32v395h-75q-19 0 -32 13t-13 32zM200 255v-165q65 7 97.5 34t32.5 66q0 31 -23 50.5t-67 19.5z" />
    <glyph glyph-name="afii10093" unicode="&#x44b;" horiz-adv-x="600" 
d="M126 0h-11q-19 0 -32 13t-13 32v440q0 19 13 32t32 13t32 -13t13 -32v-140q20 5 40 5q82 0 131 -47t49 -123q0 -72 -68.5 -126t-185.5 -54zM160 255v-165q65 7 97.5 34t32.5 66q0 31 -23 50.5t-67 19.5zM530 485v-440q0 -19 -13 -32t-32 -13t-32 13t-13 32v440
q0 19 13 32t32 13t32 -13t13 -32z" />
    <glyph glyph-name="afii10094" unicode="&#x44c;" horiz-adv-x="420" 
d="M126 0h-11q-19 0 -32 13t-13 32v440q0 19 13 32t32 13t32 -13t13 -32v-140q20 5 50 5q82 0 131 -47t49 -123q0 -73 -70 -126.5t-194 -53.5zM160 255v-165q140 14 140 100q0 31 -23 50.5t-67 19.5z" />
    <glyph glyph-name="afii10095" unicode="&#x44d;" horiz-adv-x="435" 
d="M195 80q93 0 100 145h-105q-19 0 -32 13t-13 32t13 32t32 13h105q-7 72 -32 103.5t-68 31.5q-24 0 -45 -16.5t-25 -33.5q-10 -25 -40 -25q-19 0 -32 13t-13 32l5 30q40 90 150 90q87 0 138.5 -67.5t51.5 -207.5t-51.5 -207.5t-138.5 -67.5q-115 0 -160 100q-5 10 -5 30
q0 19 13 32t32 13q13 0 23 -6.5t14 -12.5l3 -6q8 -24 30 -42t50 -18z" />
    <glyph glyph-name="afii10096" unicode="&#x44e;" horiz-adv-x="640" 
d="M410 -10q-74 0 -123.5 59t-56.5 171h-70v-175q0 -19 -13 -32t-32 -13t-32 13t-13 32v440q0 19 13 32t32 13t32 -13t13 -32v-175h70q7 112 56.5 171t123.5 59q80 0 130 -68t50 -207t-50 -207t-130 -68zM410 80q90 0 90 185t-90 185t-90 -185t90 -185z" />
    <glyph glyph-name="afii10097" unicode="&#x44f;" horiz-adv-x="440" 
d="M140 380q0 -86 140 -100v165q-20 5 -50 5q-44 0 -67 -19.5t-23 -50.5zM40 70l70 180q-7 5 -17 15t-26.5 43.5t-16.5 71.5q0 69 49.5 114.5t130.5 45.5q20 0 42.5 -2.5t35.5 -5.5l12 -2q22 -4 36 -17.5t14 -31.5v-433q0 -21 -12 -34.5t-31 -13.5q-20 0 -33.5 13.5
t-13.5 34.5v142q-22 2 -44.5 7.5t-33.5 8.5l-12 4l-70 -180q-1 -3 -3.5 -8t-13 -13.5t-23.5 -8.5q-19 0 -32 13t-13 32z" />
    <glyph glyph-name="afii10071" unicode="&#x451;" horiz-adv-x="465" 
d="M240 80q28 0 50 18t30 42q10 25 40 25q19 0 32 -13t13 -32l-5 -30q-45 -100 -160 -100q-87 0 -138.5 67.5t-51.5 207.5q0 139 50.5 207t134.5 68t134.5 -68.5t50.5 -211.5q0 -15 -12.5 -27.5t-27.5 -12.5h-240q7 -140 100 -140zM140 310h190q-4 71 -29.5 105.5
t-65.5 34.5t-65.5 -34.5t-29.5 -105.5zM155 710q23 0 39 -16t16 -39t-16 -39t-39 -16t-39 16t-16 39t16 39t39 16zM315 710q23 0 39 -16t16 -39t-16 -39t-39 -16t-39 16t-16 39t16 39t39 16z" />
    <glyph glyph-name="afii10099" unicode="&#x452;" horiz-adv-x="480" 
d="M430 260v-100q0 -180 -170 -180q-19 0 -32 13t-13 32t13 32t32 13q80 0 80 90v100q0 37 -19.5 58.5t-50.5 21.5q-27 0 -52 -17.5t-36 -34.5l-12 -18v-225q0 -19 -13 -32t-32 -13t-32 13t-13 32v465h-35q-19 0 -32 13t-13 32t13 32t32 13h35v55q0 19 13 32t32 13t32 -13
t13 -32v-55h65q19 0 32 -13t13 -32t-13 -32t-32 -13h-65v-145q2 3 5 7t14 15.5t24 20t34 15.5t43 7q58 0 99 -47t41 -123z" />
    <glyph glyph-name="afii10100" unicode="&#x453;" horiz-adv-x="350" 
d="M350 485q0 -19 -13 -32t-32 -13h-145v-395q0 -19 -13 -32t-32 -13t-32 13t-13 32v440q0 19 13 32t32 13h190q19 0 32 -13t13 -32zM320 660l-110 -60q-15 -10 -30 -10q-22 0 -36 13t-14 32q0 16 5 27t10 14l5 4l110 60q15 10 30 10q22 0 36 -13t14 -32q0 -16 -5 -27
t-10 -14z" />
    <glyph glyph-name="afii10101" unicode="&#x454;" horiz-adv-x="435" 
d="M240 80q28 0 50 18t30 42q10 25 40 25q19 0 32 -13t13 -32l-5 -30q-45 -100 -160 -100q-87 0 -138.5 67.5t-51.5 207.5t51.5 207.5t138.5 67.5q110 0 150 -90q5 -10 5 -30q0 -19 -13 -32t-32 -13q-13 0 -23 6.5t-13 12.5l-4 6q-4 17 -25 33.5t-45 16.5q-43 0 -68 -31.5
t-32 -103.5h105q19 0 32 -13t13 -32t-13 -32t-32 -13h-105q7 -145 100 -145z" />
    <glyph glyph-name="afii10102" unicode="&#x455;" horiz-adv-x="415" 
d="M210 540q110 0 150 -90q5 -10 5 -30q0 -19 -13 -32t-32 -13q-13 0 -23 6.5t-13 12.5l-4 6q-4 17 -25 33.5t-45 16.5q-30 0 -50 -20t-20 -50q0 -18 17.5 -33t43.5 -24t56.5 -23t56.5 -29.5t43.5 -44t17.5 -66.5q0 -75 -47.5 -122.5t-122.5 -47.5q-115 0 -160 100
q-5 10 -5 30q0 19 13 32t32 13q13 0 23 -6.5t14 -12.5l3 -6q8 -24 30 -42t50 -18q37 0 58.5 21t21.5 59q0 22 -24 38t-58.5 28.5t-69.5 29t-59 48.5t-24 76q0 71 44.5 115.5t115.5 44.5z" />
    <glyph glyph-name="afii10103" unicode="&#x456;" horiz-adv-x="240" 
d="M75 45v440q0 19 13 32t32 13t32 -13t13 -32v-440q0 -19 -13 -32t-32 -13t-32 13t-13 32zM170 650q0 -19 -15.5 -34.5t-34.5 -15.5t-34.5 15.5t-15.5 34.5t15.5 34.5t34.5 15.5t34.5 -15.5t15.5 -34.5z" />
    <glyph glyph-name="afii10104" unicode="&#x457;" horiz-adv-x="240" 
d="M75 45v440q0 19 13 32t32 13t32 -13t13 -32v-440q0 -19 -13 -32t-32 -13t-32 13t-13 32zM40 700q22 0 38.5 -16t16.5 -39t-16.5 -39t-38.5 -16t-38.5 16t-16.5 39t16.5 39t38.5 16zM200 700q22 0 38.5 -16t16.5 -39t-16.5 -39t-38.5 -16t-38.5 16t-16.5 39t16.5 39
t38.5 16z" />
    <glyph glyph-name="afii10105" unicode="&#x458;" horiz-adv-x="250" 
d="M180 650q0 -19 -15.5 -34.5t-34.5 -15.5t-34.5 15.5t-15.5 34.5t15.5 34.5t34.5 15.5t34.5 -15.5t15.5 -34.5zM5 -90q80 0 80 90v485q0 19 13 32t32 13t32 -13t13 -32v-485q0 -180 -170 -180q-19 0 -32 13t-13 32t13 32t32 13z" />
    <glyph glyph-name="afii10106" unicode="&#x459;" horiz-adv-x="640" 
d="M346 0h-11q-19 0 -32 13t-13 32v395h-90q0 -350 -135 -440q-15 -10 -35 -10q-15 0 -27.5 12.5t-12.5 27.5q0 11 6 23.5t12 19.5l7 7q20 23 30.5 39.5t29 61t27 121t8.5 183.5q0 19 13 32t32 13h180q19 0 32 -13t13 -32v-140q20 5 50 5q82 0 131 -47t49 -123
q0 -73 -70 -126.5t-194 -53.5zM380 255v-165q140 14 140 100q0 31 -23 50.5t-67 19.5z" />
    <glyph glyph-name="afii10107" unicode="&#x45a;" horiz-adv-x="670" 
d="M376 0h-11q-19 0 -32 13t-13 32v215h-160v-215q0 -19 -13 -32t-32 -13t-32 13t-13 32v440q0 19 13 32t32 13t32 -13t13 -32v-135h160v135q0 19 13 32t32 13t32 -13t13 -32v-135h50q82 0 131 -47t49 -123q0 -73 -70 -126.5t-194 -53.5zM410 260v-170q140 14 140 100
q0 31 -23 50.5t-67 19.5h-50z" />
    <glyph glyph-name="afii10108" unicode="&#x45b;" 
d="M235 510h-65v-145q2 3 5 7t14 15.5t24 20t34 15.5t43 7q58 0 99 -47t41 -123v-215q0 -19 -13 -32t-32 -13t-32 13t-13 32v215q0 37 -19.5 58.5t-50.5 21.5q-27 0 -52 -17.5t-36 -34.5l-12 -18v-225q0 -19 -13 -32t-32 -13t-32 13t-13 32v465h-35q-19 0 -32 13t-13 32
t13 32t32 13h35v55q0 19 13 32t32 13t32 -13t13 -32v-55h65q19 0 32 -13t13 -32t-13 -32t-32 -13z" />
    <glyph glyph-name="afii10109" unicode="&#x45c;" horiz-adv-x="430" 
d="M240 330l70 170q1 3 3.5 8t13 13.5t23.5 8.5q19 0 32 -13t13 -32l-5 -25l-75 -175l90 -215q5 -15 5 -25q0 -19 -13 -32t-32 -13q-13 0 -23 7.5t-14 14.5l-3 8l-85 210h-80v-195q0 -19 -13 -32t-32 -13t-32 13t-13 32v440q0 19 13 32t32 13t32 -13t13 -32v-155h80z
M350 660l-110 -60q-15 -10 -30 -10q-22 0 -36 13t-14 32q0 16 5 27t10 14l5 4l110 60q15 10 30 10q22 0 36 -13t14 -32q0 -16 -5 -27t-10 -14z" />
    <glyph glyph-name="afii10110" unicode="&#x45e;" horiz-adv-x="410" 
d="M115 -95l45 135l-135 415q-5 15 -5 25q0 22 12 36t28 14t27 -7.5t15 -14.5l3 -8l100 -314l100 314q1 3 3.5 8t14 13.5t27.5 8.5t28 -14t12 -36l-5 -25l-190 -595q-1 -3 -3.5 -8t-14 -13.5t-27.5 -8.5t-28 14t-12 36zM205 680q31 0 40 35q8 35 45 35q19 0 32 -13t13 -32
l-5 -25q-12 -37 -45.5 -63.5t-79.5 -26.5t-79.5 26.5t-45.5 63.5q-5 15 -5 25q0 19 13 32t32 13q37 0 45 -35q9 -35 40 -35z" />
    <glyph glyph-name="afii10193" unicode="&#x45f;" horiz-adv-x="480" 
d="M160 90h160v395q0 19 13 32t32 13t32 -13t13 -32v-440q0 -19 -13 -32t-32 -13h-80v-65q0 -19 -13 -32t-32 -13t-32 13t-13 32v65h-80q-19 0 -32 13t-13 32v440q0 19 13 32t32 13t32 -13t13 -32v-395z" />
    <glyph glyph-name="afii10050" unicode="&#x490;" horiz-adv-x="390" 
d="M290 700v40q0 19 15.5 34.5t34.5 15.5t34.5 -15.5t15.5 -34.5v-90q0 -19 -15.5 -34.5t-34.5 -15.5h-160v-550q0 -19 -15.5 -34.5t-34.5 -15.5t-34.5 15.5t-15.5 34.5v600q0 19 15.5 34.5t34.5 15.5h160z" />
    <glyph glyph-name="afii10098" unicode="&#x491;" horiz-adv-x="350" 
d="M260 530v35q0 19 13 32t32 13t32 -13t13 -32v-80q0 -19 -13 -32t-32 -13h-145v-395q0 -19 -13 -32t-32 -13t-32 13t-13 32v440q0 19 13 32t32 13h145z" />
    <glyph glyph-name="uni1E9E" unicode="&#x1e9e;" horiz-adv-x="530" 
d="M240 400l105 200h-165v-550q0 -19 -15.5 -34.5t-34.5 -15.5t-34.5 15.5t-15.5 34.5v600q0 19 15.5 34.5t34.5 15.5h285q19 0 34.5 -15.5t15.5 -34.5q0 -7 -2.5 -14.5t-4.5 -11.5l-3 -4l-115 -220q63 -16 106.5 -67t43.5 -123q0 -90 -60 -150t-150 -60q-19 0 -34.5 15.5
t-15.5 34.5t15.5 34.5t34.5 15.5q49 0 79.5 30.5t30.5 79.5t-30.5 79.5t-79.5 30.5q-19 0 -34.5 15.5t-15.5 34.5q0 7 2.5 14.5t5.5 11.5z" />
    <glyph glyph-name="endash" unicode="&#x2013;" horiz-adv-x="470" 
d="M400 270h-330q-19 0 -34.5 15.5t-15.5 34.5t15.5 34.5t34.5 15.5h330q19 0 34.5 -15.5t15.5 -34.5t-15.5 -34.5t-34.5 -15.5z" />
    <glyph glyph-name="emdash" unicode="&#x2014;" horiz-adv-x="680" 
d="M70 370h540q19 0 34.5 -15.5t15.5 -34.5t-15.5 -34.5t-34.5 -15.5h-540q-19 0 -34.5 15.5t-15.5 34.5t15.5 34.5t34.5 15.5z" />
    <glyph glyph-name="quoteleft" unicode="&#x2018;" horiz-adv-x="170" 
d="M100 710q15 0 25 -10.5t10 -24.5q0 -7 -10 -32t-10 -48q0 -8 12.5 -32t12.5 -43t-14 -32t-36 -13q-25 0 -42.5 25.5t-17.5 74.5q0 61 23.5 98t46.5 37z" />
    <glyph glyph-name="quoteright" unicode="&#x2019;" horiz-adv-x="170" 
d="M70 475q-15 0 -25 10.5t-10 24.5q0 8 10 33t10 47q0 8 -12.5 32t-12.5 43t14 32t36 13q25 0 42.5 -25.5t17.5 -74.5q0 -61 -23.5 -98t-46.5 -37z" />
    <glyph glyph-name="quotesinglbase" unicode="&#x201a;" horiz-adv-x="170" 
d="M70 -125q-15 0 -25 10.5t-10 24.5q0 8 10 33t10 47q0 8 -12.5 32t-12.5 43t14 32t36 13q25 0 42.5 -25.5t17.5 -74.5q0 -61 -23.5 -98t-46.5 -37z" />
    <glyph glyph-name="quotedblleft" unicode="&#x201c;" horiz-adv-x="320" 
d="M250 710q15 0 25 -10.5t10 -24.5q0 -7 -10 -32t-10 -48q0 -8 12.5 -32t12.5 -43t-14 -32t-36 -13q-25 0 -42.5 25.5t-17.5 74.5q0 61 23.5 98t46.5 37zM100 710q15 0 25 -10.5t10 -24.5q0 -7 -10 -32t-10 -48q0 -8 12.5 -32t12.5 -43t-14 -32t-36 -13q-25 0 -42.5 25.5
t-17.5 74.5q0 61 23.5 98t46.5 37z" />
    <glyph glyph-name="quotedblright" unicode="&#x201d;" horiz-adv-x="320" 
d="M70 475q-15 0 -25 10.5t-10 24.5q0 8 10 33t10 47q0 8 -12.5 32t-12.5 43t14 32t36 13q25 0 42.5 -25.5t17.5 -74.5q0 -61 -23.5 -98t-46.5 -37zM220 475q-15 0 -25 10.5t-10 24.5q0 8 10 33t10 47q0 8 -12.5 32t-12.5 43t14 32t36 13q25 0 42.5 -25.5t17.5 -74.5
q0 -61 -23.5 -98t-46.5 -37z" />
    <glyph glyph-name="quotedblbase" unicode="&#x201e;" horiz-adv-x="320" 
d="M70 -125q-15 0 -25 10.5t-10 24.5q0 8 10 33t10 47q0 8 -12.5 32t-12.5 43t14 32t36 13q25 0 42.5 -25.5t17.5 -74.5q0 -61 -23.5 -98t-46.5 -37zM220 -125q-15 0 -25 10.5t-10 24.5q0 8 10 33t10 47q0 8 -12.5 32t-12.5 43t14 32t36 13q25 0 42.5 -25.5t17.5 -74.5
q0 -61 -23.5 -98t-46.5 -37z" />
    <glyph glyph-name="dagger" unicode="&#x2020;" horiz-adv-x="440" 
d="M270 -200q0 -19 -15.5 -34.5t-34.5 -15.5t-34.5 15.5t-15.5 34.5v550h-100q-19 0 -34.5 15.5t-15.5 34.5t15.5 34.5t34.5 15.5h100v200q0 19 15.5 34.5t34.5 15.5t34.5 -15.5t15.5 -34.5v-200h100q19 0 34.5 -15.5t15.5 -34.5t-15.5 -34.5t-34.5 -15.5h-100v-550z" />
    <glyph glyph-name="daggerdbl" unicode="&#x2021;" horiz-adv-x="440" 
d="M370 350h-100v-250h100q19 0 34.5 -15.5t15.5 -34.5t-15.5 -34.5t-34.5 -15.5h-100v-200q0 -19 -15.5 -34.5t-34.5 -15.5t-34.5 15.5t-15.5 34.5v200h-100q-19 0 -34.5 15.5t-15.5 34.5t15.5 34.5t34.5 15.5h100v250h-100q-19 0 -34.5 15.5t-15.5 34.5t15.5 34.5
t34.5 15.5h100v200q0 19 15.5 34.5t34.5 15.5t34.5 -15.5t15.5 -34.5v-200h100q19 0 34.5 -15.5t15.5 -34.5t-15.5 -34.5t-34.5 -15.5z" />
    <glyph glyph-name="bullet" unicode="&#x2022;" horiz-adv-x="340" 
d="M260 300q0 -38 -26 -64t-64 -26t-64 26t-26 64t26 64t64 26t64 -26t26 -64z" />
    <glyph glyph-name="ellipsis" unicode="&#x2026;" horiz-adv-x="550" 
d="M465 100q23 0 39 -16t16 -39t-16 -39t-39 -16t-39 16t-16 39t16 39t39 16zM275 100q23 0 39 -16t16 -39t-16 -39t-39 -16t-39 16t-16 39t16 39t39 16zM85 100q23 0 39 -16t16 -39t-16 -39t-39 -16t-39 16t-16 39t16 39t39 16z" />
    <glyph glyph-name="perthousand" unicode="&#x2030;" horiz-adv-x="1005" 
d="M140 80l330 590q15 30 45 30q19 0 34.5 -15.5t15.5 -34.5q1 -19 -10 -30l-330 -590q-15 -30 -45 -30q-19 0 -34.5 15.5t-15.5 34.5q0 7 2.5 14.5t5.5 11.5zM160 350q-66 0 -103 44.5t-37 135.5t37 135.5t103 44.5t103 -44.5t37 -135.5t-37 -135.5t-103 -44.5zM160 440
q50 0 50 90t-50 90t-50 -90t50 -90zM535 -10q-66 0 -103 44.5t-37 135.5t37 135.5t103 44.5t103 -44.5t37 -135.5t-37 -135.5t-103 -44.5zM535 80q50 0 50 90t-50 90t-50 -90t50 -90zM845 -10q-66 0 -103 44.5t-37 135.5t37 135.5t103 44.5t103 -44.5t37 -135.5t-37 -135.5
t-103 -44.5zM845 80q50 0 50 90t-50 90t-50 -90t50 -90z" />
    <glyph glyph-name="guilsinglleft" unicode="&#x2039;" horiz-adv-x="360" 
d="M30 260q0 20 20 40l190 190q10 10 30 10q19 0 34.5 -15.5t15.5 -34.5q0 -9 -2.5 -16.5t-5.5 -10.5l-2 -3l-160 -160l160 -160q10 -10 10 -30q0 -19 -15.5 -34.5t-34.5 -15.5q-9 0 -16.5 2.5t-10.5 5.5l-3 2l-190 190q-20 20 -20 40z" />
    <glyph glyph-name="guilsinglright" unicode="&#x203a;" horiz-adv-x="360" 
d="M330 260q0 -20 -20 -40l-190 -190q-10 -10 -30 -10q-19 0 -34.5 15.5t-15.5 34.5q0 9 2.5 16.5t5.5 10.5l2 3l160 160l-160 160q-10 10 -10 30q0 19 15.5 34.5t34.5 15.5q9 0 16.5 -2.5t10.5 -5.5l3 -2l190 -190q20 -20 20 -40z" />
    <glyph glyph-name="fraction" unicode="&#x2044;" horiz-adv-x="435" 
d="M10 80l330 590q15 30 45 30q19 0 34.5 -15.5t15.5 -34.5q1 -19 -10 -30l-330 -590q-15 -30 -45 -30q-19 0 -34.5 15.5t-15.5 34.5q0 7 2.5 14.5t5.5 11.5z" />
    <glyph glyph-name="foursuperior" unicode="&#x2074;" horiz-adv-x="320" 
d="M260 510v-10q40 0 40 -40t-40 -40v-30q0 -40 -40 -40t-40 40v30h-110q-40 0 -40 40q0 9 4 19t8 15l3 6l120 195q10 15 25 15q18 0 31.5 -12.5t13.5 -27.5q0 -7 -2.5 -14.5t-4.5 -11.5l-3 -4l-85 -140h40v10q0 40 40 40t40 -40z" />
    <glyph glyph-name="Euro" unicode="&#x20ac;" horiz-adv-x="535" 
d="M320 230h-125q11 -73 40.5 -106.5t79.5 -33.5q74 0 100 70q1 3 3.5 8t14 13.5t27.5 8.5q19 0 32 -14t13 -36l-5 -30q-17 -50 -64.5 -85t-120.5 -35q-184 0 -220 240h-25q-19 0 -34.5 15.5t-15.5 34.5t15.5 34.5t34.5 15.5h20v40h-20q-19 0 -34.5 15.5t-15.5 34.5
t15.5 34.5t34.5 15.5h25q36 240 220 240q69 0 115.5 -33.5t59.5 -76.5q5 -15 5 -30q0 -22 -13 -36t-32 -14q-16 0 -27 7.5t-15 14.5l-3 8q-8 25 -31.5 42.5t-58.5 17.5q-50 0 -79.5 -33.5t-40.5 -106.5h125q19 0 34.5 -15.5t15.5 -34.5t-15.5 -34.5t-34.5 -15.5h-130v-40
h130q19 0 34.5 -15.5t15.5 -34.5t-15.5 -34.5t-34.5 -15.5z" />
    <glyph glyph-name="uni20BD" unicode="&#x20bd;" horiz-adv-x="530" 
d="M350 140h-150v-90q0 -19 -15.5 -34.5t-34.5 -15.5t-34.5 15.5t-15.5 34.5v90h-30q-19 0 -34.5 15.5t-15.5 34.5t15.5 34.5t34.5 15.5h30v40h-30q-19 0 -34.5 15.5t-15.5 34.5t15.5 34.5t34.5 15.5h30v270q0 19 14 32.5t36 17.5q40 10 100 10q109 0 174.5 -57.5
t65.5 -142.5q0 -101 -68.5 -158t-221.5 -72v-40h150q19 0 34.5 -15.5t15.5 -34.5t-15.5 -34.5t-34.5 -15.5zM200 605v-225q190 14 190 130q0 40 -38 70t-102 30z" />
    <glyph glyph-name="afii61352" unicode="&#x2116;" horiz-adv-x="890" 
d="M405 40l-225 420v-410q0 -19 -15.5 -34.5t-34.5 -15.5t-34.5 15.5t-15.5 34.5v600q0 19 15.5 34.5t34.5 15.5q33 0 55 -40l225 -420v410q0 19 15.5 34.5t34.5 15.5t34.5 -15.5t15.5 -34.5v-600q0 -19 -15.5 -34.5t-34.5 -15.5q-33 0 -55 40zM700 350q-66 0 -103 44.5
t-37 135.5t37 135.5t103 44.5t103 -44.5t37 -135.5t-37 -135.5t-103 -44.5zM700 440q50 0 50 90t-50 90t-50 -90t50 -90zM780 190h-160q-19 0 -34.5 15.5t-15.5 34.5t15.5 34.5t34.5 15.5h160q19 0 34.5 -15.5t15.5 -34.5t-15.5 -34.5t-34.5 -15.5z" />
    <glyph glyph-name="trademark" unicode="&#x2122;" horiz-adv-x="555" 
d="M0 665q0 15 10 25t25 10h161q14 0 24 -10t10 -25t-10 -25t-24 -10h-46v-215q0 -15 -10 -25t-25 -10t-25 10t-10 25v215h-45q-15 0 -25 10t-10 25zM375 525l35 145q3 12 14.5 21t25.5 9q18 0 28 -9t12 -21l30 -210q5 -30 5 -40q0 -18 -10 -29t-25 -11q-14 0 -23.5 9
t-11.5 21l-15 125l-30 -120q-8 -25 -35 -25t-35 25l-30 120l-15 -125q-2 -12 -11.5 -21t-23.5 -9q-15 0 -25 11t-10 29l5 40l30 210q2 12 12 21t28 9q14 0 25.5 -9t14.5 -21z" />
    <glyph glyph-name="minus" unicode="&#x2212;" horiz-adv-x="380" 
d="M310 270h-240q-19 0 -34.5 15.5t-15.5 34.5t15.5 34.5t34.5 15.5h240q19 0 34.5 -15.5t15.5 -34.5t-15.5 -34.5t-34.5 -15.5z" />
    <glyph glyph-name="commaaccent" unicode="&#xf6c3;" horiz-adv-x="170" 
d="M70 -345q-15 0 -25 10.5t-10 24.5q0 8 10 33t10 47q0 8 -12.5 32t-12.5 43t14 32t36 13q25 0 42.5 -25.5t17.5 -74.5q0 -61 -23.5 -98t-46.5 -37z" />
    <glyph glyph-name="cyrBreve" unicode="&#xf6d1;" horiz-adv-x="340" 
d="M170 860q14 0 27.5 11.5t17.5 23.5q16 40 50 40q19 0 32 -14t13 -36l-5 -25q-8 -34 -45.5 -62t-89.5 -28t-89.5 28t-45.5 62q-5 15 -5 25q0 22 13 36t32 14q34 0 50 -40q4 -12 17.5 -23.5t27.5 -11.5z" />
    <glyph glyph-name="cyrbreve" unicode="&#xf6d4;" horiz-adv-x="310" 
d="M155 660q30 0 40 30q12 35 45 35q15 0 27.5 -12.5t12.5 -27.5l-4 -25q-9 -33 -40.5 -56.5t-80.5 -23.5t-80.5 23.5t-40.5 56.5q-4 15 -4 25q0 15 12.5 27.5t27.5 12.5q33 0 45 -35q10 -30 40 -30z" />
    <glyph glyph-name="Germandbls" horiz-adv-x="530" 
d="M240 400l105 200h-165v-550q0 -19 -15.5 -34.5t-34.5 -15.5t-34.5 15.5t-15.5 34.5v600q0 19 15.5 34.5t34.5 15.5h285q19 0 34.5 -15.5t15.5 -34.5q0 -7 -2.5 -14.5t-4.5 -11.5l-3 -4l-115 -220q63 -16 106.5 -67t43.5 -123q0 -90 -60 -150t-150 -60q-19 0 -34.5 15.5
t-15.5 34.5t15.5 34.5t34.5 15.5q49 0 79.5 30.5t30.5 79.5t-30.5 79.5t-79.5 30.5q-19 0 -34.5 15.5t-15.5 34.5q0 7 2.5 14.5t5.5 11.5z" />
    </font>
</defs>
</svg>
